<svg width="498" height="107" viewBox="0 0 498 107" fill="none" xmlns="http://www.w3.org/2000/svg">
<path d="M40 1H458C479.539 1.00001 497 18.4609 497 40V67C497 88.5391 479.539 106 458 106H40C18.4609 106 1 88.5391 1 67V40L1.0127 38.9932C1.53824 18.254 18.254 1.53825 38.9932 1.0127L40 1Z" fill="black" fill-opacity="0.2"/>
<path d="M40 1H458C479.539 1.00001 497 18.4609 497 40V67C497 88.5391 479.539 106 458 106H40C18.4609 106 1 88.5391 1 67V40L1.0127 38.9932C1.53824 18.254 18.254 1.53825 38.9932 1.0127L40 1Z" stroke="#606460" stroke-width="2" stroke-linecap="round"/>
<path fill-rule="evenodd" clip-rule="evenodd" d="M52.5525 36.7474C62.1094 36.7477 69.8576 44.4955 69.8576 54.0525C69.8573 63.6093 62.1093 71.3573 52.5525 71.3576C42.9955 71.3576 35.2477 63.6094 35.2474 54.0525C35.2474 44.4953 42.9953 36.7474 52.5525 36.7474ZM52.5525 59.7554C51.4313 59.7554 50.5221 60.6647 50.522 61.7859C50.5221 62.9071 51.4313 63.8163 52.5525 63.8163H52.5707C53.6919 63.8163 54.6011 62.907 54.6012 61.7859C54.6011 60.6647 53.6918 59.7555 52.5707 59.7554H52.5525ZM52.5525 44.2873C51.4313 44.2873 50.5222 45.1966 50.522 46.3177V54.0525C50.5223 55.1735 51.4314 56.0815 52.5525 56.0815C53.6733 56.0812 54.5812 55.1733 54.5815 54.0525V46.3177C54.5814 45.1968 53.6734 44.2876 52.5525 44.2873Z" fill="#ACCBFF"/>
<path fill-rule="evenodd" clip-rule="evenodd" d="M52 25.5C67.464 25.5 80 38.036 80 53.5C80 68.964 67.464 81.5 52 81.5C36.536 81.5 24 68.964 24 53.5C24 38.036 36.536 25.5 52 25.5ZM52.5525 32.6865C40.7528 32.6865 31.1865 42.2528 31.1865 54.0525C31.1868 65.8519 40.753 75.4171 52.5525 75.4171C64.3517 75.4168 73.9168 65.8517 73.9171 54.0525C73.9171 42.253 64.3519 32.6868 52.5525 32.6865Z" fill="#ACCBFF"/>
<path d="M96.216 44L102.792 26.816H105.852L112.416 44H108.9L104.964 32.78L104.328 30.74H104.256L103.62 32.78L99.648 44H96.216ZM99.276 40.196L100.176 37.724H108.048L108.984 40.196H99.276ZM114.081 44V26.816H117.261V44H114.081ZM120.198 44V26.816H123.378V44H120.198ZM131.968 44.396C130.064 44.396 128.524 43.78 127.348 42.548C126.172 41.316 125.584 39.744 125.584 37.832C125.584 35.944 126.172 34.38 127.348 33.14C128.524 31.9 130.032 31.28 131.872 31.28C133.664 31.28 135.124 31.832 136.252 32.936C137.388 34.04 137.956 35.444 137.956 37.148V38.456H127.18V36.644H134.944C134.896 35.82 134.596 35.148 134.044 34.628C133.5 34.1 132.776 33.836 131.872 33.836C130.896 33.836 130.108 34.188 129.508 34.892C128.916 35.588 128.62 36.544 128.62 37.76C128.62 39.032 128.96 40.044 129.64 40.796C130.328 41.54 131.208 41.912 132.28 41.912C132.776 41.912 133.208 41.844 133.576 41.708C133.944 41.572 134.276 41.388 134.572 41.156C134.876 40.924 135.22 40.548 135.604 40.028L137.644 41.42C137.124 42.22 136.596 42.816 136.06 43.208C135.532 43.6 134.948 43.896 134.308 44.096C133.668 44.296 132.888 44.396 131.968 44.396ZM140.167 44V31.676H143.203V33.992L142.843 33.596H143.275C143.515 32.924 143.959 32.372 144.607 31.94C145.255 31.5 145.943 31.28 146.671 31.28C146.887 31.28 147.107 31.3 147.331 31.34C147.563 31.372 147.771 31.42 147.955 31.484C148.139 31.54 148.231 31.568 148.231 31.568V34.604C148.231 34.604 148.107 34.564 147.859 34.484C147.619 34.396 147.355 34.324 147.067 34.268C146.787 34.212 146.531 34.184 146.299 34.184C145.451 34.184 144.747 34.496 144.187 35.12C143.627 35.744 143.347 36.54 143.347 37.508V44H140.167ZM155.217 49.556C154.353 49.556 153.573 49.448 152.877 49.232C152.189 49.024 151.569 48.712 151.017 48.296C150.473 47.888 150.049 47.436 149.745 46.94C149.441 46.452 149.289 46.208 149.289 46.208L151.785 44.924C151.785 44.924 151.893 45.092 152.109 45.428C152.325 45.764 152.581 46.056 152.877 46.304C153.181 46.552 153.525 46.74 153.909 46.868C154.301 46.996 154.717 47.06 155.157 47.06C156.285 47.06 157.145 46.74 157.737 46.1C158.329 45.468 158.625 44.588 158.625 43.46V42.212H158.541C158.109 42.804 157.549 43.268 156.861 43.604C156.173 43.94 155.401 44.108 154.545 44.108C152.897 44.108 151.537 43.528 150.465 42.368C149.393 41.208 148.857 39.652 148.857 37.7C148.857 35.788 149.409 34.24 150.513 33.056C151.625 31.872 153.013 31.28 154.677 31.28C155.501 31.28 156.261 31.452 156.957 31.796C157.661 32.132 158.217 32.596 158.625 33.188H159.417L158.697 33.992V31.676H161.733V43.304C161.733 45.312 161.153 46.856 159.993 47.936C158.833 49.016 157.241 49.556 155.217 49.556ZM155.325 41.444C156.293 41.444 157.093 41.1 157.725 40.412C158.357 39.716 158.673 38.796 158.673 37.652C158.673 36.524 158.357 35.624 157.725 34.952C157.093 34.272 156.293 33.932 155.325 33.932C154.357 33.932 153.553 34.272 152.913 34.952C152.273 35.624 151.953 36.532 151.953 37.676C151.953 38.86 152.269 39.784 152.901 40.448C153.533 41.112 154.341 41.444 155.325 41.444ZM164.791 44V31.676H167.971V44H164.791ZM166.387 29.588C165.867 29.588 165.423 29.408 165.055 29.048C164.695 28.688 164.515 28.248 164.515 27.728C164.515 27.2 164.695 26.764 165.055 26.42C165.423 26.068 165.867 25.892 166.387 25.892C166.915 25.892 167.355 26.068 167.707 26.42C168.059 26.764 168.235 27.2 168.235 27.728C168.235 28.248 168.059 28.688 167.707 29.048C167.355 29.408 166.915 29.588 166.387 29.588ZM176.663 44.396C174.759 44.396 173.219 43.78 172.043 42.548C170.867 41.316 170.279 39.744 170.279 37.832C170.279 35.944 170.867 34.38 172.043 33.14C173.219 31.9 174.727 31.28 176.567 31.28C178.359 31.28 179.819 31.832 180.947 32.936C182.083 34.04 182.651 35.444 182.651 37.148V38.456H171.875V36.644H179.639C179.591 35.82 179.291 35.148 178.739 34.628C178.195 34.1 177.471 33.836 176.567 33.836C175.591 33.836 174.803 34.188 174.203 34.892C173.611 35.588 173.315 36.544 173.315 37.76C173.315 39.032 173.655 40.044 174.335 40.796C175.023 41.54 175.903 41.912 176.975 41.912C177.471 41.912 177.903 41.844 178.271 41.708C178.639 41.572 178.971 41.388 179.267 41.156C179.571 40.924 179.915 40.548 180.299 40.028L182.339 41.42C181.819 42.22 181.291 42.816 180.755 43.208C180.227 43.6 179.643 43.896 179.003 44.096C178.363 44.296 177.583 44.396 176.663 44.396ZM189.47 44.396C188.622 44.396 187.878 44.304 187.238 44.12C186.606 43.936 186.038 43.664 185.534 43.304C185.038 42.944 184.634 42.548 184.322 42.116C184.018 41.684 183.866 41.468 183.866 41.468L185.954 39.968C185.954 39.968 186.07 40.124 186.302 40.436C186.534 40.74 186.81 41.012 187.13 41.252C187.458 41.484 187.818 41.66 188.21 41.78C188.61 41.9 189.078 41.96 189.614 41.96C190.278 41.96 190.802 41.844 191.186 41.612C191.57 41.372 191.762 41.02 191.762 40.556C191.762 40.18 191.594 39.88 191.258 39.656C190.922 39.432 190.138 39.18 188.906 38.9C187.314 38.54 186.162 38.044 185.45 37.412C184.746 36.772 184.394 35.968 184.394 35C184.394 33.88 184.87 32.98 185.822 32.3C186.774 31.62 187.962 31.28 189.386 31.28C190.114 31.28 190.77 31.356 191.354 31.508C191.946 31.66 192.474 31.884 192.938 32.18C193.402 32.476 193.778 32.796 194.066 33.14C194.354 33.476 194.498 33.644 194.498 33.644L192.482 35.144C192.482 35.144 192.382 35.032 192.182 34.808C191.982 34.584 191.734 34.384 191.438 34.208C191.15 34.032 190.83 33.904 190.478 33.824C190.126 33.744 189.758 33.704 189.374 33.704C188.782 33.704 188.302 33.824 187.934 34.064C187.566 34.296 187.382 34.576 187.382 34.904C187.382 35.256 187.538 35.548 187.85 35.78C188.17 36.012 188.974 36.28 190.262 36.584C191.87 36.944 193.022 37.44 193.718 38.072C194.422 38.696 194.774 39.476 194.774 40.412C194.774 41.604 194.286 42.568 193.31 43.304C192.334 44.032 191.054 44.396 189.47 44.396Z" fill="white"/>
<path d="M102.504 79.396C101.504 79.396 100.64 79.232 99.912 78.904C99.184 78.568 98.576 78.132 98.088 77.596C97.608 77.06 97.252 76.504 97.02 75.928C96.788 75.344 96.672 75.052 96.672 75.052L99.432 73.996C99.432 73.996 99.5 74.16 99.636 74.488C99.78 74.808 99.976 75.136 100.224 75.472C100.48 75.8 100.788 76.068 101.148 76.276C101.516 76.484 101.96 76.588 102.48 76.588C103.312 76.588 103.98 76.332 104.484 75.82C104.996 75.3 105.252 74.672 105.252 73.936C105.252 73.112 104.976 72.468 104.424 72.004C103.872 71.54 103.176 71.308 102.336 71.308H100.704V68.86H102.168C102.928 68.86 103.548 68.644 104.028 68.212C104.516 67.78 104.76 67.204 104.76 66.484C104.76 65.812 104.54 65.268 104.1 64.852C103.668 64.436 103.08 64.228 102.336 64.228C101.904 64.228 101.528 64.308 101.208 64.468C100.888 64.62 100.616 64.824 100.392 65.08C100.176 65.328 99.984 65.604 99.816 65.908C99.656 66.204 99.576 66.352 99.576 66.352L97.068 64.96C97.068 64.96 97.208 64.72 97.488 64.24C97.776 63.752 98.164 63.284 98.652 62.836C99.148 62.38 99.716 62.032 100.356 61.792C100.996 61.544 101.748 61.42 102.612 61.42C104.22 61.42 105.5 61.836 106.452 62.668C107.412 63.5 107.892 64.592 107.892 65.944C107.892 66.872 107.676 67.672 107.244 68.344C106.82 69.008 106.22 69.484 105.444 69.772V69.856C106.388 70.168 107.128 70.7 107.664 71.452C108.2 72.204 108.468 73.108 108.468 74.164C108.468 75.676 107.92 76.928 106.824 77.92C105.736 78.904 104.296 79.396 102.504 79.396ZM121.231 79.396C119.567 79.396 118.187 78.796 117.091 77.596C116.003 76.388 115.459 74.812 115.459 72.868C115.459 70.932 116.015 69.352 117.127 68.128C118.239 66.904 119.647 66.292 121.351 66.292C122.175 66.292 122.935 66.472 123.631 66.832C124.327 67.184 124.851 67.648 125.203 68.224H125.263V61.816H128.419V79H125.383V76.912L125.695 77.368L125.311 77.38C124.935 77.996 124.379 78.488 123.643 78.856C122.915 79.216 122.111 79.396 121.231 79.396ZM121.951 76.708C122.919 76.708 123.727 76.344 124.375 75.616C125.031 74.888 125.359 73.964 125.359 72.844C125.359 71.708 125.027 70.784 124.363 70.072C123.707 69.36 122.903 69.004 121.951 69.004C120.999 69.004 120.191 69.36 119.527 70.072C118.871 70.784 118.543 71.708 118.543 72.844C118.543 73.972 118.871 74.9 119.527 75.628C120.183 76.348 120.991 76.708 121.951 76.708ZM137.235 79.396C135.315 79.396 133.731 78.776 132.483 77.536C131.243 76.296 130.623 74.732 130.623 72.844C130.623 70.924 131.247 69.352 132.495 68.128C133.743 66.896 135.323 66.28 137.235 66.28C139.139 66.28 140.715 66.9 141.963 68.14C143.219 69.372 143.847 70.94 143.847 72.844C143.847 74.732 143.223 76.296 141.975 77.536C140.735 78.776 139.155 79.396 137.235 79.396ZM137.235 76.684C138.227 76.684 139.059 76.324 139.731 75.604C140.403 74.876 140.739 73.952 140.739 72.832C140.739 71.696 140.399 70.776 139.719 70.072C139.047 69.36 138.219 69.004 137.235 69.004C136.235 69.004 135.399 69.36 134.727 70.072C134.055 70.784 133.719 71.704 133.719 72.832C133.719 73.952 134.051 74.876 134.715 75.604C135.387 76.324 136.227 76.684 137.235 76.684ZM151.751 79.396C149.871 79.396 148.323 78.78 147.107 77.548C145.899 76.316 145.295 74.74 145.295 72.82C145.295 70.892 145.903 69.32 147.119 68.104C148.335 66.888 149.883 66.28 151.763 66.28C152.611 66.28 153.379 66.4 154.067 66.64C154.763 66.88 155.395 67.256 155.963 67.768C156.531 68.272 157.023 68.996 157.439 69.94L154.775 70.996C154.511 70.46 154.243 70.056 153.971 69.784C153.699 69.512 153.379 69.312 153.011 69.184C152.643 69.056 152.239 68.992 151.799 68.992C150.863 68.992 150.059 69.344 149.387 70.048C148.715 70.752 148.379 71.672 148.379 72.808C148.379 73.944 148.711 74.876 149.375 75.604C150.039 76.324 150.843 76.684 151.787 76.684C152.227 76.684 152.635 76.616 153.011 76.48C153.395 76.336 153.719 76.144 153.983 75.904C154.247 75.656 154.539 75.24 154.859 74.656L157.523 75.592C157.091 76.592 156.603 77.344 156.059 77.848C155.523 78.344 154.891 78.728 154.163 79C153.443 79.264 152.639 79.396 151.751 79.396ZM163.943 79.396C162.503 79.396 161.379 78.984 160.571 78.16C159.771 77.328 159.371 76.156 159.371 74.644V66.676H162.551V74.128C162.551 75.024 162.759 75.712 163.175 76.192C163.591 76.672 164.183 76.912 164.951 76.912C165.767 76.912 166.447 76.604 166.991 75.988C167.535 75.372 167.807 74.62 167.807 73.732V66.676H170.987V79H167.987V75.868L169.439 77.32H167.915C167.563 77.928 167.031 78.428 166.319 78.82C165.615 79.204 164.823 79.396 163.943 79.396ZM173.917 79V66.676H176.953V68.836L176.677 68.476H177.037C177.381 67.836 177.909 67.312 178.621 66.904C179.341 66.488 180.117 66.28 180.949 66.28C181.813 66.28 182.581 66.484 183.253 66.892C183.933 67.3 184.421 67.864 184.717 68.584C185.189 67.808 185.789 67.232 186.517 66.856C187.253 66.472 188.057 66.28 188.929 66.28C190.377 66.28 191.473 66.704 192.217 67.552C192.961 68.392 193.333 69.576 193.333 71.104V79H190.177V71.668C190.177 70.756 189.985 70.076 189.601 69.628C189.225 69.18 188.649 68.956 187.873 68.956C187.121 68.956 186.489 69.256 185.977 69.856C185.473 70.456 185.221 71.204 185.221 72.1V79H182.041V71.692C182.041 70.772 181.849 70.084 181.465 69.628C181.081 69.172 180.505 68.944 179.737 68.944C178.985 68.944 178.357 69.252 177.853 69.868C177.349 70.484 177.097 71.24 177.097 72.136V79H173.917ZM201.788 79.396C199.884 79.396 198.344 78.78 197.168 77.548C195.992 76.316 195.404 74.744 195.404 72.832C195.404 70.944 195.992 69.38 197.168 68.14C198.344 66.9 199.852 66.28 201.692 66.28C203.484 66.28 204.944 66.832 206.072 67.936C207.208 69.04 207.776 70.444 207.776 72.148V73.456H197V71.644H204.764C204.716 70.82 204.416 70.148 203.864 69.628C203.32 69.1 202.596 68.836 201.692 68.836C200.716 68.836 199.928 69.188 199.328 69.892C198.736 70.588 198.44 71.544 198.44 72.76C198.44 74.032 198.78 75.044 199.46 75.796C200.148 76.54 201.028 76.912 202.1 76.912C202.596 76.912 203.028 76.844 203.396 76.708C203.764 76.572 204.096 76.388 204.392 76.156C204.696 75.924 205.04 75.548 205.424 75.028L207.464 76.42C206.944 77.22 206.416 77.816 205.88 78.208C205.352 78.6 204.768 78.896 204.128 79.096C203.488 79.296 202.708 79.396 201.788 79.396ZM209.987 79V66.676H213.023V68.92L212.675 68.476H213.107C213.491 67.812 214.055 67.28 214.799 66.88C215.551 66.48 216.331 66.28 217.139 66.28C218.531 66.28 219.623 66.7 220.415 67.54C221.207 68.372 221.603 69.508 221.603 70.948V79H218.423V71.632C218.423 70.752 218.211 70.084 217.787 69.628C217.371 69.172 216.751 68.944 215.927 68.944C215.135 68.944 214.475 69.248 213.947 69.856C213.427 70.464 213.167 71.204 213.167 72.076V79H209.987ZM229.298 79.396C228.082 79.396 227.122 79.064 226.418 78.4C225.722 77.728 225.374 76.748 225.374 75.46V63.304H228.542V74.968C228.542 75.592 228.67 76.052 228.926 76.348C229.182 76.644 229.558 76.796 230.054 76.804C230.206 76.804 230.362 76.788 230.522 76.756C230.69 76.724 230.898 76.668 231.146 76.588C231.402 76.508 231.53 76.468 231.53 76.468V79.024C231.53 79.024 231.386 79.064 231.098 79.144C230.818 79.224 230.538 79.284 230.258 79.324C229.986 79.372 229.666 79.396 229.298 79.396ZM223.442 69.184V66.676H231.494V69.184H223.442ZM239.452 79.396C237.548 79.396 236.008 78.78 234.832 77.548C233.656 76.316 233.068 74.744 233.068 72.832C233.068 70.944 233.656 69.38 234.832 68.14C236.008 66.9 237.516 66.28 239.356 66.28C241.148 66.28 242.608 66.832 243.736 67.936C244.872 69.04 245.44 70.444 245.44 72.148V73.456H234.664V71.644H242.428C242.38 70.82 242.08 70.148 241.528 69.628C240.984 69.1 240.26 68.836 239.356 68.836C238.38 68.836 237.592 69.188 236.992 69.892C236.4 70.588 236.104 71.544 236.104 72.76C236.104 74.032 236.444 75.044 237.124 75.796C237.812 76.54 238.692 76.912 239.764 76.912C240.26 76.912 240.692 76.844 241.06 76.708C241.428 76.572 241.76 76.388 242.056 76.156C242.36 75.924 242.704 75.548 243.088 75.028L245.128 76.42C244.608 77.22 244.08 77.816 243.544 78.208C243.016 78.6 242.432 78.896 241.792 79.096C241.152 79.296 240.372 79.396 239.452 79.396ZM252.692 79.396C251.028 79.396 249.648 78.796 248.552 77.596C247.464 76.388 246.92 74.812 246.92 72.868C246.92 70.932 247.476 69.352 248.588 68.128C249.7 66.904 251.108 66.292 252.812 66.292C253.636 66.292 254.396 66.472 255.092 66.832C255.788 67.184 256.312 67.648 256.664 68.224H256.724V61.816H259.88V79H256.844V76.912L257.156 77.368L256.772 77.38C256.396 77.996 255.84 78.488 255.104 78.856C254.376 79.216 253.572 79.396 252.692 79.396ZM253.412 76.708C254.38 76.708 255.188 76.344 255.836 75.616C256.492 74.888 256.82 73.964 256.82 72.844C256.82 71.708 256.488 70.784 255.824 70.072C255.168 69.36 254.364 69.004 253.412 69.004C252.46 69.004 251.652 69.36 250.988 70.072C250.332 70.784 250.004 71.708 250.004 72.844C250.004 73.972 250.332 74.9 250.988 75.628C251.644 76.348 252.452 76.708 253.412 76.708Z" fill="white"/>
</svg>
