<svg width="530" height="397" viewBox="0 0 530 397" fill="none" xmlns="http://www.w3.org/2000/svg">
<rect x="1.5" y="1.5" width="527" height="393.562" rx="30.5" fill="black" fill-opacity="0.2"/>
<rect x="1.5" y="1.5" width="527" height="393.562" rx="30.5" stroke="#ACCBFF" stroke-width="3"/>
<path d="M24.6099 38.332V23.828L22.0619 25.662L19.6959 22.778L26.0799 18.284H29.0479V38.332H24.6099ZM36.5045 38.332V23.828L33.9565 25.662L31.5905 22.778L37.9745 18.284H40.9425V38.332H36.5045ZM51.381 38.808C49.2437 38.808 47.4937 38.2527 46.131 37.142C44.7777 36.022 44.101 34.5894 44.101 32.844C44.101 31.7054 44.395 30.6974 44.983 29.82C45.5803 28.9427 46.397 28.2894 47.433 27.86V27.776C46.677 27.3467 46.0563 26.7727 45.571 26.054C45.095 25.3354 44.857 24.4814 44.857 23.492C44.857 21.8214 45.4637 20.4587 46.677 19.404C47.8997 18.3494 49.4677 17.822 51.381 17.822C53.2943 17.822 54.8577 18.3494 56.071 19.404C57.2843 20.4494 57.891 21.812 57.891 23.492C57.891 24.4814 57.639 25.3494 57.135 26.096C56.6403 26.8334 56.0337 27.3934 55.315 27.776V27.86C56.3417 28.2894 57.1537 28.9427 57.751 29.82C58.3483 30.6974 58.647 31.71 58.647 32.858C58.647 34.594 57.9703 36.022 56.617 37.142C55.2637 38.2527 53.5183 38.808 51.381 38.808ZM51.381 35.168C52.249 35.168 52.963 34.9067 53.523 34.384C54.0923 33.8614 54.377 33.1894 54.377 32.368C54.377 31.5467 54.097 30.8654 53.537 30.324C52.977 29.7734 52.2583 29.498 51.381 29.498C50.5223 29.498 49.8037 29.764 49.225 30.296C48.6557 30.8187 48.371 31.4954 48.371 32.326C48.371 33.1474 48.651 33.8287 49.211 34.37C49.7803 34.902 50.5037 35.168 51.381 35.168ZM51.367 26.418C52.1137 26.418 52.725 26.1847 53.201 25.718C53.677 25.242 53.915 24.6354 53.915 23.898C53.915 23.1887 53.677 22.6054 53.201 22.148C52.725 21.6814 52.1183 21.448 51.381 21.448C50.6343 21.448 50.023 21.6814 49.547 22.148C49.071 22.6054 48.833 23.1887 48.833 23.898C48.833 24.6354 49.071 25.242 49.547 25.718C50.023 26.1847 50.6297 26.418 51.367 26.418ZM59.8326 38.332L66.2726 18.284H70.2626L63.8506 38.332H59.8326ZM72.617 36.806L80.611 22.26L80.583 22.176H71.861V18.284H85.287C85.287 20.86 85.287 22.148 85.287 22.148C85.287 22.148 85.2217 22.2787 85.091 22.54L76.621 38.934L72.617 36.806ZM92.4539 38.766C90.2419 38.766 88.4406 38.0987 87.0499 36.764C85.6593 35.42 84.9639 33.7307 84.9639 31.696C84.9639 30.2867 85.3186 28.9427 86.0279 27.664C86.7373 26.3854 87.6193 25.0414 88.6739 23.632L93.2099 17.542L96.7939 19.992L92.3699 25.69C91.9126 26.2407 91.0446 26.908 89.7659 27.692C88.4873 28.476 87.6566 29.8014 87.2739 31.668L85.5239 31.64C85.7293 29.5494 86.6439 27.9534 88.2679 26.852C89.9013 25.7414 91.7493 25.186 93.8119 25.186C95.5759 25.186 97.0459 25.7834 98.2219 26.978C99.4073 28.1727 99.9999 29.6894 99.9999 31.528C99.9999 33.6094 99.2859 35.336 97.8579 36.708C96.4299 38.08 94.6286 38.766 92.4539 38.766ZM92.5099 34.79C93.4246 34.79 94.1713 34.5007 94.7499 33.922C95.3379 33.334 95.6319 32.5874 95.6319 31.682C95.6319 30.7954 95.3379 30.058 94.7499 29.47C94.1619 28.882 93.4153 28.588 92.5099 28.588C91.5953 28.588 90.8346 28.882 90.2279 29.47C89.6306 30.058 89.3319 30.8 89.3319 31.696C89.3319 32.592 89.6306 33.334 90.2279 33.922C90.8253 34.5007 91.5859 34.79 92.5099 34.79ZM108.525 38.332V23.912H112.739V26.502L112.361 25.998H112.823C113.234 25.242 113.855 24.626 114.685 24.15C115.516 23.674 116.426 23.436 117.415 23.436C118.433 23.436 119.333 23.6694 120.117 24.136C120.911 24.6027 121.475 25.2467 121.811 26.068C122.39 25.172 123.104 24.5094 123.953 24.08C124.803 23.6507 125.727 23.436 126.725 23.436C128.452 23.436 129.754 23.9307 130.631 24.92C131.518 25.9094 131.961 27.2954 131.961 29.078V38.332H127.593V29.904C127.593 28.952 127.393 28.238 126.991 27.762C126.59 27.286 125.988 27.048 125.185 27.048C124.401 27.048 123.748 27.356 123.225 27.972C122.703 28.5787 122.441 29.3534 122.441 30.296V38.332H118.059V29.918C118.059 28.966 117.854 28.2474 117.443 27.762C117.042 27.2767 116.445 27.034 115.651 27.034C114.867 27.034 114.214 27.3467 113.691 27.972C113.178 28.5974 112.921 29.3814 112.921 30.324V38.332H108.525ZM135.131 38.332V23.912H139.345V26.502L138.967 25.998H139.429C139.839 25.242 140.46 24.626 141.291 24.15C142.121 23.674 143.031 23.436 144.021 23.436C145.038 23.436 145.939 23.6694 146.723 24.136C147.516 24.6027 148.081 25.2467 148.417 26.068C148.995 25.172 149.709 24.5094 150.559 24.08C151.408 23.6507 152.332 23.436 153.331 23.436C155.057 23.436 156.359 23.9307 157.237 24.92C158.123 25.9094 158.567 27.2954 158.567 29.078V38.332H154.199V29.904C154.199 28.952 153.998 28.238 153.597 27.762C153.195 27.286 152.593 27.048 151.791 27.048C151.007 27.048 150.353 27.356 149.831 27.972C149.308 28.5787 149.047 29.3534 149.047 30.296V38.332H144.665V29.918C144.665 28.966 144.459 28.2474 144.049 27.762C143.647 27.2767 143.05 27.034 142.257 27.034C141.473 27.034 140.819 27.3467 140.297 27.972C139.783 28.5974 139.527 29.3814 139.527 30.324V38.332H135.131ZM174.504 38.332V18.284H178.984V38.332H174.504ZM162.1 38.332V18.284H166.58V38.332H162.1ZM164.676 30.212V26.054H176.422V30.212H164.676ZM189.402 44.8C188.319 44.8 187.362 44.674 186.532 44.422C185.701 44.17 184.959 43.8014 184.306 43.316C183.652 42.84 183.139 42.3127 182.766 41.734C182.392 41.1554 182.206 40.866 182.206 40.866L185.552 39.172C185.552 39.172 185.668 39.354 185.902 39.718C186.135 40.082 186.42 40.3994 186.756 40.67C187.092 40.95 187.474 41.16 187.904 41.3C188.333 41.44 188.8 41.51 189.304 41.51C190.526 41.51 191.46 41.1694 192.104 40.488C192.748 39.8067 193.07 38.8687 193.07 37.674V36.302H192.972C192.458 36.9554 191.81 37.464 191.026 37.828C190.251 38.192 189.378 38.374 188.408 38.374C186.476 38.374 184.889 37.702 183.648 36.358C182.406 35.014 181.786 33.208 181.786 30.94C181.786 28.7094 182.43 26.9034 183.718 25.522C185.015 24.1314 186.644 23.436 188.604 23.436C189.546 23.436 190.405 23.6227 191.18 23.996C191.964 24.36 192.594 24.8734 193.07 25.536H194.134L193.154 26.586V23.912H197.354V37.38C197.354 39.788 196.644 41.6267 195.226 42.896C193.807 44.1654 191.866 44.8 189.402 44.8ZM189.584 34.79C190.61 34.79 191.455 34.4307 192.118 33.712C192.78 32.9934 193.112 32.046 193.112 30.87C193.112 29.7127 192.78 28.7794 192.118 28.07C191.455 27.3607 190.61 27.006 189.584 27.006C188.566 27.006 187.722 27.3607 187.05 28.07C186.378 28.7794 186.042 29.722 186.042 30.898C186.042 32.102 186.373 33.054 187.036 33.754C187.698 34.4447 188.548 34.79 189.584 34.79Z" fill="white"/>
<path d="M26.3159 73.0371C25.2759 73.0371 24.3519 72.8771 23.5439 72.5571C22.7359 72.2291 22.0639 71.7771 21.5279 71.2011C20.9919 70.6251 20.5879 70.0171 20.3159 69.3771C20.0439 68.7291 19.9079 68.4051 19.9079 68.4051L22.7279 67.2651C22.7279 67.2651 22.8199 67.4891 23.0039 67.9371C23.1959 68.3771 23.4519 68.7811 23.7719 69.1491C24.0999 69.5091 24.4919 69.7891 24.9479 69.9891C25.4039 70.1811 25.9159 70.2771 26.4839 70.2771C27.3399 70.2771 28.0359 70.0611 28.5719 69.6291C29.1079 69.1891 29.3759 68.6091 29.3759 67.8891C29.3759 67.2651 29.0799 66.7331 28.4879 66.2931C27.9039 65.8531 26.8999 65.4011 25.4759 64.9371C23.7239 64.3611 22.4639 63.6691 21.6959 62.8611C20.9279 62.0531 20.5439 61.0531 20.5439 59.8611C20.5439 58.4851 21.0839 57.3411 22.1639 56.4291C23.2439 55.5171 24.6359 55.0611 26.3399 55.0611C27.2439 55.0611 28.0519 55.1891 28.7639 55.4451C29.4839 55.7011 30.0999 56.0731 30.6119 56.5611C31.1239 57.0411 31.4959 57.5211 31.7279 58.0011C31.9679 58.4731 32.0879 58.7091 32.0879 58.7091L29.3519 59.8371C29.3519 59.8371 29.2839 59.7051 29.1479 59.4411C29.0119 59.1691 28.7999 58.8971 28.5119 58.6251C28.2239 58.3531 27.8919 58.1491 27.5159 58.0131C27.1399 57.8691 26.7119 57.7971 26.2319 57.7971C25.4799 57.7971 24.8679 57.9731 24.3959 58.3251C23.9319 58.6771 23.6999 59.1411 23.6999 59.7171C23.6999 60.2291 23.9119 60.6731 24.3359 61.0491C24.7679 61.4251 25.8239 61.8811 27.5039 62.4171C29.2319 62.9531 30.4999 63.6731 31.3079 64.5771C32.1239 65.4731 32.5319 66.5451 32.5319 67.7931C32.5319 69.3931 31.9479 70.6691 30.7799 71.6211C29.6199 72.5651 28.1319 73.0371 26.3159 73.0371ZM35.4286 77.8251C35.4286 77.8251 35.4246 77.8251 35.4166 77.8251C35.4166 77.8251 35.4206 77.8251 35.4286 77.8251L38.5246 71.0931L38.5726 72.6531L33.1606 60.3171H36.4726L39.4006 67.4931L39.7486 68.5731H39.8206L40.1806 67.4811L42.9766 60.3171H46.2046L38.7406 77.8251H35.4286ZM51.9586 73.0371C51.1106 73.0371 50.3666 72.9451 49.7266 72.7611C49.0946 72.5771 48.5266 72.3051 48.0226 71.9451C47.5266 71.5851 47.1226 71.1891 46.8106 70.7571C46.5066 70.3251 46.3546 70.1091 46.3546 70.1091L48.4426 68.6091C48.4426 68.6091 48.5586 68.7651 48.7906 69.0771C49.0226 69.3811 49.2986 69.6531 49.6186 69.8931C49.9466 70.1251 50.3066 70.3011 50.6986 70.4211C51.0986 70.5411 51.5666 70.6011 52.1026 70.6011C52.7666 70.6011 53.2906 70.4851 53.6746 70.2531C54.0586 70.0131 54.2506 69.6611 54.2506 69.1971C54.2506 68.8211 54.0826 68.5211 53.7466 68.2971C53.4106 68.0731 52.6266 67.8211 51.3946 67.5411C49.8026 67.1811 48.6506 66.6851 47.9386 66.0531C47.2346 65.4131 46.8826 64.6091 46.8826 63.6411C46.8826 62.5211 47.3586 61.6211 48.3106 60.9411C49.2626 60.2611 50.4506 59.9211 51.8746 59.9211C52.6026 59.9211 53.2586 59.9971 53.8426 60.1491C54.4346 60.3011 54.9626 60.5251 55.4266 60.8211C55.8906 61.1171 56.2666 61.4371 56.5546 61.7811C56.8426 62.1171 56.9866 62.2851 56.9866 62.2851L54.9706 63.7851C54.9706 63.7851 54.8706 63.6731 54.6706 63.4491C54.4706 63.2251 54.2226 63.0251 53.9266 62.8491C53.6386 62.6731 53.3186 62.5451 52.9666 62.4651C52.6146 62.3851 52.2466 62.3451 51.8626 62.3451C51.2706 62.3451 50.7906 62.4651 50.4226 62.7051C50.0546 62.9371 49.8706 63.2171 49.8706 63.5451C49.8706 63.8971 50.0266 64.1891 50.3386 64.4211C50.6586 64.6531 51.4626 64.9211 52.7506 65.2251C54.3586 65.5851 55.5106 66.0811 56.2066 66.7131C56.9106 67.3371 57.2626 68.1171 57.2626 69.0531C57.2626 70.2451 56.7746 71.2091 55.7986 71.9451C54.8226 72.6731 53.5426 73.0371 51.9586 73.0371ZM64.2003 73.0371C62.9843 73.0371 62.0243 72.7051 61.3203 72.0411C60.6243 71.3691 60.2763 70.3891 60.2763 69.1011V56.9451H63.4443V68.6091C63.4443 69.2331 63.5723 69.6931 63.8283 69.9891C64.0843 70.2851 64.4603 70.4371 64.9563 70.4451C65.1083 70.4451 65.2643 70.4291 65.4243 70.3971C65.5923 70.3651 65.8003 70.3091 66.0483 70.2291C66.3043 70.1491 66.4323 70.1091 66.4323 70.1091V72.6651C66.4323 72.6651 66.2883 72.7051 66.0003 72.7851C65.7203 72.8651 65.4403 72.9251 65.1603 72.9651C64.8883 73.0131 64.5683 73.0371 64.2003 73.0371ZM58.3443 62.8251V60.3171H66.3963V62.8251H58.3443ZM74.5822 73.0371C72.6622 73.0371 71.0782 72.4171 69.8302 71.1771C68.5902 69.9371 67.9702 68.3731 67.9702 66.4851C67.9702 64.5651 68.5942 62.9931 69.8422 61.7691C71.0902 60.5371 72.6702 59.9211 74.5822 59.9211C76.4862 59.9211 78.0622 60.5411 79.3102 61.7811C80.5662 63.0131 81.1942 64.5811 81.1942 66.4851C81.1942 68.3731 80.5702 69.9371 79.3222 71.1771C78.0822 72.4171 76.5022 73.0371 74.5822 73.0371ZM74.5822 70.3251C75.5742 70.3251 76.4062 69.9651 77.0782 69.2451C77.7502 68.5171 78.0862 67.5931 78.0862 66.4731C78.0862 65.3371 77.7462 64.4171 77.0662 63.7131C76.3942 63.0011 75.5662 62.6451 74.5822 62.6451C73.5822 62.6451 72.7462 63.0011 72.0742 63.7131C71.4022 64.4251 71.0662 65.3451 71.0662 66.4731C71.0662 67.5931 71.3982 68.5171 72.0622 69.2451C72.7342 69.9651 73.5742 70.3251 74.5822 70.3251ZM83.3741 72.6411V55.4571H86.5541V72.6411H83.3741ZM89.6233 72.6411V60.3171H92.8033V72.6411H89.6233ZM91.2193 58.2291C90.6993 58.2291 90.2553 58.0491 89.8873 57.6891C89.5273 57.3291 89.3473 56.8891 89.3473 56.3691C89.3473 55.8411 89.5273 55.4051 89.8873 55.0611C90.2553 54.7091 90.6993 54.5331 91.2193 54.5331C91.7473 54.5331 92.1873 54.7091 92.5393 55.0611C92.8913 55.4051 93.0673 55.8411 93.0673 56.3691C93.0673 56.8891 92.8913 57.3291 92.5393 57.6891C92.1873 58.0491 91.7473 58.2291 91.2193 58.2291ZM101.567 73.0371C99.6868 73.0371 98.1388 72.4211 96.9228 71.1891C95.7148 69.9571 95.1108 68.3811 95.1108 66.4611C95.1108 64.5331 95.7188 62.9611 96.9348 61.7451C98.1508 60.5291 99.6988 59.9211 101.579 59.9211C102.427 59.9211 103.195 60.0411 103.883 60.2811C104.579 60.5211 105.211 60.8971 105.779 61.4091C106.347 61.9131 106.839 62.6371 107.255 63.5811L104.591 64.6371C104.327 64.1011 104.059 63.6971 103.787 63.4251C103.515 63.1531 103.195 62.9531 102.827 62.8251C102.459 62.6971 102.055 62.6331 101.615 62.6331C100.679 62.6331 99.8748 62.9851 99.2028 63.6891C98.5308 64.3931 98.1948 65.3131 98.1948 66.4491C98.1948 67.5851 98.5268 68.5171 99.1908 69.2451C99.8548 69.9651 100.659 70.3251 101.603 70.3251C102.043 70.3251 102.451 70.2571 102.827 70.1211C103.211 69.9771 103.535 69.7851 103.799 69.5451C104.063 69.2971 104.355 68.8811 104.675 68.2971L107.339 69.2331C106.907 70.2331 106.419 70.9851 105.875 71.4891C105.339 71.9851 104.707 72.3691 103.979 72.6411C103.259 72.9051 102.455 73.0371 101.567 73.0371ZM113.296 72.6411L118.744 55.4571H121.648L116.224 72.6411H113.296ZM128.898 72.6411V55.4571H134.682C137.298 55.4571 139.406 56.2451 141.006 57.8211C142.606 59.3891 143.406 61.4571 143.406 64.0251C143.406 66.6251 142.606 68.7131 141.006 70.2891C139.406 71.8571 137.298 72.6411 134.682 72.6411H128.898ZM132.114 69.7251H134.526C136.262 69.7411 137.634 69.2491 138.642 68.2491C139.65 67.2491 140.154 65.8491 140.154 64.0491C140.154 62.2731 139.65 60.8971 138.642 59.9211C137.634 58.9371 136.262 58.4451 134.526 58.4451H132.114V69.7251ZM145.92 72.6411V60.3171H149.1V72.6411H145.92ZM147.516 58.2291C146.996 58.2291 146.552 58.0491 146.184 57.6891C145.824 57.3291 145.644 56.8891 145.644 56.3691C145.644 55.8411 145.824 55.4051 146.184 55.0611C146.552 54.7091 146.996 54.5331 147.516 54.5331C148.044 54.5331 148.484 54.7091 148.836 55.0611C149.188 55.4051 149.364 55.8411 149.364 56.3691C149.364 56.8891 149.188 57.3291 148.836 57.6891C148.484 58.0491 148.044 58.2291 147.516 58.2291ZM155.872 73.0371C154.52 73.0371 153.428 72.6651 152.596 71.9211C151.772 71.1771 151.36 70.2051 151.36 69.0051C151.36 67.7491 151.844 66.7531 152.812 66.0171C153.788 65.2731 155.052 64.9011 156.604 64.9011C157.244 64.9011 157.856 64.9691 158.44 65.1051C159.024 65.2331 159.516 65.3971 159.916 65.5971V64.8651C159.916 64.0971 159.648 63.4851 159.112 63.0291C158.576 62.5731 157.868 62.3451 156.988 62.3451C156.476 62.3451 156.04 62.4011 155.68 62.5131C155.328 62.6251 155 62.7731 154.696 62.9571C154.4 63.1331 154.132 63.3371 153.892 63.5691C153.652 63.7931 153.532 63.9051 153.532 63.9051L151.78 62.2011C151.78 62.2011 151.972 62.0331 152.356 61.6971C152.748 61.3531 153.18 61.0491 153.652 60.7851C154.124 60.5131 154.652 60.3011 155.236 60.1491C155.828 59.9971 156.504 59.9211 157.264 59.9211C159.056 59.9211 160.452 60.3571 161.452 61.2291C162.46 62.0931 162.964 63.3131 162.964 64.8891V72.6411H159.928V69.9291L160.72 71.0331H159.844C159.476 71.6251 158.94 72.1091 158.236 72.4851C157.532 72.8531 156.744 73.0371 155.872 73.0371ZM156.7 70.8171C157.62 70.8171 158.384 70.4931 158.992 69.8451C159.6 69.1891 159.908 68.3531 159.916 67.3371V67.3251C159.572 67.1251 159.168 66.9651 158.704 66.8451C158.24 66.7171 157.744 66.6531 157.216 66.6531C156.36 66.6531 155.668 66.8331 155.14 67.1931C154.62 67.5531 154.36 68.0971 154.36 68.8251C154.36 69.4411 154.576 69.9291 155.008 70.2891C155.44 70.6411 156.004 70.8171 156.7 70.8171ZM170.365 73.0371C169.517 73.0371 168.773 72.9451 168.133 72.7611C167.501 72.5771 166.933 72.3051 166.429 71.9451C165.933 71.5851 165.529 71.1891 165.217 70.7571C164.913 70.3251 164.761 70.1091 164.761 70.1091L166.849 68.6091C166.849 68.6091 166.965 68.7651 167.197 69.0771C167.429 69.3811 167.705 69.6531 168.025 69.8931C168.353 70.1251 168.713 70.3011 169.105 70.4211C169.505 70.5411 169.973 70.6011 170.509 70.6011C171.173 70.6011 171.697 70.4851 172.081 70.2531C172.465 70.0131 172.657 69.6611 172.657 69.1971C172.657 68.8211 172.489 68.5211 172.153 68.2971C171.817 68.0731 171.033 67.8211 169.801 67.5411C168.209 67.1811 167.057 66.6851 166.345 66.0531C165.641 65.4131 165.289 64.6091 165.289 63.6411C165.289 62.5211 165.765 61.6211 166.717 60.9411C167.669 60.2611 168.857 59.9211 170.281 59.9211C171.009 59.9211 171.665 59.9971 172.249 60.1491C172.841 60.3011 173.369 60.5251 173.833 60.8211C174.297 61.1171 174.673 61.4371 174.961 61.7811C175.249 62.1171 175.393 62.2851 175.393 62.2851L173.377 63.7851C173.377 63.7851 173.277 63.6731 173.077 63.4491C172.877 63.2251 172.629 63.0251 172.333 62.8491C172.045 62.6731 171.725 62.5451 171.373 62.4651C171.021 62.3851 170.653 62.3451 170.269 62.3451C169.677 62.3451 169.197 62.4651 168.829 62.7051C168.461 62.9371 168.277 63.2171 168.277 63.5451C168.277 63.8971 168.433 64.1891 168.745 64.4211C169.065 64.6531 169.869 64.9211 171.157 65.2251C172.765 65.5851 173.917 66.0811 174.613 66.7131C175.317 67.3371 175.669 68.1171 175.669 69.0531C175.669 70.2451 175.181 71.2091 174.205 71.9451C173.229 72.6731 171.949 73.0371 170.365 73.0371ZM182.607 73.0371C181.391 73.0371 180.431 72.7051 179.727 72.0411C179.031 71.3691 178.683 70.3891 178.683 69.1011V56.9451H181.851V68.6091C181.851 69.2331 181.979 69.6931 182.235 69.9891C182.491 70.2851 182.867 70.4371 183.363 70.4451C183.515 70.4451 183.671 70.4291 183.831 70.3971C183.999 70.3651 184.207 70.3091 184.455 70.2291C184.711 70.1491 184.839 70.1091 184.839 70.1091V72.6651C184.839 72.6651 184.695 72.7051 184.407 72.7851C184.127 72.8651 183.847 72.9251 183.567 72.9651C183.295 73.0131 182.975 73.0371 182.607 73.0371ZM176.751 62.8251V60.3171H184.803V62.8251H176.751ZM192.988 73.0371C191.068 73.0371 189.484 72.4171 188.236 71.1771C186.996 69.9371 186.376 68.3731 186.376 66.4851C186.376 64.5651 187 62.9931 188.248 61.7691C189.496 60.5371 191.076 59.9211 192.988 59.9211C194.892 59.9211 196.468 60.5411 197.716 61.7811C198.972 63.0131 199.6 64.5811 199.6 66.4851C199.6 68.3731 198.976 69.9371 197.728 71.1771C196.488 72.4171 194.908 73.0371 192.988 73.0371ZM192.988 70.3251C193.98 70.3251 194.812 69.9651 195.484 69.2451C196.156 68.5171 196.492 67.5931 196.492 66.4731C196.492 65.3371 196.152 64.4171 195.472 63.7131C194.8 63.0011 193.972 62.6451 192.988 62.6451C191.988 62.6451 191.152 63.0011 190.48 63.7131C189.808 64.4251 189.472 65.3451 189.472 66.4731C189.472 67.5931 189.804 68.5171 190.468 69.2451C191.14 69.9651 191.98 70.3251 192.988 70.3251ZM201.78 72.6411V55.4571H204.96V72.6411H201.78ZM208.03 72.6411V60.3171H211.21V72.6411H208.03ZM209.626 58.2291C209.106 58.2291 208.662 58.0491 208.294 57.6891C207.934 57.3291 207.754 56.8891 207.754 56.3691C207.754 55.8411 207.934 55.4051 208.294 55.0611C208.662 54.7091 209.106 54.5331 209.626 54.5331C210.154 54.5331 210.594 54.7091 210.946 55.0611C211.298 55.4051 211.474 55.8411 211.474 56.3691C211.474 56.8891 211.298 57.3291 210.946 57.6891C210.594 58.0491 210.154 58.2291 209.626 58.2291ZM219.973 73.0371C218.093 73.0371 216.545 72.4211 215.329 71.1891C214.121 69.9571 213.517 68.3811 213.517 66.4611C213.517 64.5331 214.125 62.9611 215.341 61.7451C216.557 60.5291 218.105 59.9211 219.985 59.9211C220.833 59.9211 221.601 60.0411 222.289 60.2811C222.985 60.5211 223.617 60.8971 224.185 61.4091C224.753 61.9131 225.245 62.6371 225.661 63.5811L222.997 64.6371C222.733 64.1011 222.465 63.6971 222.193 63.4251C221.921 63.1531 221.601 62.9531 221.233 62.8251C220.865 62.6971 220.461 62.6331 220.021 62.6331C219.085 62.6331 218.281 62.9851 217.609 63.6891C216.937 64.3931 216.601 65.3131 216.601 66.4491C216.601 67.5851 216.933 68.5171 217.597 69.2451C218.261 69.9651 219.065 70.3251 220.009 70.3251C220.449 70.3251 220.857 70.2571 221.233 70.1211C221.617 69.9771 221.941 69.7851 222.205 69.5451C222.469 69.2971 222.761 68.8811 223.081 68.2971L225.745 69.2331C225.313 70.2331 224.825 70.9851 224.281 71.4891C223.745 71.9851 223.113 72.3691 222.385 72.6411C221.665 72.9051 220.861 73.0371 219.973 73.0371Z" fill="white"/>
<path d="M37.3267 99.1291C36.4067 99.1291 35.6307 98.8131 34.9987 98.1811C34.3667 97.5411 34.0507 96.7611 34.0507 95.8411C34.0507 94.9451 34.3667 94.1811 34.9987 93.5491C35.6307 92.9171 36.4067 92.6011 37.3267 92.6011C38.2467 92.6011 39.0227 92.9171 39.6547 93.5491C40.2947 94.1811 40.6147 94.9451 40.6147 95.8411C40.6147 96.7611 40.2947 97.5411 39.6547 98.1811C39.0227 98.8131 38.2467 99.1291 37.3267 99.1291Z" fill="white"/>
<path d="M62.4523 103.641V86.4571H65.8723L73.2763 98.0971H73.3603L73.2643 95.1211V86.4571H76.3963V103.641H73.4203L65.5843 91.4971H65.5003L65.5843 94.4611V103.641H62.4523ZM85.5509 104.037C83.6309 104.037 82.0469 103.417 80.7989 102.177C79.5589 100.937 78.9389 99.3731 78.9389 97.4851C78.9389 95.5651 79.5629 93.9931 80.8109 92.7691C82.0589 91.5371 83.6389 90.9211 85.5509 90.9211C87.4549 90.9211 89.0309 91.5411 90.2789 92.7811C91.5349 94.0131 92.1629 95.5811 92.1629 97.4851C92.1629 99.3731 91.5389 100.937 90.2909 102.177C89.0509 103.417 87.4709 104.037 85.5509 104.037ZM85.5509 101.325C86.5429 101.325 87.3749 100.965 88.0469 100.245C88.7189 99.5171 89.0549 98.5931 89.0549 97.4731C89.0549 96.3371 88.7149 95.4171 88.0349 94.7131C87.3629 94.0011 86.5349 93.6451 85.5509 93.6451C84.5509 93.6451 83.7149 94.0011 83.0429 94.7131C82.3709 95.4251 82.0349 96.3451 82.0349 97.4731C82.0349 98.5931 82.3669 99.5171 83.0309 100.245C83.7029 100.965 84.5429 101.325 85.5509 101.325ZM94.3428 103.641V91.3171H97.3788V93.6331L97.0188 93.2371H97.4508C97.6908 92.5651 98.1348 92.0131 98.7828 91.5811C99.4308 91.1411 100.119 90.9211 100.847 90.9211C101.063 90.9211 101.283 90.9411 101.507 90.9811C101.739 91.0131 101.947 91.0611 102.131 91.1251C102.315 91.1811 102.407 91.2091 102.407 91.2091V94.2451C102.407 94.2451 102.283 94.2051 102.035 94.1251C101.795 94.0371 101.531 93.9651 101.243 93.9091C100.963 93.8531 100.707 93.8251 100.475 93.8251C99.6268 93.8251 98.9228 94.1371 98.3628 94.7611C97.8028 95.3851 97.5228 96.1811 97.5228 97.1491V103.641H94.3428ZM104.257 103.641V91.3171H107.293V93.4771L107.017 93.1171H107.377C107.721 92.4771 108.249 91.9531 108.961 91.5451C109.681 91.1291 110.457 90.9211 111.289 90.9211C112.153 90.9211 112.921 91.1251 113.593 91.5331C114.273 91.9411 114.761 92.5051 115.057 93.2251C115.529 92.4491 116.129 91.8731 116.857 91.4971C117.593 91.1131 118.397 90.9211 119.269 90.9211C120.717 90.9211 121.813 91.3451 122.557 92.1931C123.301 93.0331 123.673 94.2171 123.673 95.7451V103.641H120.517V96.3091C120.517 95.3971 120.325 94.7171 119.941 94.2691C119.565 93.8211 118.989 93.5971 118.213 93.5971C117.461 93.5971 116.829 93.8971 116.317 94.4971C115.813 95.0971 115.561 95.8451 115.561 96.7411V103.641H112.381V96.3331C112.381 95.4131 112.189 94.7251 111.805 94.2691C111.421 93.8131 110.845 93.5851 110.077 93.5851C109.325 93.5851 108.697 93.8931 108.193 94.5091C107.689 95.1251 107.437 95.8811 107.437 96.7771V103.641H104.257ZM130.208 104.037C128.856 104.037 127.764 103.665 126.932 102.921C126.108 102.177 125.696 101.205 125.696 100.005C125.696 98.7491 126.18 97.7531 127.148 97.0171C128.124 96.2731 129.388 95.9011 130.94 95.9011C131.58 95.9011 132.192 95.9691 132.776 96.1051C133.36 96.2331 133.852 96.3971 134.252 96.5971V95.8651C134.252 95.0971 133.984 94.4851 133.448 94.0291C132.912 93.5731 132.204 93.3451 131.324 93.3451C130.812 93.3451 130.376 93.4011 130.016 93.5131C129.664 93.6251 129.336 93.7731 129.032 93.9571C128.736 94.1331 128.468 94.3371 128.228 94.5691C127.988 94.7931 127.868 94.9051 127.868 94.9051L126.116 93.2011C126.116 93.2011 126.308 93.0331 126.692 92.6971C127.084 92.3531 127.516 92.0491 127.988 91.7851C128.46 91.5131 128.988 91.3011 129.572 91.1491C130.164 90.9971 130.84 90.9211 131.6 90.9211C133.392 90.9211 134.788 91.3571 135.788 92.2291C136.796 93.0931 137.3 94.3131 137.3 95.8891V103.641H134.264V100.929L135.056 102.033H134.18C133.812 102.625 133.276 103.109 132.572 103.485C131.868 103.853 131.08 104.037 130.208 104.037ZM131.036 101.817C131.956 101.817 132.72 101.493 133.328 100.845C133.936 100.189 134.244 99.3531 134.252 98.3371V98.3251C133.908 98.1251 133.504 97.9651 133.04 97.8451C132.576 97.7171 132.08 97.6531 131.552 97.6531C130.696 97.6531 130.004 97.8331 129.476 98.1931C128.956 98.5531 128.696 99.0971 128.696 99.8251C128.696 100.441 128.912 100.929 129.344 101.289C129.776 101.641 130.34 101.817 131.036 101.817ZM140.093 103.641V86.4571H143.273V103.641H140.093Z" fill="#4CE995"/>
<g style="mix-blend-mode:screen">
<g clip-path="url(#clip0_5_398)">
<path d="M12 188.95C12 166.859 29.9086 148.95 52 148.95H478C500.091 148.95 518 166.859 518 188.95V344.562C518 366.653 500.091 384.562 478 384.562H52C29.9086 384.562 12 366.653 12 344.562V188.95Z" fill="black"/>
</g>
<path d="M52 149.95H478C499.539 149.95 517 167.411 517 188.95V344.562C517 366.101 499.539 383.562 478 383.562H52C30.4609 383.562 13 366.101 13 344.562V188.95C13 167.411 30.4609 149.95 52 149.95Z" stroke="#606460" stroke-width="2" stroke-linecap="round"/>
</g>
<defs>
<clipPath id="clip0_5_398">
<path d="M12 188.95C12 166.859 29.9086 148.95 52 148.95H478C500.091 148.95 518 166.859 518 188.95V344.562C518 366.653 500.091 384.562 478 384.562H52C29.9086 384.562 12 366.653 12 344.562V188.95Z" fill="white"/>
</clipPath>
</defs>
</svg>
