<svg width="498" height="107" viewBox="0 0 498 107" fill="none" xmlns="http://www.w3.org/2000/svg">
<path d="M40 1H458C479.539 1.00001 497 18.4609 497 40V67C497 88.5391 479.539 106 458 106H40C18.4609 106 1 88.5391 1 67V40L1.0127 38.9932C1.53824 18.254 18.254 1.53825 38.9932 1.0127L40 1Z" fill="black" fill-opacity="0.2"/>
<path d="M40 1H458C479.539 1.00001 497 18.4609 497 40V67C497 88.5391 479.539 106 458 106H40C18.4609 106 1 88.5391 1 67V40L1.0127 38.9932C1.53824 18.254 18.254 1.53825 38.9932 1.0127L40 1Z" stroke="#606460" stroke-width="2" stroke-linecap="round"/>
<path fill-rule="evenodd" clip-rule="evenodd" d="M52 25.5C67.464 25.5 80 38.036 80 53.5C80 68.964 67.464 81.5 52 81.5C36.536 81.5 24 68.964 24 53.5C24 38.036 36.536 25.5 52 25.5ZM61.9601 36.9423C60.587 36.9423 59.2267 37.2131 57.9581 37.7388C56.6897 38.2644 55.5367 39.0351 54.5661 40.0062L52.5525 42.0198L50.5375 40.0062C48.5765 38.0453 45.9166 36.9437 43.1434 36.9437C40.3703 36.9437 37.7103 38.0453 35.7494 40.0062C33.7889 41.967 32.6871 44.6261 32.6869 47.3988C32.6869 50.1718 33.7887 52.832 35.7494 54.7929L52.5525 71.596L69.3542 54.7929C70.3253 53.8221 71.096 52.6694 71.6216 51.4008C72.1472 50.1323 72.4181 48.772 72.4181 47.3988C72.418 46.026 72.1471 44.6666 71.6216 43.3982C71.096 42.1297 70.3253 40.9769 69.3542 40.0062C68.3834 39.035 67.2307 38.2644 65.9621 37.7388C64.6935 37.2131 63.3334 36.9423 61.9601 36.9423Z" fill="#ACCBFF"/>
<path d="M97.8 44V26.816H104.796C106.212 26.816 107.404 27.248 108.372 28.112C109.34 28.968 109.824 30.044 109.824 31.34C109.824 32.228 109.604 32.992 109.164 33.632C108.724 34.272 108.132 34.756 107.388 35.084V35.156C108.292 35.428 109.024 35.92 109.584 36.632C110.144 37.336 110.424 38.168 110.424 39.128C110.424 40.504 109.924 41.66 108.924 42.596C107.932 43.532 106.688 44 105.192 44H97.8ZM101.016 41.336H104.664C105.368 41.336 105.964 41.1 106.452 40.628C106.94 40.148 107.184 39.56 107.184 38.864C107.184 38.168 106.928 37.592 106.416 37.136C105.912 36.68 105.3 36.452 104.58 36.452H100.068V34.076H104.28C104.976 34.076 105.552 33.856 106.008 33.416C106.472 32.968 106.704 32.428 106.704 31.796C106.704 31.164 106.48 30.632 106.032 30.2C105.584 29.76 105.02 29.54 104.34 29.54H101.016V41.336ZM112.698 44V26.816H115.878V44H112.698ZM124.696 44.396C122.776 44.396 121.192 43.776 119.944 42.536C118.704 41.296 118.084 39.732 118.084 37.844C118.084 35.924 118.708 34.352 119.956 33.128C121.204 31.896 122.784 31.28 124.696 31.28C126.6 31.28 128.176 31.9 129.424 33.14C130.68 34.372 131.308 35.94 131.308 37.844C131.308 39.732 130.684 41.296 129.436 42.536C128.196 43.776 126.616 44.396 124.696 44.396ZM124.696 41.684C125.688 41.684 126.52 41.324 127.192 40.604C127.864 39.876 128.2 38.952 128.2 37.832C128.2 36.696 127.86 35.776 127.18 35.072C126.508 34.36 125.68 34.004 124.696 34.004C123.696 34.004 122.86 34.36 122.188 35.072C121.516 35.784 121.18 36.704 121.18 37.832C121.18 38.952 121.512 39.876 122.176 40.604C122.848 41.324 123.688 41.684 124.696 41.684ZM139.367 44.396C137.447 44.396 135.863 43.776 134.615 42.536C133.375 41.296 132.755 39.732 132.755 37.844C132.755 35.924 133.379 34.352 134.627 33.128C135.875 31.896 137.455 31.28 139.367 31.28C141.271 31.28 142.847 31.9 144.095 33.14C145.351 34.372 145.979 35.94 145.979 37.844C145.979 39.732 145.355 41.296 144.107 42.536C142.867 43.776 141.287 44.396 139.367 44.396ZM139.367 41.684C140.359 41.684 141.191 41.324 141.863 40.604C142.535 39.876 142.871 38.952 142.871 37.832C142.871 36.696 142.531 35.776 141.851 35.072C141.179 34.36 140.351 34.004 139.367 34.004C138.367 34.004 137.531 34.36 136.859 35.072C136.187 35.784 135.851 36.704 135.851 37.832C135.851 38.952 136.183 39.876 136.847 40.604C137.519 41.324 138.359 41.684 139.367 41.684ZM153.199 44.396C151.535 44.396 150.155 43.796 149.059 42.596C147.971 41.388 147.427 39.812 147.427 37.868C147.427 35.932 147.983 34.352 149.095 33.128C150.207 31.904 151.615 31.292 153.319 31.292C154.143 31.292 154.903 31.472 155.599 31.832C156.295 32.184 156.819 32.648 157.171 33.224H157.231V26.816H160.387V44H157.351V41.912L157.663 42.368L157.279 42.38C156.903 42.996 156.347 43.488 155.611 43.856C154.883 44.216 154.079 44.396 153.199 44.396ZM153.919 41.708C154.887 41.708 155.695 41.344 156.343 40.616C156.999 39.888 157.327 38.964 157.327 37.844C157.327 36.708 156.995 35.784 156.331 35.072C155.675 34.36 154.871 34.004 153.919 34.004C152.967 34.004 152.159 34.36 151.495 35.072C150.839 35.784 150.511 36.708 150.511 37.844C150.511 38.972 150.839 39.9 151.495 40.628C152.151 41.348 152.959 41.708 153.919 41.708ZM168.644 49.16V31.676H171.68V34.076L170.972 33.284H171.752C172.128 32.692 172.68 32.212 173.408 31.844C174.136 31.468 174.952 31.28 175.856 31.28C177.52 31.28 178.9 31.88 179.996 33.08C181.092 34.272 181.64 35.848 181.64 37.808C181.64 39.728 181.088 41.308 179.984 42.548C178.888 43.78 177.5 44.396 175.82 44.396C174.964 44.396 174.18 44.228 173.468 43.892C172.764 43.548 172.24 43.096 171.896 42.536H171.824V49.16H168.644ZM175.136 41.696C176.104 41.696 176.912 41.336 177.56 40.616C178.208 39.888 178.532 38.96 178.532 37.832C178.532 36.688 178.204 35.76 177.548 35.048C176.892 34.336 176.088 33.98 175.136 33.98C174.184 33.98 173.376 34.336 172.712 35.048C172.056 35.76 171.728 36.688 171.728 37.832C171.728 38.952 172.056 39.876 172.712 40.604C173.368 41.332 174.176 41.696 175.136 41.696ZM183.831 44V31.676H186.867V33.992L186.507 33.596H186.939C187.179 32.924 187.623 32.372 188.271 31.94C188.919 31.5 189.607 31.28 190.335 31.28C190.551 31.28 190.771 31.3 190.995 31.34C191.227 31.372 191.435 31.42 191.619 31.484C191.803 31.54 191.895 31.568 191.895 31.568V34.604C191.895 34.604 191.771 34.564 191.523 34.484C191.283 34.396 191.019 34.324 190.731 34.268C190.451 34.212 190.195 34.184 189.963 34.184C189.115 34.184 188.411 34.496 187.851 35.12C187.291 35.744 187.011 36.54 187.011 37.508V44H183.831ZM198.905 44.396C197.001 44.396 195.461 43.78 194.285 42.548C193.109 41.316 192.521 39.744 192.521 37.832C192.521 35.944 193.109 34.38 194.285 33.14C195.461 31.9 196.969 31.28 198.809 31.28C200.601 31.28 202.061 31.832 203.189 32.936C204.325 34.04 204.893 35.444 204.893 37.148V38.456H194.117V36.644H201.881C201.833 35.82 201.533 35.148 200.981 34.628C200.437 34.1 199.713 33.836 198.809 33.836C197.833 33.836 197.045 34.188 196.445 34.892C195.853 35.588 195.557 36.544 195.557 37.76C195.557 39.032 195.897 40.044 196.577 40.796C197.265 41.54 198.145 41.912 199.217 41.912C199.713 41.912 200.145 41.844 200.513 41.708C200.881 41.572 201.213 41.388 201.509 41.156C201.813 40.924 202.157 40.548 202.541 40.028L204.581 41.42C204.061 42.22 203.533 42.816 202.997 43.208C202.469 43.6 201.885 43.896 201.245 44.096C200.605 44.296 199.825 44.396 198.905 44.396ZM211.713 44.396C210.865 44.396 210.121 44.304 209.481 44.12C208.849 43.936 208.281 43.664 207.777 43.304C207.281 42.944 206.877 42.548 206.565 42.116C206.261 41.684 206.109 41.468 206.109 41.468L208.197 39.968C208.197 39.968 208.313 40.124 208.545 40.436C208.777 40.74 209.053 41.012 209.373 41.252C209.701 41.484 210.061 41.66 210.453 41.78C210.853 41.9 211.321 41.96 211.857 41.96C212.521 41.96 213.045 41.844 213.429 41.612C213.813 41.372 214.005 41.02 214.005 40.556C214.005 40.18 213.837 39.88 213.501 39.656C213.165 39.432 212.381 39.18 211.149 38.9C209.557 38.54 208.405 38.044 207.693 37.412C206.989 36.772 206.637 35.968 206.637 35C206.637 33.88 207.113 32.98 208.065 32.3C209.017 31.62 210.205 31.28 211.629 31.28C212.357 31.28 213.013 31.356 213.597 31.508C214.189 31.66 214.717 31.884 215.181 32.18C215.645 32.476 216.021 32.796 216.309 33.14C216.597 33.476 216.741 33.644 216.741 33.644L214.725 35.144C214.725 35.144 214.625 35.032 214.425 34.808C214.225 34.584 213.977 34.384 213.681 34.208C213.393 34.032 213.073 33.904 212.721 33.824C212.369 33.744 212.001 33.704 211.617 33.704C211.025 33.704 210.545 33.824 210.177 34.064C209.809 34.296 209.625 34.576 209.625 34.904C209.625 35.256 209.781 35.548 210.093 35.78C210.413 36.012 211.217 36.28 212.505 36.584C214.113 36.944 215.265 37.44 215.961 38.072C216.665 38.696 217.017 39.476 217.017 40.412C217.017 41.604 216.529 42.568 215.553 43.304C214.577 44.032 213.297 44.396 211.713 44.396ZM223.666 44.396C222.818 44.396 222.074 44.304 221.434 44.12C220.802 43.936 220.234 43.664 219.73 43.304C219.234 42.944 218.83 42.548 218.518 42.116C218.214 41.684 218.062 41.468 218.062 41.468L220.15 39.968C220.15 39.968 220.266 40.124 220.498 40.436C220.73 40.74 221.006 41.012 221.326 41.252C221.654 41.484 222.014 41.66 222.406 41.78C222.806 41.9 223.274 41.96 223.81 41.96C224.474 41.96 224.998 41.844 225.382 41.612C225.766 41.372 225.958 41.02 225.958 40.556C225.958 40.18 225.79 39.88 225.454 39.656C225.118 39.432 224.334 39.18 223.102 38.9C221.51 38.54 220.358 38.044 219.646 37.412C218.942 36.772 218.59 35.968 218.59 35C218.59 33.88 219.066 32.98 220.018 32.3C220.97 31.62 222.158 31.28 223.582 31.28C224.31 31.28 224.966 31.356 225.55 31.508C226.142 31.66 226.67 31.884 227.134 32.18C227.598 32.476 227.974 32.796 228.262 33.14C228.55 33.476 228.694 33.644 228.694 33.644L226.678 35.144C226.678 35.144 226.578 35.032 226.378 34.808C226.178 34.584 225.93 34.384 225.634 34.208C225.346 34.032 225.026 33.904 224.674 33.824C224.322 33.744 223.954 33.704 223.57 33.704C222.978 33.704 222.498 33.824 222.13 34.064C221.762 34.296 221.578 34.576 221.578 34.904C221.578 35.256 221.734 35.548 222.046 35.78C222.366 36.012 223.17 36.28 224.458 36.584C226.066 36.944 227.218 37.44 227.914 38.072C228.618 38.696 228.97 39.476 228.97 40.412C228.97 41.604 228.482 42.568 227.506 43.304C226.53 44.032 225.25 44.396 223.666 44.396ZM235.451 44.396C234.011 44.396 232.887 43.984 232.079 43.16C231.279 42.328 230.879 41.156 230.879 39.644V31.676H234.059V39.128C234.059 40.024 234.267 40.712 234.683 41.192C235.099 41.672 235.691 41.912 236.459 41.912C237.275 41.912 237.955 41.604 238.499 40.988C239.043 40.372 239.315 39.62 239.315 38.732V31.676H242.495V44H239.495V40.868L240.947 42.32H239.423C239.071 42.928 238.539 43.428 237.827 43.82C237.123 44.204 236.331 44.396 235.451 44.396ZM245.425 44V31.676H248.461V33.992L248.101 33.596H248.533C248.773 32.924 249.217 32.372 249.865 31.94C250.513 31.5 251.201 31.28 251.929 31.28C252.145 31.28 252.365 31.3 252.589 31.34C252.821 31.372 253.029 31.42 253.213 31.484C253.397 31.54 253.489 31.568 253.489 31.568V34.604C253.489 34.604 253.365 34.564 253.117 34.484C252.877 34.396 252.613 34.324 252.325 34.268C252.045 34.212 251.789 34.184 251.557 34.184C250.709 34.184 250.005 34.496 249.445 35.12C248.885 35.744 248.605 36.54 248.605 37.508V44H245.425ZM260.499 44.396C258.595 44.396 257.055 43.78 255.879 42.548C254.703 41.316 254.115 39.744 254.115 37.832C254.115 35.944 254.703 34.38 255.879 33.14C257.055 31.9 258.563 31.28 260.403 31.28C262.195 31.28 263.655 31.832 264.783 32.936C265.919 34.04 266.487 35.444 266.487 37.148V38.456H255.711V36.644H263.475C263.427 35.82 263.127 35.148 262.575 34.628C262.031 34.1 261.307 33.836 260.403 33.836C259.427 33.836 258.639 34.188 258.039 34.892C257.447 35.588 257.151 36.544 257.151 37.76C257.151 39.032 257.491 40.044 258.171 40.796C258.859 41.54 259.739 41.912 260.811 41.912C261.307 41.912 261.739 41.844 262.107 41.708C262.475 41.572 262.807 41.388 263.103 41.156C263.407 40.924 263.751 40.548 264.135 40.028L266.175 41.42C265.655 42.22 265.127 42.816 264.591 43.208C264.063 43.6 263.479 43.896 262.839 44.096C262.199 44.296 261.419 44.396 260.499 44.396Z" fill="white"/>
<path d="M100.596 79V65.92L98.184 67.66L96.468 65.5L101.676 61.816H103.8V79H100.596ZM110.346 79V65.92L107.934 67.66L106.218 65.5L111.426 61.816H113.55V79H110.346ZM122.424 79.396C120.664 79.396 119.224 78.92 118.104 77.968C116.984 77.008 116.424 75.788 116.424 74.308C116.424 73.316 116.676 72.448 117.18 71.704C117.684 70.952 118.38 70.388 119.268 70.012V69.94C118.612 69.556 118.076 69.06 117.66 68.452C117.252 67.836 117.048 67.108 117.048 66.268C117.048 64.844 117.552 63.68 118.56 62.776C119.568 61.872 120.856 61.42 122.424 61.42C124.008 61.42 125.3 61.872 126.3 62.776C127.3 63.68 127.8 64.844 127.8 66.268C127.8 67.108 127.584 67.848 127.152 68.488C126.72 69.128 126.192 69.612 125.568 69.94V70.012C126.456 70.388 127.156 70.952 127.668 71.704C128.18 72.456 128.436 73.328 128.436 74.32C128.436 75.808 127.876 77.028 126.756 77.98C125.636 78.924 124.192 79.396 122.424 79.396ZM122.424 76.672C123.264 76.672 123.952 76.424 124.488 75.928C125.032 75.432 125.304 74.796 125.304 74.02C125.304 73.228 125.036 72.572 124.5 72.052C123.972 71.524 123.28 71.26 122.424 71.26C121.608 71.26 120.924 71.512 120.372 72.016C119.82 72.52 119.544 73.168 119.544 73.96C119.544 74.744 119.816 75.392 120.36 75.904C120.904 76.416 121.592 76.672 122.424 76.672ZM122.424 68.896C123.136 68.896 123.716 68.672 124.164 68.224C124.62 67.768 124.848 67.188 124.848 66.484C124.848 65.804 124.62 65.244 124.164 64.804C123.716 64.364 123.136 64.144 122.424 64.144C121.72 64.144 121.14 64.364 120.684 64.804C120.228 65.244 120 65.804 120 66.484C120 67.188 120.228 67.768 120.684 68.224C121.14 68.672 121.72 68.896 122.424 68.896ZM134.792 79L140.24 61.816H143.144L137.72 79H134.792ZM149.878 77.944L157.054 64.756L157.03 64.672H149.194V61.816H160.426C160.426 63.752 160.426 64.72 160.426 64.72C160.426 64.72 160.378 64.816 160.282 65.008L152.77 79.468L149.878 77.944ZM166.396 79.372C164.572 79.372 163.08 78.812 161.92 77.692C160.768 76.564 160.192 75.14 160.192 73.42C160.192 72.236 160.488 71.1 161.08 70.012C161.68 68.924 162.42 67.788 163.3 66.604L167.212 61.252L169.792 63.028L165.724 68.44C165.356 68.896 164.688 69.464 163.72 70.144C162.76 70.824 162.132 71.916 161.836 73.42L160.54 73.372C160.772 71.62 161.56 70.272 162.904 69.328C164.248 68.376 165.728 67.9 167.344 67.9C168.832 67.9 170.084 68.412 171.1 69.436C172.116 70.46 172.624 71.756 172.624 73.324C172.624 75.044 172.032 76.484 170.848 77.644C169.672 78.796 168.188 79.372 166.396 79.372ZM166.432 76.456C167.32 76.456 168.044 76.176 168.604 75.616C169.164 75.048 169.444 74.324 169.444 73.444C169.444 72.588 169.16 71.876 168.592 71.308C168.032 70.74 167.316 70.456 166.444 70.456C165.564 70.456 164.832 70.74 164.248 71.308C163.664 71.876 163.372 72.592 163.372 73.456C163.372 74.328 163.66 75.048 164.236 75.616C164.812 76.176 165.544 76.456 166.432 76.456ZM180.081 79V66.676H183.117V68.836L182.841 68.476H183.201C183.545 67.836 184.073 67.312 184.785 66.904C185.505 66.488 186.281 66.28 187.113 66.28C187.977 66.28 188.745 66.484 189.417 66.892C190.097 67.3 190.585 67.864 190.881 68.584C191.353 67.808 191.953 67.232 192.681 66.856C193.417 66.472 194.221 66.28 195.093 66.28C196.541 66.28 197.637 66.704 198.381 67.552C199.125 68.392 199.497 69.576 199.497 71.104V79H196.341V71.668C196.341 70.756 196.149 70.076 195.765 69.628C195.389 69.18 194.813 68.956 194.037 68.956C193.285 68.956 192.653 69.256 192.141 69.856C191.637 70.456 191.385 71.204 191.385 72.1V79H188.205V71.692C188.205 70.772 188.013 70.084 187.629 69.628C187.245 69.172 186.669 68.944 185.901 68.944C185.149 68.944 184.521 69.252 184.017 69.868C183.513 70.484 183.261 71.24 183.261 72.136V79H180.081ZM202.3 79V66.676H205.336V68.836L205.06 68.476H205.42C205.764 67.836 206.292 67.312 207.004 66.904C207.724 66.488 208.5 66.28 209.332 66.28C210.196 66.28 210.964 66.484 211.636 66.892C212.316 67.3 212.804 67.864 213.1 68.584C213.572 67.808 214.172 67.232 214.9 66.856C215.636 66.472 216.44 66.28 217.312 66.28C218.76 66.28 219.856 66.704 220.6 67.552C221.344 68.392 221.716 69.576 221.716 71.104V79H218.56V71.668C218.56 70.756 218.368 70.076 217.984 69.628C217.608 69.18 217.032 68.956 216.256 68.956C215.504 68.956 214.872 69.256 214.36 69.856C213.856 70.456 213.604 71.204 213.604 72.1V79H210.424V71.692C210.424 70.772 210.232 70.084 209.848 69.628C209.464 69.172 208.888 68.944 208.12 68.944C207.368 68.944 206.74 69.252 206.236 69.868C205.732 70.484 205.48 71.24 205.48 72.136V79H202.3ZM235.583 79V61.816H238.811V79H235.583ZM224.855 79V61.816H228.071V79H224.855ZM226.727 71.74V68.74H236.939V71.74H226.727ZM247.701 84.556C246.837 84.556 246.057 84.448 245.361 84.232C244.673 84.024 244.053 83.712 243.501 83.296C242.957 82.888 242.533 82.436 242.229 81.94C241.925 81.452 241.773 81.208 241.773 81.208L244.269 79.924C244.269 79.924 244.377 80.092 244.593 80.428C244.809 80.764 245.065 81.056 245.361 81.304C245.665 81.552 246.009 81.74 246.393 81.868C246.785 81.996 247.201 82.06 247.641 82.06C248.769 82.06 249.629 81.74 250.221 81.1C250.813 80.468 251.109 79.588 251.109 78.46V77.212H251.025C250.593 77.804 250.033 78.268 249.345 78.604C248.657 78.94 247.885 79.108 247.029 79.108C245.381 79.108 244.021 78.528 242.949 77.368C241.877 76.208 241.341 74.652 241.341 72.7C241.341 70.788 241.893 69.24 242.997 68.056C244.109 66.872 245.497 66.28 247.161 66.28C247.985 66.28 248.745 66.452 249.441 66.796C250.145 67.132 250.701 67.596 251.109 68.188H251.901L251.181 68.992V66.676H254.217V78.304C254.217 80.312 253.637 81.856 252.477 82.936C251.317 84.016 249.725 84.556 247.701 84.556ZM247.809 76.444C248.777 76.444 249.577 76.1 250.209 75.412C250.841 74.716 251.157 73.796 251.157 72.652C251.157 71.524 250.841 70.624 250.209 69.952C249.577 69.272 248.777 68.932 247.809 68.932C246.841 68.932 246.037 69.272 245.397 69.952C244.757 70.624 244.437 71.532 244.437 72.676C244.437 73.86 244.753 74.784 245.385 75.448C246.017 76.112 246.825 76.444 247.809 76.444ZM264.192 73.54C263.616 73.54 263.128 73.344 262.728 72.952C262.328 72.56 262.128 72.076 262.128 71.5C262.128 70.932 262.328 70.452 262.728 70.06C263.128 69.668 263.616 69.472 264.192 69.472C264.768 69.472 265.252 69.668 265.644 70.06C266.044 70.452 266.244 70.932 266.244 71.5C266.244 72.076 266.044 72.56 265.644 72.952C265.252 73.344 264.768 73.54 264.192 73.54ZM273.715 79V76.348L279.235 70.576C280.035 69.752 280.603 69.04 280.939 68.44C281.275 67.84 281.443 67.26 281.443 66.7C281.443 66.012 281.231 65.464 280.807 65.056C280.391 64.648 279.823 64.444 279.103 64.444C278.687 64.444 278.327 64.512 278.023 64.648C277.727 64.776 277.451 64.968 277.195 65.224C276.939 65.48 276.707 65.784 276.499 66.136C276.299 66.488 276.199 66.664 276.199 66.664L273.559 65.404C273.559 65.404 273.707 65.104 274.003 64.504C274.307 63.896 274.699 63.364 275.179 62.908C275.667 62.452 276.239 62.092 276.895 61.828C277.559 61.556 278.367 61.42 279.319 61.42C280.879 61.42 282.167 61.88 283.183 62.8C284.199 63.712 284.707 64.92 284.707 66.424C284.707 67.304 284.479 68.192 284.023 69.088C283.567 69.976 282.843 70.912 281.851 71.896L277.783 76.072L277.807 76.144H284.959V79H273.715ZM287.472 79V61.816H290.616V68.488H290.688C291.048 67.824 291.58 67.292 292.284 66.892C292.996 66.484 293.776 66.28 294.624 66.28C296.016 66.28 297.108 66.704 297.9 67.552C298.692 68.392 299.088 69.524 299.088 70.948V79H295.908V71.632C295.908 70.768 295.696 70.104 295.272 69.64C294.848 69.168 294.244 68.932 293.46 68.932C292.684 68.932 292.02 69.248 291.468 69.88C290.924 70.512 290.652 71.264 290.652 72.136V79H287.472ZM310.938 79.396C309.586 79.396 308.494 79.024 307.662 78.28C306.838 77.536 306.426 76.564 306.426 75.364C306.426 74.108 306.91 73.112 307.878 72.376C308.854 71.632 310.118 71.26 311.67 71.26C312.31 71.26 312.922 71.328 313.506 71.464C314.09 71.592 314.582 71.756 314.982 71.956V71.224C314.982 70.456 314.714 69.844 314.178 69.388C313.642 68.932 312.934 68.704 312.054 68.704C311.542 68.704 311.106 68.76 310.746 68.872C310.394 68.984 310.066 69.132 309.762 69.316C309.466 69.492 309.198 69.696 308.958 69.928C308.718 70.152 308.598 70.264 308.598 70.264L306.846 68.56C306.846 68.56 307.038 68.392 307.422 68.056C307.814 67.712 308.246 67.408 308.718 67.144C309.19 66.872 309.718 66.66 310.302 66.508C310.894 66.356 311.57 66.28 312.33 66.28C314.122 66.28 315.518 66.716 316.518 67.588C317.526 68.452 318.03 69.672 318.03 71.248V79H314.994V76.288L315.786 77.392H314.91C314.542 77.984 314.006 78.468 313.302 78.844C312.598 79.212 311.81 79.396 310.938 79.396ZM311.766 77.176C312.686 77.176 313.45 76.852 314.058 76.204C314.666 75.548 314.974 74.712 314.982 73.696V73.684C314.638 73.484 314.234 73.324 313.77 73.204C313.306 73.076 312.81 73.012 312.282 73.012C311.426 73.012 310.734 73.192 310.206 73.552C309.686 73.912 309.426 74.456 309.426 75.184C309.426 75.8 309.642 76.288 310.074 76.648C310.506 77 311.07 77.176 311.766 77.176ZM326.451 84.556C325.587 84.556 324.807 84.448 324.111 84.232C323.423 84.024 322.803 83.712 322.251 83.296C321.707 82.888 321.283 82.436 320.979 81.94C320.675 81.452 320.523 81.208 320.523 81.208L323.019 79.924C323.019 79.924 323.127 80.092 323.343 80.428C323.559 80.764 323.815 81.056 324.111 81.304C324.415 81.552 324.759 81.74 325.143 81.868C325.535 81.996 325.951 82.06 326.391 82.06C327.519 82.06 328.379 81.74 328.971 81.1C329.563 80.468 329.859 79.588 329.859 78.46V77.212H329.775C329.343 77.804 328.783 78.268 328.095 78.604C327.407 78.94 326.635 79.108 325.779 79.108C324.131 79.108 322.771 78.528 321.699 77.368C320.627 76.208 320.091 74.652 320.091 72.7C320.091 70.788 320.643 69.24 321.747 68.056C322.859 66.872 324.247 66.28 325.911 66.28C326.735 66.28 327.495 66.452 328.191 66.796C328.895 67.132 329.451 67.596 329.859 68.188H330.651L329.931 68.992V66.676H332.967V78.304C332.967 80.312 332.387 81.856 331.227 82.936C330.067 84.016 328.475 84.556 326.451 84.556ZM326.559 76.444C327.527 76.444 328.327 76.1 328.959 75.412C329.591 74.716 329.907 73.796 329.907 72.652C329.907 71.524 329.591 70.624 328.959 69.952C328.327 69.272 327.527 68.932 326.559 68.932C325.591 68.932 324.787 69.272 324.147 69.952C323.507 70.624 323.187 71.532 323.187 72.676C323.187 73.86 323.503 74.784 324.135 75.448C324.767 76.112 325.575 76.444 326.559 76.444ZM341.774 79.396C339.854 79.396 338.27 78.776 337.022 77.536C335.782 76.296 335.162 74.732 335.162 72.844C335.162 70.924 335.786 69.352 337.034 68.128C338.282 66.896 339.862 66.28 341.774 66.28C343.678 66.28 345.254 66.9 346.502 68.14C347.758 69.372 348.386 70.94 348.386 72.844C348.386 74.732 347.762 76.296 346.514 77.536C345.274 78.776 343.694 79.396 341.774 79.396ZM341.774 76.684C342.766 76.684 343.598 76.324 344.27 75.604C344.942 74.876 345.278 73.952 345.278 72.832C345.278 71.696 344.938 70.776 344.258 70.072C343.586 69.36 342.758 69.004 341.774 69.004C340.774 69.004 339.938 69.36 339.266 70.072C338.594 70.784 338.258 71.704 338.258 72.832C338.258 73.952 338.59 74.876 339.254 75.604C339.926 76.324 340.766 76.684 341.774 76.684Z" fill="white"/>
</svg>
