<svg width="530" height="111" viewBox="0 0 530 111" fill="none" xmlns="http://www.w3.org/2000/svg">
<path d="M40 1H490C511.539 1 529 18.4609 529 40V71C529 92.5391 511.539 110 490 110H40C18.4609 110 1 92.5391 1 71V40C1 18.4609 18.4609 1 40 1Z" fill="#ACCBFF"/>
<path d="M40 1H490C511.539 1 529 18.4609 529 40V71C529 92.5391 511.539 110 490 110H40C18.4609 110 1 92.5391 1 71V40C1 18.4609 18.4609 1 40 1Z" stroke="#606460" stroke-width="2" stroke-linecap="round"/>
<path fill-rule="evenodd" clip-rule="evenodd" d="M52 27.5C67.464 27.5 80 40.036 80 55.5C80 70.964 67.464 83.5 52 83.5C36.536 83.5 24 70.964 24 55.5C24 40.036 36.536 27.5 52 27.5ZM45.5903 32.8496C44.6544 32.8499 43.8173 33.4123 43.4561 34.263L43.3902 34.4369L36.9581 53.7318H29.3496C28.0683 53.7319 27.0288 54.7712 27.0288 56.0525C27.0292 57.3335 28.0685 58.3716 29.3496 58.3718H38.631C39.6293 58.3715 40.5153 57.7329 40.8311 56.7859L45.5903 42.5054L57.3117 77.6681C57.6276 78.615 58.5136 79.2537 59.5118 79.254C60.5103 79.254 61.3974 78.6152 61.7133 77.6681L68.1454 58.3718H75.754C77.0351 58.3716 78.073 57.3335 78.0733 56.0525C78.0733 54.7712 77.0353 53.7319 75.754 53.7318H66.4726C65.5366 53.732 64.6982 54.2933 64.3369 55.1438L64.2724 55.3191L59.5118 69.5968L47.7919 34.4369C47.4761 33.4895 46.589 32.8496 45.5903 32.8496Z" fill="white"/>
<path d="M110.616 48V27.952H114.382V48H110.616ZM98.1 48V27.952H101.852V48H98.1ZM100.256 39.544V36.03H112.226V39.544H100.256ZM124.782 48.462C122.57 48.462 120.774 47.7433 119.392 46.306C118.011 44.8593 117.32 43.0253 117.32 40.804C117.32 38.6013 118.006 36.7767 119.378 35.33C120.76 33.8833 122.528 33.16 124.684 33.16C126.766 33.16 128.469 33.804 129.794 35.092C131.12 36.38 131.782 38.0227 131.782 40.02V41.532H119.182V39.418H128.282C128.217 38.4567 127.862 37.6727 127.218 37.066C126.574 36.45 125.725 36.142 124.67 36.142C123.541 36.142 122.622 36.5527 121.912 37.374C121.212 38.186 120.862 39.3013 120.862 40.72C120.862 42.204 121.259 43.3847 122.052 44.262C122.855 45.13 123.882 45.564 125.132 45.564C125.711 45.564 126.215 45.4847 126.644 45.326C127.083 45.158 127.475 44.9387 127.82 44.668C128.175 44.388 128.576 43.9447 129.024 43.338L131.418 44.962C130.812 45.9047 130.196 46.6047 129.57 47.062C128.954 47.5193 128.268 47.8647 127.512 48.098C126.766 48.3407 125.856 48.462 124.782 48.462ZM138.675 48.462C137.098 48.462 135.824 48.028 134.853 47.16C133.892 46.292 133.411 45.158 133.411 43.758C133.411 42.2927 133.976 41.1307 135.105 40.272C136.244 39.404 137.719 38.97 139.529 38.97C140.276 38.97 140.99 39.0447 141.671 39.194C142.353 39.3433 142.927 39.5393 143.393 39.782V38.928C143.393 38.032 143.081 37.318 142.455 36.786C141.83 36.254 141.004 35.988 139.977 35.988C139.389 35.988 138.885 36.0533 138.465 36.184C138.055 36.3053 137.672 36.4733 137.317 36.688C136.972 36.9027 136.655 37.1453 136.365 37.416C136.085 37.6773 135.945 37.808 135.945 37.808L133.887 35.834C133.887 35.834 134.116 35.6333 134.573 35.232C135.031 34.8307 135.535 34.476 136.085 34.168C136.636 33.8507 137.252 33.6033 137.933 33.426C138.624 33.2487 139.417 33.16 140.313 33.16C142.395 33.16 144.019 33.6687 145.185 34.686C146.361 35.694 146.949 37.1127 146.949 38.942V48H143.407V44.836L144.331 46.11H143.323C142.894 46.8007 142.264 47.3653 141.433 47.804C140.612 48.2427 139.693 48.462 138.675 48.462ZM139.641 45.858C140.715 45.858 141.606 45.48 142.315 44.724C143.025 43.9587 143.384 42.988 143.393 41.812C142.992 41.5693 142.516 41.378 141.965 41.238C141.424 41.098 140.85 41.028 140.243 41.028C139.245 41.028 138.437 41.238 137.821 41.658C137.215 42.0687 136.911 42.694 136.911 43.534C136.911 44.262 137.163 44.8313 137.667 45.242C138.171 45.6527 138.829 45.858 139.641 45.858ZM150.194 48V33.608H153.736V36.296L153.33 35.848H153.82C154.109 35.064 154.632 34.42 155.388 33.916C156.144 33.412 156.942 33.16 157.782 33.16C158.025 33.16 158.277 33.1833 158.538 33.23C158.809 33.2673 159.051 33.3233 159.266 33.398C159.481 33.4633 159.588 33.496 159.588 33.496V37.024C159.588 37.024 159.443 36.9773 159.154 36.884C158.874 36.7813 158.571 36.6973 158.244 36.632C157.917 36.5667 157.623 36.534 157.362 36.534C156.373 36.534 155.547 36.898 154.884 37.626C154.231 38.354 153.904 39.2827 153.904 40.412V48H150.194ZM167.486 48.462C166.068 48.462 164.948 48.0747 164.126 47.3C163.314 46.5253 162.908 45.382 162.908 43.87V29.688H166.604V43.296C166.604 44.024 166.754 44.5607 167.052 44.906C167.351 45.2513 167.79 45.424 168.368 45.424C168.546 45.424 168.728 45.41 168.914 45.382C169.11 45.3447 169.353 45.2793 169.642 45.186C169.932 45.0927 170.076 45.046 170.076 45.046V48.014C170.076 48.014 169.908 48.0607 169.572 48.154C169.246 48.2567 168.919 48.3313 168.592 48.378C168.275 48.434 167.906 48.462 167.486 48.462ZM160.654 36.548V33.608H170.048V36.548H160.654ZM178.987 48V33.608H182.529V36.296L182.123 35.848H182.613C182.902 35.064 183.425 34.42 184.181 33.916C184.937 33.412 185.735 33.16 186.575 33.16C186.818 33.16 187.07 33.1833 187.331 33.23C187.602 33.2673 187.844 33.3233 188.059 33.398C188.274 33.4633 188.381 33.496 188.381 33.496V37.024C188.381 37.024 188.236 36.9773 187.947 36.884C187.667 36.7813 187.364 36.6973 187.037 36.632C186.71 36.5667 186.416 36.534 186.155 36.534C185.166 36.534 184.34 36.898 183.677 37.626C183.024 38.354 182.697 39.2827 182.697 40.412V48H178.987ZM194.429 48.462C192.852 48.462 191.578 48.028 190.607 47.16C189.646 46.292 189.165 45.158 189.165 43.758C189.165 42.2927 189.73 41.1307 190.859 40.272C191.998 39.404 193.473 38.97 195.283 38.97C196.03 38.97 196.744 39.0447 197.425 39.194C198.107 39.3433 198.681 39.5393 199.147 39.782V38.928C199.147 38.032 198.835 37.318 198.209 36.786C197.584 36.254 196.758 35.988 195.731 35.988C195.143 35.988 194.639 36.0533 194.219 36.184C193.809 36.3053 193.426 36.4733 193.071 36.688C192.726 36.9027 192.409 37.1453 192.119 37.416C191.839 37.6773 191.699 37.808 191.699 37.808L189.641 35.834C189.641 35.834 189.87 35.6333 190.327 35.232C190.785 34.8307 191.289 34.476 191.839 34.168C192.39 33.8507 193.006 33.6033 193.687 33.426C194.378 33.2487 195.171 33.16 196.067 33.16C198.149 33.16 199.773 33.6687 200.939 34.686C202.115 35.694 202.703 37.1127 202.703 38.942V48H199.161V44.836L200.085 46.11H199.077C198.648 46.8007 198.018 47.3653 197.187 47.804C196.366 48.2427 195.447 48.462 194.429 48.462ZM195.395 45.858C196.469 45.858 197.36 45.48 198.069 44.724C198.779 43.9587 199.138 42.988 199.147 41.812C198.746 41.5693 198.27 41.378 197.719 41.238C197.178 41.098 196.604 41.028 195.997 41.028C194.999 41.028 194.191 41.238 193.575 41.658C192.969 42.0687 192.665 42.694 192.665 43.534C192.665 44.262 192.917 44.8313 193.421 45.242C193.925 45.6527 194.583 45.858 195.395 45.858ZM211.209 48.462C209.79 48.462 208.67 48.0747 207.849 47.3C207.037 46.5253 206.631 45.382 206.631 43.87V29.688H210.327V43.296C210.327 44.024 210.476 44.5607 210.775 44.906C211.074 45.2513 211.512 45.424 212.091 45.424C212.268 45.424 212.45 45.41 212.637 45.382C212.833 45.3447 213.076 45.2793 213.365 45.186C213.654 45.0927 213.799 45.046 213.799 45.046V48.014C213.799 48.014 213.631 48.0607 213.295 48.154C212.968 48.2567 212.642 48.3313 212.315 48.378C211.998 48.434 211.629 48.462 211.209 48.462ZM204.377 36.548V33.608H213.771V36.548H204.377ZM223.029 48.462C220.817 48.462 219.02 47.7433 217.639 46.306C216.257 44.8593 215.567 43.0253 215.567 40.804C215.567 38.6013 216.253 36.7767 217.625 35.33C219.006 33.8833 220.775 33.16 222.931 33.16C225.012 33.16 226.715 33.804 228.041 35.092C229.366 36.38 230.029 38.0227 230.029 40.02V41.532H217.429V39.418H226.529C226.463 38.4567 226.109 37.6727 225.465 37.066C224.821 36.45 223.971 36.142 222.917 36.142C221.787 36.142 220.868 36.5527 220.159 37.374C219.459 38.186 219.109 39.3013 219.109 40.72C219.109 42.204 219.505 43.3847 220.299 44.262C221.101 45.13 222.128 45.564 223.379 45.564C223.957 45.564 224.461 45.4847 224.891 45.326C225.329 45.158 225.721 44.9387 226.067 44.668C226.421 44.388 226.823 43.9447 227.271 43.338L229.665 44.962C229.058 45.9047 228.442 46.6047 227.817 47.062C227.201 47.5193 226.515 47.8647 225.759 48.098C225.012 48.3407 224.102 48.462 223.029 48.462Z" fill="white"/>
<path d="M102.9 65.444C104.724 65.444 106.212 66.008 107.364 67.136C108.524 68.256 109.104 69.676 109.104 71.396C109.104 72.58 108.804 73.716 108.204 74.804C107.612 75.892 106.876 77.028 105.996 78.212L102.084 83.564L99.504 81.788L103.572 76.376C103.94 75.92 104.604 75.352 105.564 74.672C106.532 73.992 107.164 72.9 107.46 71.396L108.756 71.444C108.524 73.196 107.736 74.548 106.392 75.5C105.056 76.444 103.576 76.916 101.952 76.916C100.464 76.916 99.212 76.404 98.196 75.38C97.18 74.356 96.672 73.06 96.672 71.492C96.672 69.772 97.26 68.336 98.436 67.184C99.62 66.024 101.108 65.444 102.9 65.444ZM102.864 68.36C101.976 68.36 101.252 68.644 100.692 69.212C100.132 69.772 99.852 70.492 99.852 71.372C99.852 72.228 100.132 72.94 100.692 73.508C101.26 74.076 101.98 74.36 102.852 74.36C103.732 74.36 104.464 74.076 105.048 73.508C105.632 72.94 105.924 72.224 105.924 71.36C105.924 70.488 105.636 69.772 105.06 69.212C104.484 68.644 103.752 68.36 102.864 68.36ZM118.208 83V78.308L118.412 77.6V68.588L119.888 69.764H118.352L113.6 76.916H119.504L120.356 76.844H123.296V79.664H110.468V77.192L118.04 65.816H121.412V83H118.208ZM138.203 83.396C137.347 83.396 136.559 83.212 135.839 82.844C135.119 82.468 134.551 81.976 134.135 81.368H133.343L134.063 80.576V83H131.027V65.816H134.207V72.2H134.279C134.679 71.624 135.231 71.16 135.935 70.808C136.639 70.456 137.407 70.28 138.239 70.28C139.903 70.28 141.283 70.88 142.379 72.08C143.475 73.272 144.023 74.844 144.023 76.796C144.023 78.724 143.471 80.308 142.367 81.548C141.271 82.78 139.883 83.396 138.203 83.396ZM137.519 80.696C138.479 80.696 139.283 80.336 139.931 79.616C140.579 78.888 140.903 77.956 140.903 76.82C140.903 75.684 140.575 74.764 139.919 74.06C139.271 73.348 138.471 72.992 137.519 72.992C136.567 72.992 135.759 73.344 135.095 74.048C134.439 74.752 134.111 75.676 134.111 76.82C134.111 77.948 134.435 78.876 135.083 79.604C135.739 80.332 136.551 80.696 137.519 80.696ZM146.214 88.16V70.676H149.25V73.076L148.542 72.284H149.322C149.698 71.692 150.25 71.212 150.978 70.844C151.706 70.468 152.522 70.28 153.426 70.28C155.09 70.28 156.47 70.88 157.566 72.08C158.662 73.272 159.21 74.848 159.21 76.808C159.21 78.728 158.658 80.308 157.554 81.548C156.458 82.78 155.07 83.396 153.39 83.396C152.534 83.396 151.75 83.228 151.038 82.892C150.334 82.548 149.81 82.096 149.466 81.536H149.394V88.16H146.214ZM152.706 80.696C153.674 80.696 154.482 80.336 155.13 79.616C155.778 78.888 156.102 77.96 156.102 76.832C156.102 75.688 155.774 74.76 155.118 74.048C154.462 73.336 153.658 72.98 152.706 72.98C151.754 72.98 150.946 73.336 150.282 74.048C149.626 74.76 149.298 75.688 149.298 76.832C149.298 77.952 149.626 78.876 150.282 79.604C150.938 80.332 151.746 80.696 152.706 80.696ZM161.402 83V70.676H164.438V72.836L164.162 72.476H164.522C164.866 71.836 165.394 71.312 166.105 70.904C166.826 70.488 167.602 70.28 168.434 70.28C169.298 70.28 170.066 70.484 170.738 70.892C171.418 71.3 171.906 71.864 172.202 72.584C172.674 71.808 173.274 71.232 174.002 70.856C174.738 70.472 175.542 70.28 176.414 70.28C177.862 70.28 178.958 70.704 179.702 71.552C180.446 72.392 180.818 73.576 180.818 75.104V83H177.662V75.668C177.662 74.756 177.47 74.076 177.086 73.628C176.71 73.18 176.134 72.956 175.358 72.956C174.606 72.956 173.974 73.256 173.462 73.856C172.958 74.456 172.706 75.204 172.706 76.1V83H169.526V75.692C169.526 74.772 169.334 74.084 168.95 73.628C168.566 73.172 167.99 72.944 167.222 72.944C166.47 72.944 165.842 73.252 165.338 73.868C164.834 74.484 164.582 75.24 164.582 76.136V83H161.402ZM190.669 77.54C190.093 77.54 189.605 77.344 189.205 76.952C188.805 76.56 188.605 76.076 188.605 75.5C188.605 74.932 188.805 74.452 189.205 74.06C189.605 73.668 190.093 73.472 190.669 73.472C191.245 73.472 191.729 73.668 192.121 74.06C192.521 74.452 192.721 74.932 192.721 75.5C192.721 76.076 192.521 76.56 192.121 76.952C191.729 77.344 191.245 77.54 190.669 77.54ZM200.636 83V65.816H203.816V83H200.636ZM206.885 83V70.676H210.065V83H206.885ZM208.481 68.588C207.961 68.588 207.517 68.408 207.149 68.048C206.789 67.688 206.609 67.248 206.609 66.728C206.609 66.2 206.789 65.764 207.149 65.42C207.517 65.068 207.961 64.892 208.481 64.892C209.009 64.892 209.449 65.068 209.801 65.42C210.153 65.764 210.329 66.2 210.329 66.728C210.329 67.248 210.153 67.688 209.801 68.048C209.449 68.408 209.009 68.588 208.481 68.588ZM216.585 83L211.665 70.676H214.953L217.905 78.68L218.217 79.652H218.289L218.625 78.668L221.565 70.676H224.793L219.765 83H216.585ZM231.272 83.396C229.368 83.396 227.828 82.78 226.652 81.548C225.476 80.316 224.888 78.744 224.888 76.832C224.888 74.944 225.476 73.38 226.652 72.14C227.828 70.9 229.336 70.28 231.176 70.28C232.968 70.28 234.428 70.832 235.556 71.936C236.692 73.04 237.26 74.444 237.26 76.148V77.456H226.484V75.644H234.248C234.2 74.82 233.9 74.148 233.348 73.628C232.804 73.1 232.08 72.836 231.176 72.836C230.2 72.836 229.412 73.188 228.812 73.892C228.22 74.588 227.924 75.544 227.924 76.76C227.924 78.032 228.264 79.044 228.944 79.796C229.632 80.54 230.512 80.912 231.584 80.912C232.08 80.912 232.512 80.844 232.88 80.708C233.248 80.572 233.58 80.388 233.876 80.156C234.18 79.924 234.524 79.548 234.908 79.028L236.948 80.42C236.428 81.22 235.9 81.816 235.364 82.208C234.836 82.6 234.252 82.896 233.612 83.096C232.972 83.296 232.192 83.396 231.272 83.396Z" fill="white"/>
<path d="M399.417 83V65.816H409.905V68.816H402.585V80H410.037V83H399.417ZM401.193 75.764V73.064H409.509V75.764H401.193ZM413.003 83V65.816H416.183V83H413.003ZM424.772 83.396C422.868 83.396 421.328 82.78 420.152 81.548C418.976 80.316 418.388 78.744 418.388 76.832C418.388 74.944 418.976 73.38 420.152 72.14C421.328 70.9 422.836 70.28 424.676 70.28C426.468 70.28 427.928 70.832 429.056 71.936C430.192 73.04 430.76 74.444 430.76 76.148V77.456H419.984V75.644H427.748C427.7 74.82 427.4 74.148 426.848 73.628C426.304 73.1 425.58 72.836 424.676 72.836C423.7 72.836 422.912 73.188 422.312 73.892C421.72 74.588 421.424 75.544 421.424 76.76C421.424 78.032 421.764 79.044 422.444 79.796C423.132 80.54 424.012 80.912 425.084 80.912C425.58 80.912 426.012 80.844 426.38 80.708C426.748 80.572 427.08 80.388 427.376 80.156C427.68 79.924 428.024 79.548 428.408 79.028L430.448 80.42C429.928 81.22 429.4 81.816 428.864 82.208C428.336 82.6 427.752 82.896 427.112 83.096C426.472 83.296 425.692 83.396 424.772 83.396ZM436.053 83L431.133 70.676H434.421L437.373 78.68L437.685 79.652H437.757L438.093 78.668L441.033 70.676H444.261L439.233 83H436.053ZM449.009 83.396C447.657 83.396 446.565 83.024 445.733 82.28C444.909 81.536 444.497 80.564 444.497 79.364C444.497 78.108 444.981 77.112 445.949 76.376C446.925 75.632 448.189 75.26 449.741 75.26C450.381 75.26 450.993 75.328 451.577 75.464C452.161 75.592 452.653 75.756 453.053 75.956V75.224C453.053 74.456 452.785 73.844 452.249 73.388C451.713 72.932 451.005 72.704 450.125 72.704C449.613 72.704 449.177 72.76 448.817 72.872C448.465 72.984 448.137 73.132 447.833 73.316C447.537 73.492 447.269 73.696 447.029 73.928C446.789 74.152 446.669 74.264 446.669 74.264L444.917 72.56C444.917 72.56 445.109 72.392 445.493 72.056C445.885 71.712 446.317 71.408 446.789 71.144C447.261 70.872 447.789 70.66 448.373 70.508C448.965 70.356 449.641 70.28 450.401 70.28C452.193 70.28 453.589 70.716 454.589 71.588C455.597 72.452 456.101 73.672 456.101 75.248V83H453.065V80.288L453.857 81.392H452.981C452.613 81.984 452.077 82.468 451.373 82.844C450.669 83.212 449.881 83.396 449.009 83.396ZM449.837 81.176C450.757 81.176 451.521 80.852 452.129 80.204C452.737 79.548 453.045 78.712 453.053 77.696V77.684C452.709 77.484 452.305 77.324 451.841 77.204C451.377 77.076 450.881 77.012 450.353 77.012C449.497 77.012 448.805 77.192 448.277 77.552C447.757 77.912 447.497 78.456 447.497 79.184C447.497 79.8 447.713 80.288 448.145 80.648C448.577 81 449.141 81.176 449.837 81.176ZM463.415 83.396C462.199 83.396 461.239 83.064 460.535 82.4C459.839 81.728 459.491 80.748 459.491 79.46V67.304H462.659V78.968C462.659 79.592 462.787 80.052 463.043 80.348C463.299 80.644 463.675 80.796 464.171 80.804C464.323 80.804 464.479 80.788 464.639 80.756C464.807 80.724 465.015 80.668 465.263 80.588C465.519 80.508 465.647 80.468 465.647 80.468V83.024C465.647 83.024 465.503 83.064 465.215 83.144C464.935 83.224 464.655 83.284 464.375 83.324C464.103 83.372 463.783 83.396 463.415 83.396ZM457.559 73.184V70.676H465.611V73.184H457.559ZM473.569 83.396C471.665 83.396 470.125 82.78 468.949 81.548C467.773 80.316 467.185 78.744 467.185 76.832C467.185 74.944 467.773 73.38 468.949 72.14C470.125 70.9 471.633 70.28 473.473 70.28C475.265 70.28 476.725 70.832 477.853 71.936C478.989 73.04 479.557 74.444 479.557 76.148V77.456H468.781V75.644H476.545C476.497 74.82 476.197 74.148 475.645 73.628C475.101 73.1 474.377 72.836 473.473 72.836C472.497 72.836 471.709 73.188 471.109 73.892C470.517 74.588 470.221 75.544 470.221 76.76C470.221 78.032 470.561 79.044 471.241 79.796C471.929 80.54 472.809 80.912 473.881 80.912C474.377 80.912 474.809 80.844 475.177 80.708C475.545 80.572 475.877 80.388 476.173 80.156C476.477 79.924 476.821 79.548 477.205 79.028L479.245 80.42C478.725 81.22 478.197 81.816 477.661 82.208C477.133 82.6 476.549 82.896 475.909 83.096C475.269 83.296 474.489 83.396 473.569 83.396ZM486.809 83.396C485.145 83.396 483.765 82.796 482.669 81.596C481.581 80.388 481.037 78.812 481.037 76.868C481.037 74.932 481.593 73.352 482.705 72.128C483.817 70.904 485.225 70.292 486.929 70.292C487.753 70.292 488.513 70.472 489.209 70.832C489.905 71.184 490.429 71.648 490.781 72.224H490.841V65.816H493.997V83H490.961V80.912L491.273 81.368L490.889 81.38C490.513 81.996 489.957 82.488 489.221 82.856C488.493 83.216 487.689 83.396 486.809 83.396ZM487.529 80.708C488.497 80.708 489.305 80.344 489.953 79.616C490.609 78.888 490.937 77.964 490.937 76.844C490.937 75.708 490.605 74.784 489.941 74.072C489.285 73.36 488.481 73.004 487.529 73.004C486.577 73.004 485.769 73.36 485.105 74.072C484.449 74.784 484.121 75.708 484.121 76.844C484.121 77.972 484.449 78.9 485.105 79.628C485.761 80.348 486.569 80.708 487.529 80.708Z" fill="#EC928E"/>
</svg>
