<svg width="530" height="380" viewBox="0 0 530 380" fill="none" xmlns="http://www.w3.org/2000/svg">
<rect x="1.5" y="1.5" width="527" height="376.694" rx="30.5" fill="black" fill-opacity="0.2"/>
<rect x="1.5" y="1.5" width="527" height="376.694" rx="30.5" stroke="#ACCBFF" stroke-width="3"/>
<path d="M27.5779 17.85C29.7899 17.85 31.5913 18.522 32.9819 19.866C34.3726 21.2007 35.0679 22.8854 35.0679 24.92C35.0679 26.3294 34.7133 27.6734 34.0039 28.952C33.3039 30.2307 32.4219 31.5747 31.3579 32.984L26.8219 39.074L23.2519 36.624L27.6759 30.926C28.1239 30.3754 28.9873 29.708 30.2659 28.924C31.5539 28.14 32.3846 26.8147 32.7579 24.948L34.5079 24.976C34.3026 27.0667 33.3833 28.6674 31.7499 29.778C30.1259 30.8794 28.2873 31.43 26.2339 31.43C24.4606 31.43 22.9859 30.8327 21.8099 29.638C20.6339 28.4434 20.0459 26.9267 20.0459 25.088C20.0459 23.0067 20.7553 21.28 22.1739 19.908C23.6019 18.536 25.4033 17.85 27.5779 17.85ZM27.5359 21.826C26.6213 21.826 25.8699 22.12 25.2819 22.708C24.7033 23.2867 24.4139 24.0287 24.4139 24.934C24.4139 25.8207 24.7033 26.558 25.2819 27.146C25.8699 27.734 26.6166 28.028 27.5219 28.028C28.4366 28.028 29.1926 27.734 29.7899 27.146C30.3966 26.558 30.6999 25.816 30.6999 24.92C30.6999 24.024 30.4013 23.2867 29.8039 22.708C29.2066 22.12 28.4506 21.826 27.5359 21.826ZM45.3015 38.332V32.76L45.6515 31.906V21.896L47.6255 23.408H45.5815L40.6115 31.024H47.1075L48.2275 30.898H51.8675V34.706H36.4955V31.29L45.0775 18.284H49.7255V38.332H45.3015ZM69.6197 38.808C68.6304 38.808 67.7297 38.6027 66.9177 38.192C66.1057 37.7814 65.4477 37.2307 64.9437 36.54H63.8797L64.8737 35.49V38.332H60.6737V18.284H65.0697V25.494H65.1537C65.6297 24.8687 66.2644 24.3694 67.0577 23.996C67.8604 23.6227 68.7284 23.436 69.6617 23.436C71.6124 23.436 73.2177 24.136 74.4777 25.536C75.7471 26.9267 76.3817 28.77 76.3817 31.066C76.3817 33.334 75.7424 35.1914 74.4637 36.638C73.1944 38.0847 71.5797 38.808 69.6197 38.808ZM68.5417 35.126C69.5591 35.126 70.4037 34.7527 71.0757 34.006C71.7571 33.2594 72.0977 32.2934 72.0977 31.108C72.0977 29.9227 71.7571 28.9614 71.0757 28.224C70.3944 27.4867 69.5497 27.118 68.5417 27.118C67.5337 27.118 66.6844 27.4867 65.9937 28.224C65.3124 28.9614 64.9717 29.9227 64.9717 31.108C64.9717 32.284 65.3124 33.25 65.9937 34.006C66.6751 34.7527 67.5244 35.126 68.5417 35.126ZM78.83 44.324V23.912H83.03V26.684L82.05 25.648H83.114C83.5433 25.004 84.1686 24.4767 84.99 24.066C85.8206 23.646 86.768 23.436 87.832 23.436C89.7733 23.436 91.374 24.1314 92.634 25.522C93.894 26.9127 94.524 28.7607 94.524 31.066C94.524 33.3247 93.8846 35.182 92.606 36.638C91.3366 38.0847 89.722 38.808 87.762 38.808C86.7913 38.808 85.9046 38.6167 85.102 38.234C84.3086 37.8514 83.7113 37.352 83.31 36.736L83.226 36.75V44.324H78.83ZM86.698 35.126C87.7153 35.126 88.5646 34.7527 89.246 34.006C89.9273 33.25 90.268 32.2887 90.268 31.122C90.268 29.918 89.9226 28.9474 89.232 28.21C88.5506 27.4727 87.706 27.104 86.698 27.104C85.69 27.104 84.8406 27.4774 84.15 28.224C83.4686 28.9614 83.128 29.9227 83.128 31.108C83.128 32.284 83.4686 33.25 84.15 34.006C84.8313 34.7527 85.6806 35.126 86.698 35.126ZM96.9589 38.332V23.912H101.173V26.502L100.795 25.998H101.257C101.668 25.242 102.288 24.626 103.119 24.15C103.95 23.674 104.86 23.436 105.849 23.436C106.866 23.436 107.767 23.6694 108.551 24.136C109.344 24.6027 109.909 25.2467 110.245 26.068C110.824 25.172 111.538 24.5094 112.387 24.08C113.236 23.6507 114.16 23.436 115.159 23.436C116.886 23.436 118.188 23.9307 119.065 24.92C119.952 25.9094 120.395 27.2954 120.395 29.078V38.332H116.027V29.904C116.027 28.952 115.826 28.238 115.425 27.762C115.024 27.286 114.422 27.048 113.619 27.048C112.835 27.048 112.182 27.356 111.659 27.972C111.136 28.5787 110.875 29.3534 110.875 30.296V38.332H106.493V29.918C106.493 28.966 106.288 28.2474 105.877 27.762C105.476 27.2767 104.878 27.034 104.085 27.034C103.301 27.034 102.648 27.3467 102.125 27.972C101.612 28.5974 101.355 29.3814 101.355 30.324V38.332H96.9589Z" fill="white"/>
<path d="M21.1319 72.6411V55.4571H27.5999C29.2159 55.4571 30.5839 55.9571 31.7039 56.9571C32.8319 57.9491 33.3959 59.2491 33.3959 60.8571C33.3959 62.4171 32.8519 63.6971 31.7639 64.6971C30.6759 65.6971 29.2439 66.1971 27.4679 66.1971H22.5479V63.7371H27.3239C28.1079 63.7371 28.7759 63.4811 29.3279 62.9691C29.8879 62.4491 30.1679 61.7811 30.1679 60.9651C30.1679 60.2291 29.8999 59.6091 29.3639 59.1051C28.8359 58.5931 28.1919 58.3371 27.4319 58.3371H24.3479V72.6411H21.1319ZM30.6719 72.6411L25.5959 64.8771L29.0159 64.7451L34.4519 72.6411H30.6719ZM41.2136 73.0371C39.3096 73.0371 37.7696 72.4211 36.5936 71.1891C35.4176 69.9571 34.8296 68.3851 34.8296 66.4731C34.8296 64.5851 35.4176 63.0211 36.5936 61.7811C37.7696 60.5411 39.2776 59.9211 41.1176 59.9211C42.9096 59.9211 44.3696 60.4731 45.4976 61.5771C46.6336 62.6811 47.2016 64.0851 47.2016 65.7891V67.0971H36.4256V65.2851H44.1896C44.1416 64.4611 43.8416 63.7891 43.2896 63.2691C42.7456 62.7411 42.0216 62.4771 41.1176 62.4771C40.1416 62.4771 39.3536 62.8291 38.7536 63.5331C38.1616 64.2291 37.8656 65.1851 37.8656 66.4011C37.8656 67.6731 38.2056 68.6851 38.8856 69.4371C39.5736 70.1811 40.4536 70.5531 41.5256 70.5531C42.0216 70.5531 42.4536 70.4851 42.8216 70.3491C43.1896 70.2131 43.5216 70.0291 43.8176 69.7971C44.1216 69.5651 44.4656 69.1891 44.8496 68.6691L46.8896 70.0611C46.3696 70.8611 45.8416 71.4571 45.3056 71.8491C44.7776 72.2411 44.1936 72.5371 43.5536 72.7371C42.9136 72.9371 42.1336 73.0371 41.2136 73.0371ZM54.0211 73.0371C53.1731 73.0371 52.4291 72.9451 51.7891 72.7611C51.1571 72.5771 50.5891 72.3051 50.0851 71.9451C49.5891 71.5851 49.1851 71.1891 48.8731 70.7571C48.5691 70.3251 48.4171 70.1091 48.4171 70.1091L50.5051 68.6091C50.5051 68.6091 50.6211 68.7651 50.8531 69.0771C51.0851 69.3811 51.3611 69.6531 51.6811 69.8931C52.0091 70.1251 52.3691 70.3011 52.7611 70.4211C53.1611 70.5411 53.6291 70.6011 54.1651 70.6011C54.8291 70.6011 55.3531 70.4851 55.7371 70.2531C56.1211 70.0131 56.3131 69.6611 56.3131 69.1971C56.3131 68.8211 56.1451 68.5211 55.8091 68.2971C55.4731 68.0731 54.6891 67.8211 53.4571 67.5411C51.8651 67.1811 50.7131 66.6851 50.0011 66.0531C49.2971 65.4131 48.9451 64.6091 48.9451 63.6411C48.9451 62.5211 49.4211 61.6211 50.3731 60.9411C51.3251 60.2611 52.5131 59.9211 53.9371 59.9211C54.6651 59.9211 55.3211 59.9971 55.9051 60.1491C56.4971 60.3011 57.0251 60.5251 57.4891 60.8211C57.9531 61.1171 58.3291 61.4371 58.6171 61.7811C58.9051 62.1171 59.0491 62.2851 59.0491 62.2851L57.0331 63.7851C57.0331 63.7851 56.9331 63.6731 56.7331 63.4491C56.5331 63.2251 56.2851 63.0251 55.9891 62.8491C55.7011 62.6731 55.3811 62.5451 55.0291 62.4651C54.6771 62.3851 54.3091 62.3451 53.9251 62.3451C53.3331 62.3451 52.8531 62.4651 52.4851 62.7051C52.1171 62.9371 51.9331 63.2171 51.9331 63.5451C51.9331 63.8971 52.0891 64.1891 52.4011 64.4211C52.7211 64.6531 53.5251 64.9211 54.8131 65.2251C56.4211 65.5851 57.5731 66.0811 58.2691 66.7131C58.9731 67.3371 59.3251 68.1171 59.3251 69.0531C59.3251 70.2451 58.8371 71.2091 57.8611 71.9451C56.8851 72.6731 55.6051 73.0371 54.0211 73.0371ZM66.2628 73.0371C65.0468 73.0371 64.0868 72.7051 63.3828 72.0411C62.6868 71.3691 62.3388 70.3891 62.3388 69.1011V56.9451H65.5068V68.6091C65.5068 69.2331 65.6348 69.6931 65.8908 69.9891C66.1468 70.2851 66.5228 70.4371 67.0188 70.4451C67.1708 70.4451 67.3268 70.4291 67.4868 70.3971C67.6548 70.3651 67.8628 70.3091 68.1108 70.2291C68.3668 70.1491 68.4948 70.1091 68.4948 70.1091V72.6651C68.4948 72.6651 68.3508 72.7051 68.0628 72.7851C67.7828 72.8651 67.5028 72.9251 67.2228 72.9651C66.9508 73.0131 66.6308 73.0371 66.2628 73.0371ZM60.4068 62.8251V60.3171H68.4588V62.8251H60.4068ZM70.967 72.6411V60.3171H74.147V72.6411H70.967ZM72.563 58.2291C72.043 58.2291 71.599 58.0491 71.231 57.6891C70.871 57.3291 70.691 56.8891 70.691 56.3691C70.691 55.8411 70.871 55.4051 71.231 55.0611C71.599 54.7091 72.043 54.5331 72.563 54.5331C73.091 54.5331 73.531 54.7091 73.883 55.0611C74.235 55.4051 74.411 55.8411 74.411 56.3691C74.411 56.8891 74.235 57.3291 73.883 57.6891C73.531 58.0491 73.091 58.2291 72.563 58.2291ZM77.1866 72.6411V60.3171H80.2226V62.5611L79.8746 62.1171H80.3066C80.6906 61.4531 81.2546 60.9211 81.9986 60.5211C82.7506 60.1211 83.5306 59.9211 84.3386 59.9211C85.7306 59.9211 86.8226 60.3411 87.6146 61.1811C88.4066 62.0131 88.8026 63.1491 88.8026 64.5891V72.6411H85.6226V65.2731C85.6226 64.3931 85.4106 63.7251 84.9866 63.2691C84.5706 62.8131 83.9506 62.5851 83.1266 62.5851C82.3346 62.5851 81.6746 62.8891 81.1466 63.4971C80.6266 64.1051 80.3666 64.8451 80.3666 65.7171V72.6411H77.1866ZM97.2286 78.1971C96.3646 78.1971 95.5846 78.0891 94.8886 77.8731C94.2006 77.6651 93.5806 77.3531 93.0286 76.9371C92.4846 76.5291 92.0606 76.0771 91.7566 75.5811C91.4526 75.0931 91.3006 74.8491 91.3006 74.8491L93.7966 73.5651C93.7966 73.5651 93.9046 73.7331 94.1206 74.0691C94.3366 74.4051 94.5926 74.6971 94.8886 74.9451C95.1926 75.1931 95.5366 75.3811 95.9206 75.5091C96.3126 75.6371 96.7286 75.7011 97.1686 75.7011C98.2966 75.7011 99.1566 75.3811 99.7486 74.7411C100.341 74.1091 100.637 73.2291 100.637 72.1011V70.8531H100.553C100.121 71.4451 99.5606 71.9091 98.8726 72.2451C98.1846 72.5811 97.4126 72.7491 96.5566 72.7491C94.9086 72.7491 93.5486 72.1691 92.4766 71.0091C91.4046 69.8491 90.8686 68.2931 90.8686 66.3411C90.8686 64.4291 91.4206 62.8811 92.5246 61.6971C93.6366 60.5131 95.0246 59.9211 96.6886 59.9211C97.5126 59.9211 98.2726 60.0931 98.9686 60.4371C99.6726 60.7731 100.229 61.2371 100.637 61.8291H101.429L100.709 62.6331V60.3171H103.745V71.9451C103.745 73.9531 103.165 75.4971 102.005 76.5771C100.845 77.6571 99.2526 78.1971 97.2286 78.1971ZM97.3366 70.0851C98.3046 70.0851 99.1046 69.7411 99.7366 69.0531C100.369 68.3571 100.685 67.4371 100.685 66.2931C100.685 65.1651 100.369 64.2651 99.7366 63.5931C99.1046 62.9131 98.3046 62.5731 97.3366 62.5731C96.3686 62.5731 95.5646 62.9131 94.9246 63.5931C94.2846 64.2651 93.9646 65.1731 93.9646 66.3171C93.9646 67.5011 94.2806 68.4251 94.9126 69.0891C95.5446 69.7531 96.3526 70.0851 97.3366 70.0851ZM113.719 67.1811C113.143 67.1811 112.655 66.9851 112.255 66.5931C111.855 66.2011 111.655 65.7171 111.655 65.1411C111.655 64.5731 111.855 64.0931 112.255 63.7011C112.655 63.3091 113.143 63.1131 113.719 63.1131C114.295 63.1131 114.779 63.3091 115.171 63.7011C115.571 64.0931 115.771 64.5731 115.771 65.1411C115.771 65.7171 115.571 66.2011 115.171 66.5931C114.779 66.9851 114.295 67.1811 113.719 67.1811ZM124.023 72.6411V55.4571H127.239V69.6291H134.619V72.6411H124.023ZM136.803 72.6411V60.3171H139.983V72.6411H136.803ZM138.399 58.2291C137.879 58.2291 137.435 58.0491 137.067 57.6891C136.707 57.3291 136.527 56.8891 136.527 56.3691C136.527 55.8411 136.707 55.4051 137.067 55.0611C137.435 54.7091 137.879 54.5331 138.399 54.5331C138.927 54.5331 139.367 54.7091 139.719 55.0611C140.071 55.4051 140.247 55.8411 140.247 56.3691C140.247 56.8891 140.071 57.3291 139.719 57.6891C139.367 58.0491 138.927 58.2291 138.399 58.2291ZM146.503 72.6411L141.583 60.3171H144.871L147.823 68.3211L148.135 69.2931H148.207L148.543 68.3091L151.483 60.3171H154.711L149.683 72.6411H146.503ZM161.19 73.0371C159.286 73.0371 157.746 72.4211 156.57 71.1891C155.394 69.9571 154.806 68.3851 154.806 66.4731C154.806 64.5851 155.394 63.0211 156.57 61.7811C157.746 60.5411 159.254 59.9211 161.094 59.9211C162.886 59.9211 164.346 60.4731 165.474 61.5771C166.61 62.6811 167.178 64.0851 167.178 65.7891V67.0971H156.402V65.2851H164.166C164.118 64.4611 163.818 63.7891 163.266 63.2691C162.722 62.7411 161.998 62.4771 161.094 62.4771C160.118 62.4771 159.33 62.8291 158.73 63.5331C158.138 64.2291 157.842 65.1851 157.842 66.4011C157.842 67.6731 158.182 68.6851 158.862 69.4371C159.55 70.1811 160.43 70.5531 161.502 70.5531C161.998 70.5531 162.43 70.4851 162.798 70.3491C163.166 70.2131 163.498 70.0291 163.794 69.7971C164.098 69.5651 164.442 69.1891 164.826 68.6691L166.866 70.0611C166.346 70.8611 165.818 71.4571 165.282 71.8491C164.754 72.2411 164.17 72.5371 163.53 72.7371C162.89 72.9371 162.11 73.0371 161.19 73.0371ZM175.046 72.6411V55.4571H181.514C183.13 55.4571 184.498 55.9571 185.618 56.9571C186.746 57.9491 187.31 59.2491 187.31 60.8571C187.31 62.4171 186.766 63.6971 185.678 64.6971C184.59 65.6971 183.158 66.1971 181.382 66.1971H176.462V63.7371H181.238C182.022 63.7371 182.69 63.4811 183.242 62.9691C183.802 62.4491 184.082 61.7811 184.082 60.9651C184.082 60.2291 183.814 59.6091 183.278 59.1051C182.75 58.5931 182.106 58.3371 181.346 58.3371H178.262V72.6411H175.046ZM184.586 72.6411L179.51 64.8771L182.93 64.7451L188.366 72.6411H184.586ZM195.128 73.0371C193.224 73.0371 191.684 72.4211 190.508 71.1891C189.332 69.9571 188.744 68.3851 188.744 66.4731C188.744 64.5851 189.332 63.0211 190.508 61.7811C191.684 60.5411 193.192 59.9211 195.032 59.9211C196.824 59.9211 198.284 60.4731 199.412 61.5771C200.548 62.6811 201.116 64.0851 201.116 65.7891V67.0971H190.34V65.2851H198.104C198.056 64.4611 197.756 63.7891 197.204 63.2691C196.66 62.7411 195.936 62.4771 195.032 62.4771C194.056 62.4771 193.268 62.8291 192.668 63.5331C192.076 64.2291 191.78 65.1851 191.78 66.4011C191.78 67.6731 192.12 68.6851 192.8 69.4371C193.488 70.1811 194.368 70.5531 195.44 70.5531C195.936 70.5531 196.368 70.4851 196.736 70.3491C197.104 70.2131 197.436 70.0291 197.732 69.7971C198.036 69.5651 198.38 69.1891 198.764 68.6691L200.804 70.0611C200.284 70.8611 199.756 71.4571 199.22 71.8491C198.692 72.2411 198.108 72.5371 197.468 72.7371C196.828 72.9371 196.048 73.0371 195.128 73.0371ZM207.059 73.0371C205.707 73.0371 204.615 72.6651 203.783 71.9211C202.959 71.1771 202.547 70.2051 202.547 69.0051C202.547 67.7491 203.031 66.7531 203.999 66.0171C204.975 65.2731 206.239 64.9011 207.791 64.9011C208.431 64.9011 209.043 64.9691 209.627 65.1051C210.211 65.2331 210.703 65.3971 211.103 65.5971V64.8651C211.103 64.0971 210.835 63.4851 210.299 63.0291C209.763 62.5731 209.055 62.3451 208.175 62.3451C207.663 62.3451 207.227 62.4011 206.867 62.5131C206.515 62.6251 206.187 62.7731 205.883 62.9571C205.587 63.1331 205.319 63.3371 205.079 63.5691C204.839 63.7931 204.719 63.9051 204.719 63.9051L202.967 62.2011C202.967 62.2011 203.159 62.0331 203.543 61.6971C203.935 61.3531 204.367 61.0491 204.839 60.7851C205.311 60.5131 205.839 60.3011 206.423 60.1491C207.015 59.9971 207.691 59.9211 208.451 59.9211C210.243 59.9211 211.639 60.3571 212.639 61.2291C213.647 62.0931 214.151 63.3131 214.151 64.8891V72.6411H211.115V69.9291L211.907 71.0331H211.031C210.663 71.6251 210.127 72.1091 209.423 72.4851C208.719 72.8531 207.931 73.0371 207.059 73.0371ZM207.887 70.8171C208.807 70.8171 209.571 70.4931 210.179 69.8451C210.787 69.1891 211.095 68.3531 211.103 67.3371V67.3251C210.759 67.1251 210.355 66.9651 209.891 66.8451C209.427 66.7171 208.931 66.6531 208.403 66.6531C207.547 66.6531 206.855 66.8331 206.327 67.1931C205.807 67.5531 205.547 68.0971 205.547 68.8251C205.547 69.4411 205.763 69.9291 206.195 70.2891C206.627 70.6411 207.191 70.8171 207.887 70.8171ZM221.984 73.0371C220.32 73.0371 218.94 72.4371 217.844 71.2371C216.756 70.0291 216.212 68.4531 216.212 66.5091C216.212 64.5731 216.768 62.9931 217.88 61.7691C218.992 60.5451 220.4 59.9331 222.104 59.9331C222.928 59.9331 223.688 60.1131 224.384 60.4731C225.08 60.8251 225.604 61.2891 225.956 61.8651H226.016V55.4571H229.172V72.6411H226.136V70.5531L226.448 71.0091L226.064 71.0211C225.688 71.6371 225.132 72.1291 224.396 72.4971C223.668 72.8571 222.864 73.0371 221.984 73.0371ZM222.704 70.3491C223.672 70.3491 224.48 69.9851 225.128 69.2571C225.784 68.5291 226.112 67.6051 226.112 66.4851C226.112 65.3491 225.78 64.4251 225.116 63.7131C224.46 63.0011 223.656 62.6451 222.704 62.6451C221.752 62.6451 220.944 63.0011 220.28 63.7131C219.624 64.4251 219.296 65.3491 219.296 66.4851C219.296 67.6131 219.624 68.5411 220.28 69.2691C220.936 69.9891 221.744 70.3491 222.704 70.3491ZM232.24 72.6411V60.3171H235.42V72.6411H232.24ZM233.836 58.2291C233.316 58.2291 232.872 58.0491 232.504 57.6891C232.144 57.3291 231.964 56.8891 231.964 56.3691C231.964 55.8411 232.144 55.4051 232.504 55.0611C232.872 54.7091 233.316 54.5331 233.836 54.5331C234.364 54.5331 234.804 54.7091 235.156 55.0611C235.508 55.4051 235.684 55.8411 235.684 56.3691C235.684 56.8891 235.508 57.3291 235.156 57.6891C234.804 58.0491 234.364 58.2291 233.836 58.2291ZM238.46 72.6411V60.3171H241.496V62.5611L241.148 62.1171H241.58C241.964 61.4531 242.528 60.9211 243.272 60.5211C244.024 60.1211 244.804 59.9211 245.612 59.9211C247.004 59.9211 248.096 60.3411 248.888 61.1811C249.68 62.0131 250.076 63.1491 250.076 64.5891V72.6411H246.896V65.2731C246.896 64.3931 246.684 63.7251 246.26 63.2691C245.844 62.8131 245.224 62.5851 244.4 62.5851C243.608 62.5851 242.948 62.8891 242.42 63.4971C241.9 64.1051 241.64 64.8451 241.64 65.7171V72.6411H238.46ZM258.502 78.1971C257.638 78.1971 256.858 78.0891 256.162 77.8731C255.474 77.6651 254.854 77.3531 254.302 76.9371C253.758 76.5291 253.334 76.0771 253.03 75.5811C252.726 75.0931 252.574 74.8491 252.574 74.8491L255.07 73.5651C255.07 73.5651 255.178 73.7331 255.394 74.0691C255.61 74.4051 255.866 74.6971 256.162 74.9451C256.466 75.1931 256.81 75.3811 257.194 75.5091C257.586 75.6371 258.002 75.7011 258.442 75.7011C259.57 75.7011 260.43 75.3811 261.022 74.7411C261.614 74.1091 261.91 73.2291 261.91 72.1011V70.8531H261.826C261.394 71.4451 260.834 71.9091 260.146 72.2451C259.458 72.5811 258.686 72.7491 257.83 72.7491C256.182 72.7491 254.822 72.1691 253.75 71.0091C252.678 69.8491 252.142 68.2931 252.142 66.3411C252.142 64.4291 252.694 62.8811 253.798 61.6971C254.91 60.5131 256.298 59.9211 257.962 59.9211C258.786 59.9211 259.546 60.0931 260.242 60.4371C260.946 60.7731 261.502 61.2371 261.91 61.8291H262.702L261.982 62.6331V60.3171H265.018V71.9451C265.018 73.9531 264.438 75.4971 263.278 76.5771C262.118 77.6571 260.526 78.1971 258.502 78.1971ZM258.61 70.0851C259.578 70.0851 260.378 69.7411 261.01 69.0531C261.642 68.3571 261.958 67.4371 261.958 66.2931C261.958 65.1651 261.642 64.2651 261.01 63.5931C260.378 62.9131 259.578 62.5731 258.61 62.5731C257.642 62.5731 256.838 62.9131 256.198 63.5931C255.558 64.2651 255.238 65.1731 255.238 66.3171C255.238 67.5011 255.554 68.4251 256.186 69.0891C256.818 69.7531 257.626 70.0851 258.61 70.0851Z" fill="white"/>
<path d="M37.3267 99.1291C36.4067 99.1291 35.6307 98.8131 34.9987 98.1811C34.3667 97.5411 34.0507 96.7611 34.0507 95.8411C34.0507 94.9451 34.3667 94.1811 34.9987 93.5491C35.6307 92.9171 36.4067 92.6011 37.3267 92.6011C38.2467 92.6011 39.0227 92.9171 39.6547 93.5491C40.2947 94.1811 40.6147 94.9451 40.6147 95.8411C40.6147 96.7611 40.2947 97.5411 39.6547 98.1811C39.0227 98.8131 38.2467 99.1291 37.3267 99.1291ZM62.3159 104.037C61.2759 104.037 60.3519 103.877 59.5439 103.557C58.7359 103.229 58.0639 102.777 57.5279 102.201C56.9919 101.625 56.5879 101.017 56.3159 100.377C56.0439 99.7291 55.9079 99.4051 55.9079 99.4051L58.7279 98.2651C58.7279 98.2651 58.8199 98.4891 59.0039 98.9371C59.1959 99.3771 59.4519 99.7811 59.7719 100.149C60.0999 100.509 60.4919 100.789 60.9479 100.989C61.4039 101.181 61.9159 101.277 62.4839 101.277C63.3399 101.277 64.0359 101.061 64.5719 100.629C65.1079 100.189 65.3759 99.6091 65.3759 98.8891C65.3759 98.2651 65.0799 97.7331 64.4879 97.2931C63.9039 96.8531 62.8999 96.4011 61.4759 95.9371C59.7239 95.3611 58.4639 94.6691 57.6959 93.8611C56.9279 93.0531 56.5439 92.0531 56.5439 90.8611C56.5439 89.4851 57.0839 88.3411 58.1639 87.4291C59.2439 86.5171 60.6359 86.0611 62.3399 86.0611C63.2439 86.0611 64.0519 86.1891 64.7639 86.4451C65.4839 86.7011 66.0999 87.0731 66.6119 87.5611C67.1239 88.0411 67.4959 88.5211 67.7279 89.0011C67.9679 89.4731 68.0879 89.7091 68.0879 89.7091L65.3519 90.8371C65.3519 90.8371 65.2839 90.7051 65.1479 90.4411C65.0119 90.1691 64.7999 89.8971 64.5119 89.6251C64.2239 89.3531 63.8919 89.1491 63.5159 89.0131C63.1399 88.8691 62.7119 88.7971 62.2319 88.7971C61.4799 88.7971 60.8679 88.9731 60.3959 89.3251C59.9319 89.6771 59.6999 90.1411 59.6999 90.7171C59.6999 91.2291 59.9119 91.6731 60.3359 92.0491C60.7679 92.4251 61.8239 92.8811 63.5039 93.4171C65.2319 93.9531 66.4999 94.6731 67.3079 95.5771C68.1239 96.4731 68.5319 97.5451 68.5319 98.7931C68.5319 100.393 67.9479 101.669 66.7799 102.621C65.6199 103.565 64.1319 104.037 62.3159 104.037ZM70.7178 103.641V86.4571H73.8978V103.641H70.7178ZM76.967 103.641V91.3171H80.147V103.641H76.967ZM78.563 89.2291C78.043 89.2291 77.599 89.0491 77.231 88.6891C76.871 88.3291 76.691 87.8891 76.691 87.3691C76.691 86.8411 76.871 86.4051 77.231 86.0611C77.599 85.7091 78.043 85.5331 78.563 85.5331C79.091 85.5331 79.531 85.7091 79.883 86.0611C80.235 86.4051 80.411 86.8411 80.411 87.3691C80.411 87.8891 80.235 88.3291 79.883 88.6891C79.531 89.0491 79.091 89.2291 78.563 89.2291ZM88.8146 109.197C87.9506 109.197 87.1706 109.089 86.4746 108.873C85.7866 108.665 85.1666 108.353 84.6146 107.937C84.0706 107.529 83.6466 107.077 83.3426 106.581C83.0386 106.093 82.8866 105.849 82.8866 105.849L85.3826 104.565C85.3826 104.565 85.4906 104.733 85.7066 105.069C85.9226 105.405 86.1786 105.697 86.4746 105.945C86.7786 106.193 87.1226 106.381 87.5066 106.509C87.8986 106.637 88.3146 106.701 88.7546 106.701C89.8826 106.701 90.7426 106.381 91.3346 105.741C91.9266 105.109 92.2226 104.229 92.2226 103.101V101.853H92.1386C91.7066 102.445 91.1466 102.909 90.4586 103.245C89.7706 103.581 88.9986 103.749 88.1426 103.749C86.4946 103.749 85.1346 103.169 84.0626 102.009C82.9906 100.849 82.4546 99.2931 82.4546 97.3411C82.4546 95.4291 83.0066 93.8811 84.1106 92.6971C85.2226 91.5131 86.6106 90.9211 88.2746 90.9211C89.0986 90.9211 89.8586 91.0931 90.5546 91.4371C91.2586 91.7731 91.8146 92.2371 92.2226 92.8291H93.0146L92.2946 93.6331V91.3171H95.3306V102.945C95.3306 104.953 94.7506 106.497 93.5906 107.577C92.4306 108.657 90.8386 109.197 88.8146 109.197ZM88.9226 101.085C89.8906 101.085 90.6906 100.741 91.3226 100.053C91.9546 99.3571 92.2706 98.4371 92.2706 97.2931C92.2706 96.1651 91.9546 95.2651 91.3226 94.5931C90.6906 93.9131 89.8906 93.5731 88.9226 93.5731C87.9546 93.5731 87.1506 93.9131 86.5106 94.5931C85.8706 95.2651 85.5506 96.1731 85.5506 97.3171C85.5506 98.5011 85.8666 99.4251 86.4986 100.089C87.1306 100.753 87.9386 101.085 88.9226 101.085ZM98.2569 103.641V86.4571H101.401V93.1291H101.473C101.833 92.4651 102.365 91.9331 103.069 91.5331C103.781 91.1251 104.561 90.9211 105.409 90.9211C106.801 90.9211 107.893 91.3451 108.685 92.1931C109.477 93.0331 109.873 94.1651 109.873 95.5891V103.641H106.693V96.2731C106.693 95.4091 106.481 94.7451 106.057 94.2811C105.633 93.8091 105.029 93.5731 104.245 93.5731C103.469 93.5731 102.805 93.8891 102.253 94.5211C101.709 95.1531 101.437 95.9051 101.437 96.7771V103.641H98.2569ZM117.568 104.037C116.352 104.037 115.392 103.705 114.688 103.041C113.992 102.369 113.644 101.389 113.644 100.101V87.9451H116.812V99.6091C116.812 100.233 116.94 100.693 117.196 100.989C117.452 101.285 117.828 101.437 118.324 101.445C118.476 101.445 118.632 101.429 118.792 101.397C118.96 101.365 119.168 101.309 119.416 101.229C119.672 101.149 119.8 101.109 119.8 101.109V103.665C119.8 103.665 119.656 103.705 119.368 103.785C119.088 103.865 118.808 103.925 118.528 103.965C118.256 104.013 117.936 104.037 117.568 104.037ZM111.712 93.8251V91.3171H119.764V93.8251H111.712ZM122.14 103.641V86.4571H125.32V103.641H122.14ZM129.085 108.825C129.085 108.825 129.081 108.825 129.073 108.825C129.073 108.825 129.077 108.825 129.085 108.825L132.181 102.093L132.229 103.653L126.817 91.3171H130.129L133.057 98.4931L133.405 99.5731H133.477L133.837 98.4811L136.633 91.3171H139.861L132.397 108.825H129.085ZM152.331 104.037C150.427 104.037 148.887 103.421 147.711 102.189C146.535 100.957 145.947 99.3851 145.947 97.4731C145.947 95.5851 146.535 94.0211 147.711 92.7811C148.887 91.5411 150.395 90.9211 152.235 90.9211C154.027 90.9211 155.487 91.4731 156.615 92.5771C157.751 93.6811 158.319 95.0851 158.319 96.7891V98.0971H147.543V96.2851H155.307C155.259 95.4611 154.959 94.7891 154.407 94.2691C153.863 93.7411 153.139 93.4771 152.235 93.4771C151.259 93.4771 150.471 93.8291 149.871 94.5331C149.279 95.2291 148.983 96.1851 148.983 97.4011C148.983 98.6731 149.323 99.6851 150.003 100.437C150.691 101.181 151.571 101.553 152.643 101.553C153.139 101.553 153.571 101.485 153.939 101.349C154.307 101.213 154.639 101.029 154.935 100.797C155.239 100.565 155.583 100.189 155.967 99.6691L158.007 101.061C157.487 101.861 156.959 102.457 156.423 102.849C155.895 103.241 155.311 103.537 154.671 103.737C154.031 103.937 153.251 104.037 152.331 104.037ZM160.53 103.641V86.4571H163.71V103.641H160.53ZM172.3 104.037C170.396 104.037 168.856 103.421 167.68 102.189C166.504 100.957 165.916 99.3851 165.916 97.4731C165.916 95.5851 166.504 94.0211 167.68 92.7811C168.856 91.5411 170.364 90.9211 172.204 90.9211C173.996 90.9211 175.456 91.4731 176.584 92.5771C177.72 93.6811 178.288 95.0851 178.288 96.7891V98.0971H167.512V96.2851H175.276C175.228 95.4611 174.928 94.7891 174.376 94.2691C173.832 93.7411 173.108 93.4771 172.204 93.4771C171.228 93.4771 170.44 93.8291 169.84 94.5331C169.248 95.2291 168.952 96.1851 168.952 97.4011C168.952 98.6731 169.292 99.6851 169.972 100.437C170.66 101.181 171.54 101.553 172.612 101.553C173.108 101.553 173.54 101.485 173.908 101.349C174.276 101.213 174.608 101.029 174.904 100.797C175.208 100.565 175.552 100.189 175.936 99.6691L177.976 101.061C177.456 101.861 176.928 102.457 176.392 102.849C175.864 103.241 175.28 103.537 174.64 103.737C174 103.937 173.22 104.037 172.3 104.037ZM183.581 103.641L178.661 91.3171H181.949L184.901 99.3211L185.213 100.293H185.285L185.621 99.3091L188.561 91.3171H191.789L186.761 103.641H183.581ZM196.536 104.037C195.184 104.037 194.092 103.665 193.26 102.921C192.436 102.177 192.024 101.205 192.024 100.005C192.024 98.7491 192.508 97.7531 193.476 97.0171C194.452 96.2731 195.716 95.9011 197.268 95.9011C197.908 95.9011 198.52 95.9691 199.104 96.1051C199.688 96.2331 200.18 96.3971 200.58 96.5971V95.8651C200.58 95.0971 200.312 94.4851 199.776 94.0291C199.24 93.5731 198.532 93.3451 197.652 93.3451C197.14 93.3451 196.704 93.4011 196.344 93.5131C195.992 93.6251 195.664 93.7731 195.36 93.9571C195.064 94.1331 194.796 94.3371 194.556 94.5691C194.316 94.7931 194.196 94.9051 194.196 94.9051L192.444 93.2011C192.444 93.2011 192.636 93.0331 193.02 92.6971C193.412 92.3531 193.844 92.0491 194.316 91.7851C194.788 91.5131 195.316 91.3011 195.9 91.1491C196.492 90.9971 197.168 90.9211 197.928 90.9211C199.72 90.9211 201.116 91.3571 202.116 92.2291C203.124 93.0931 203.628 94.3131 203.628 95.8891V103.641H200.592V100.929L201.384 102.033H200.508C200.14 102.625 199.604 103.109 198.9 103.485C198.196 103.853 197.408 104.037 196.536 104.037ZM197.364 101.817C198.284 101.817 199.048 101.493 199.656 100.845C200.264 100.189 200.572 99.3531 200.58 98.3371V98.3251C200.236 98.1251 199.832 97.9651 199.368 97.8451C198.904 97.7171 198.408 97.6531 197.88 97.6531C197.024 97.6531 196.332 97.8331 195.804 98.1931C195.284 98.5531 195.024 99.0971 195.024 99.8251C195.024 100.441 195.24 100.929 195.672 101.289C196.104 101.641 196.668 101.817 197.364 101.817ZM210.943 104.037C209.727 104.037 208.767 103.705 208.063 103.041C207.367 102.369 207.019 101.389 207.019 100.101V87.9451H210.187V99.6091C210.187 100.233 210.315 100.693 210.571 100.989C210.827 101.285 211.203 101.437 211.699 101.445C211.851 101.445 212.007 101.429 212.167 101.397C212.335 101.365 212.543 101.309 212.791 101.229C213.047 101.149 213.175 101.109 213.175 101.109V103.665C213.175 103.665 213.031 103.705 212.743 103.785C212.463 103.865 212.183 103.925 211.903 103.965C211.631 104.013 211.311 104.037 210.943 104.037ZM205.087 93.8251V91.3171H213.139V93.8251H205.087ZM221.096 104.037C219.192 104.037 217.652 103.421 216.476 102.189C215.3 100.957 214.712 99.3851 214.712 97.4731C214.712 95.5851 215.3 94.0211 216.476 92.7811C217.652 91.5411 219.16 90.9211 221 90.9211C222.792 90.9211 224.252 91.4731 225.38 92.5771C226.516 93.6811 227.084 95.0851 227.084 96.7891V98.0971H216.308V96.2851H224.072C224.024 95.4611 223.724 94.7891 223.172 94.2691C222.628 93.7411 221.904 93.4771 221 93.4771C220.024 93.4771 219.236 93.8291 218.636 94.5331C218.044 95.2291 217.748 96.1851 217.748 97.4011C217.748 98.6731 218.088 99.6851 218.768 100.437C219.456 101.181 220.336 101.553 221.408 101.553C221.904 101.553 222.336 101.485 222.704 101.349C223.072 101.213 223.404 101.029 223.7 100.797C224.004 100.565 224.348 100.189 224.732 99.6691L226.772 101.061C226.252 101.861 225.724 102.457 225.188 102.849C224.66 103.241 224.076 103.537 223.436 103.737C222.796 103.937 222.016 104.037 221.096 104.037ZM234.336 104.037C232.672 104.037 231.292 103.437 230.196 102.237C229.108 101.029 228.564 99.4531 228.564 97.5091C228.564 95.5731 229.12 93.9931 230.232 92.7691C231.344 91.5451 232.752 90.9331 234.456 90.9331C235.28 90.9331 236.04 91.1131 236.736 91.4731C237.432 91.8251 237.956 92.2891 238.308 92.8651H238.368V86.4571H241.524V103.641H238.488V101.553L238.8 102.009L238.416 102.021C238.04 102.637 237.484 103.129 236.748 103.497C236.02 103.857 235.216 104.037 234.336 104.037ZM235.056 101.349C236.024 101.349 236.832 100.985 237.48 100.257C238.136 99.5291 238.464 98.6051 238.464 97.4851C238.464 96.3491 238.132 95.4251 237.468 94.7131C236.812 94.0011 236.008 93.6451 235.056 93.6451C234.104 93.6451 233.296 94.0011 232.632 94.7131C231.976 95.4251 231.648 96.3491 231.648 97.4851C231.648 98.6131 231.976 99.5411 232.632 100.269C233.288 100.989 234.096 101.349 235.056 101.349Z" fill="#EC928E"/>
<g style="mix-blend-mode:screen">
<g clip-path="url(#clip0_5_361)">
<path d="M12 188.95C12 166.859 29.9086 148.95 52 148.95H478C500.091 148.95 518 166.859 518 188.95V327.694C518 349.785 500.091 367.694 478 367.694H52C29.9086 367.694 12 349.785 12 327.694V188.95Z" fill="black"/>
</g>
<path d="M52 149.95H478C499.539 149.95 517 167.411 517 188.95V327.694C517 349.233 499.539 366.694 478 366.694H52C30.461 366.694 13.0001 349.233 13 327.694V188.95C13 167.411 30.4609 149.95 52 149.95Z" stroke="#606460" stroke-width="2" stroke-linecap="round"/>
</g>
<defs>
<clipPath id="clip0_5_361">
<path d="M12 188.95C12 166.859 29.9086 148.95 52 148.95H478C500.091 148.95 518 166.859 518 188.95V327.694C518 349.785 500.091 367.694 478 367.694H52C29.9086 367.694 12 349.785 12 327.694V188.95Z" fill="white"/>
</clipPath>
</defs>
</svg>
