<svg width="498" height="62" viewBox="0 0 498 62" fill="none" xmlns="http://www.w3.org/2000/svg">
<rect width="498" height="62" rx="12" fill="black" fill-opacity="0.2"/>
<path d="M23.41 40.462C20.5167 40.462 18.062 39.4773 16.046 37.508C14.0393 35.5387 13.036 33.0187 13.036 29.948C13.036 26.8773 14.0487 24.3667 16.074 22.416C18.0993 20.4653 20.5447 19.49 23.41 19.49C26.2753 19.49 28.7207 20.47 30.746 22.43C32.7713 24.39 33.784 26.896 33.784 29.948C33.784 32.9813 32.776 35.492 30.76 37.48C28.7533 39.468 26.3033 40.462 23.41 40.462ZM23.41 36.836C25.2953 36.836 26.8633 36.1873 28.114 34.89C29.374 33.5833 30.004 31.936 30.004 29.948C30.004 27.9507 29.3693 26.3127 28.1 25.034C26.84 23.7553 25.2767 23.116 23.41 23.116C21.5527 23.116 19.9893 23.76 18.72 25.048C17.46 26.3267 16.83 27.96 16.83 29.948C16.83 31.9453 17.4553 33.5927 18.706 34.89C19.966 36.1873 21.534 36.836 23.41 36.836ZM40.6134 40L34.8734 25.608H38.7094L42.1534 34.946L42.5034 36.08H42.5874L42.9794 34.932L46.4094 25.608H50.1754L44.3234 40H40.6134ZM57.7356 40.462C55.5236 40.462 53.7269 39.7433 52.3456 38.306C50.9643 36.8593 50.2736 35.0253 50.2736 32.804C50.2736 30.6013 50.9596 28.7767 52.3316 27.33C53.7129 25.8833 55.4816 25.16 57.6376 25.16C59.7189 25.16 61.4223 25.804 62.7476 27.092C64.0729 28.38 64.7356 30.0227 64.7356 32.02V33.532H52.1356V31.418H61.2356C61.1703 30.4567 60.8156 29.6727 60.1716 29.066C59.5276 28.45 58.6783 28.142 57.6236 28.142C56.4943 28.142 55.5749 28.5527 54.8656 29.374C54.1656 30.186 53.8156 31.3013 53.8156 32.72C53.8156 34.204 54.2123 35.3847 55.0056 36.262C55.8083 37.13 56.8349 37.564 58.0856 37.564C58.6643 37.564 59.1683 37.4847 59.5976 37.326C60.0363 37.158 60.4283 36.9387 60.7736 36.668C61.1283 36.388 61.5296 35.9447 61.9776 35.338L64.3716 36.962C63.7649 37.9047 63.1489 38.6047 62.5236 39.062C61.9076 39.5193 61.2216 39.8647 60.4656 40.098C59.7189 40.3407 58.8089 40.462 57.7356 40.462ZM67.2604 40V25.608H70.8024V28.296L70.3964 27.848H70.8864C71.1757 27.064 71.6984 26.42 72.4544 25.916C73.2104 25.412 74.0084 25.16 74.8484 25.16C75.0911 25.16 75.3431 25.1833 75.6044 25.23C75.8751 25.2673 76.1177 25.3233 76.3324 25.398C76.5471 25.4633 76.6544 25.496 76.6544 25.496V29.024C76.6544 29.024 76.5097 28.9773 76.2204 28.884C75.9404 28.7813 75.6371 28.6973 75.3104 28.632C74.9837 28.5667 74.6897 28.534 74.4284 28.534C73.4391 28.534 72.6131 28.898 71.9504 29.626C71.2971 30.354 70.9704 31.2827 70.9704 32.412V40H67.2604ZM78.7721 40V19.952H82.4821V40H78.7721ZM90.2495 40.462C88.6722 40.462 87.3982 40.028 86.4275 39.16C85.4662 38.292 84.9855 37.158 84.9855 35.758C84.9855 34.2927 85.5502 33.1307 86.6795 32.272C87.8182 31.404 89.2928 30.97 91.1035 30.97C91.8502 30.97 92.5642 31.0447 93.2455 31.194C93.9268 31.3433 94.5008 31.5393 94.9675 31.782V30.928C94.9675 30.032 94.6548 29.318 94.0295 28.786C93.4042 28.254 92.5782 27.988 91.5515 27.988C90.9635 27.988 90.4595 28.0533 90.0395 28.184C89.6288 28.3053 89.2462 28.4733 88.8915 28.688C88.5462 28.9027 88.2288 29.1453 87.9395 29.416C87.6595 29.6773 87.5195 29.808 87.5195 29.808L85.4615 27.834C85.4615 27.834 85.6902 27.6333 86.1475 27.232C86.6048 26.8307 87.1088 26.476 87.6595 26.168C88.2102 25.8507 88.8262 25.6033 89.5075 25.426C90.1982 25.2487 90.9915 25.16 91.8875 25.16C93.9688 25.16 95.5928 25.6687 96.7595 26.686C97.9355 27.694 98.5235 29.1127 98.5235 30.942V40H94.9815V36.836L95.9055 38.11H94.8975C94.4682 38.8007 93.8382 39.3653 93.0075 39.804C92.1862 40.2427 91.2668 40.462 90.2495 40.462ZM91.2155 37.858C92.2888 37.858 93.1802 37.48 93.8895 36.724C94.5988 35.9587 94.9582 34.988 94.9675 33.812C94.5662 33.5693 94.0902 33.378 93.5395 33.238C92.9982 33.098 92.4242 33.028 91.8175 33.028C90.8188 33.028 90.0115 33.238 89.3955 33.658C88.7888 34.0687 88.4855 34.694 88.4855 35.534C88.4855 36.262 88.7375 36.8313 89.2415 37.242C89.7455 37.6527 90.4035 37.858 91.2155 37.858ZM102.119 46.02L105.717 38.222L105.759 40.028L99.4593 25.608H103.323L106.753 34.036L107.145 35.268H107.229L107.649 34.022L110.911 25.608H114.691L105.997 46.02H102.119Z" fill="white"/>
<rect x="145" y="5" width="340" height="52" rx="26" stroke="white" stroke-width="2"/>
<path d="M172 8H287C299.703 8 310 18.2975 310 31C310 43.7025 299.703 54 287 54H172C159.297 54 149 43.7025 149 31C149 18.496 158.978 8.32274 171.406 8.00781L172 8Z" fill="black" fill-opacity="0.2"/>
<path d="M172 8H287C299.703 8 310 18.2975 310 31C310 43.7025 299.703 54 287 54H172C159.297 54 149 43.7025 149 31C149 18.496 158.978 8.32274 171.406 8.00781L172 8Z" stroke="#ACCBFF" stroke-width="2" stroke-linecap="round"/>
<path d="M219.792 39.396C217.32 39.396 215.22 38.552 213.492 36.864C211.764 35.176 210.9 33.016 210.9 30.384C210.9 27.752 211.768 25.6 213.504 23.928C215.24 22.256 217.336 21.42 219.792 21.42C222.24 21.42 224.332 22.26 226.068 23.94C227.812 25.62 228.684 27.768 228.684 30.384C228.684 32.984 227.82 35.136 226.092 36.84C224.372 38.544 222.272 39.396 219.792 39.396ZM219.792 36.3C221.408 36.3 222.752 35.744 223.824 34.632C224.904 33.512 225.444 32.096 225.444 30.384C225.444 28.664 224.9 27.256 223.812 26.16C222.732 25.064 221.392 24.516 219.792 24.516C218.192 24.516 216.848 25.068 215.76 26.172C214.68 27.276 214.14 28.68 214.14 30.384C214.14 32.096 214.676 33.512 215.748 34.632C216.828 35.744 218.176 36.3 219.792 36.3ZM231.058 39V26.676H234.094V28.92L233.746 28.476H234.178C234.562 27.812 235.126 27.28 235.87 26.88C236.622 26.48 237.402 26.28 238.21 26.28C239.602 26.28 240.694 26.7 241.486 27.54C242.278 28.372 242.674 29.508 242.674 30.948V39H239.494V31.632C239.494 30.752 239.282 30.084 238.858 29.628C238.442 29.172 237.822 28.944 236.998 28.944C236.206 28.944 235.546 29.248 235.018 29.856C234.498 30.464 234.238 31.204 234.238 32.076V39H231.058Z" fill="white"/>
<path d="M343 8H458C470.703 8 481 18.2975 481 31C481 43.7025 470.703 54 458 54H343C330.297 54 320 43.7025 320 31C320 18.496 329.978 8.32274 342.406 8.00781L343 8Z" fill="#ACCBFF"/>
<path d="M343 8H458C470.703 8 481 18.2975 481 31C481 43.7025 470.703 54 458 54H343C330.297 54 320 43.7025 320 31C320 18.496 329.978 8.32274 342.406 8.00781L343 8Z" stroke="#ACCBFF" stroke-width="2" stroke-linecap="round"/>
<path d="M389.792 39.396C387.32 39.396 385.22 38.552 383.492 36.864C381.764 35.176 380.9 33.016 380.9 30.384C380.9 27.752 381.768 25.6 383.504 23.928C385.24 22.256 387.336 21.42 389.792 21.42C392.24 21.42 394.332 22.26 396.068 23.94C397.812 25.62 398.684 27.768 398.684 30.384C398.684 32.984 397.82 35.136 396.092 36.84C394.372 38.544 392.272 39.396 389.792 39.396ZM389.792 36.3C391.408 36.3 392.752 35.744 393.824 34.632C394.904 33.512 395.444 32.096 395.444 30.384C395.444 28.664 394.9 27.256 393.812 26.16C392.732 25.064 391.392 24.516 389.792 24.516C388.192 24.516 386.848 25.068 385.76 26.172C384.68 27.276 384.14 28.68 384.14 30.384C384.14 32.096 384.676 33.512 385.748 34.632C386.828 35.744 388.176 36.3 389.792 36.3ZM402.068 39V25.5C402.068 24.268 402.452 23.28 403.22 22.536C403.996 21.792 405.036 21.42 406.34 21.42C406.636 21.42 406.924 21.44 407.204 21.48C407.492 21.512 407.768 21.56 408.032 21.624C408.304 21.688 408.44 21.72 408.44 21.72V24.264C408.44 24.264 408.348 24.24 408.164 24.192C407.98 24.144 407.78 24.104 407.564 24.072C407.356 24.04 407.128 24.024 406.88 24.024C406.408 24.024 406.016 24.164 405.704 24.444C405.4 24.724 405.248 25.132 405.248 25.668V27.516V28.032V39H402.068ZM410.3 39V25.5C410.3 24.268 410.684 23.28 411.452 22.536C412.228 21.792 413.268 21.42 414.572 21.42C414.868 21.42 415.156 21.44 415.436 21.48C415.724 21.512 416 21.56 416.264 21.624C416.536 21.688 416.672 21.72 416.672 21.72V24.264C416.672 24.264 416.58 24.24 416.396 24.192C416.212 24.144 416.012 24.104 415.796 24.072C415.588 24.04 415.36 24.024 415.112 24.024C414.64 24.024 414.248 24.164 413.936 24.444C413.632 24.724 413.48 25.132 413.48 25.668V27.516V28.032V39H410.3ZM400.076 29.184V26.676H403.652V29.184H400.076ZM411.86 29.184V26.676H416.252V29.184H411.86ZM403.616 29.184V26.688H411.86V29.184H403.616Z" fill="black" fill-opacity="0.2"/>
</svg>
