<svg width="530" height="111" viewBox="0 0 530 111" fill="none" xmlns="http://www.w3.org/2000/svg">
<path d="M40 1H490C511.539 1 529 18.4609 529 40V71C529 92.5391 511.539 110 490 110H40C18.4609 110 1 92.5391 1 71V40C1 18.4609 18.4609 1 40 1Z" fill="#ACCBFF"/>
<path d="M40 1H490C511.539 1 529 18.4609 529 40V71C529 92.5391 511.539 110 490 110H40C18.4609 110 1 92.5391 1 71V40C1 18.4609 18.4609 1 40 1Z" stroke="#606460" stroke-width="2" stroke-linecap="round"/>
<path fill-rule="evenodd" clip-rule="evenodd" d="M52 27.5C67.464 27.5 80 40.036 80 55.5C80 70.964 67.464 83.5 52 83.5C36.536 83.5 24 70.964 24 55.5C24 40.036 36.536 27.5 52 27.5ZM45.8974 60.0475C44.279 60.0475 42.7272 60.6859 41.5827 61.8227C40.4384 62.9596 39.795 64.5016 39.7949 66.1094C39.7949 66.1094 39.7949 67.9572 39.7949 69.141H64.2051V66.1094C64.2051 63.3974 63.5617 62.9596 62.4173 61.8227C61.2728 60.6859 59.721 60.0475 58.1026 60.0475H45.8974ZM52 41.859C48.6296 41.859 45.8974 44.574 45.8974 47.9223C45.8978 51.2703 48.6299 53.9842 52 53.9842C55.3701 53.9842 58.1022 51.2703 58.1026 47.9223C58.1026 44.574 55.3704 41.859 52 41.859Z" fill="white"/>
<path d="M98.1 48V27.952H105.576C107.629 27.952 109.291 28.568 110.56 29.8C111.829 31.0227 112.464 32.67 112.464 34.742C112.464 36.8047 111.801 38.4287 110.476 39.614C109.16 40.79 107.503 41.378 105.506 41.378H100.158V38.13H105.282C106.299 38.13 107.121 37.8267 107.746 37.22C108.381 36.604 108.698 35.792 108.698 34.784C108.698 33.7573 108.385 32.9267 107.76 32.292C107.144 31.6573 106.341 31.34 105.352 31.34H101.852V48H98.1ZM118.714 48.462C117.137 48.462 115.863 48.028 114.892 47.16C113.931 46.292 113.45 45.158 113.45 43.758C113.45 42.2927 114.015 41.1307 115.144 40.272C116.283 39.404 117.758 38.97 119.568 38.97C120.315 38.97 121.029 39.0447 121.71 39.194C122.392 39.3433 122.966 39.5393 123.432 39.782V38.928C123.432 38.032 123.12 37.318 122.494 36.786C121.869 36.254 121.043 35.988 120.016 35.988C119.428 35.988 118.924 36.0533 118.504 36.184C118.094 36.3053 117.711 36.4733 117.356 36.688C117.011 36.9027 116.694 37.1453 116.404 37.416C116.124 37.6773 115.984 37.808 115.984 37.808L113.926 35.834C113.926 35.834 114.155 35.6333 114.612 35.232C115.07 34.8307 115.574 34.476 116.124 34.168C116.675 33.8507 117.291 33.6033 117.972 33.426C118.663 33.2487 119.456 33.16 120.352 33.16C122.434 33.16 124.058 33.6687 125.224 34.686C126.4 35.694 126.988 37.1127 126.988 38.942V48H123.446V44.836L124.37 46.11H123.362C122.933 46.8007 122.303 47.3653 121.472 47.804C120.651 48.2427 119.732 48.462 118.714 48.462ZM119.68 45.858C120.754 45.858 121.645 45.48 122.354 44.724C123.064 43.9587 123.423 42.988 123.432 41.812C123.031 41.5693 122.555 41.378 122.004 41.238C121.463 41.098 120.889 41.028 120.282 41.028C119.284 41.028 118.476 41.238 117.86 41.658C117.254 42.0687 116.95 42.694 116.95 43.534C116.95 44.262 117.202 44.8313 117.706 45.242C118.21 45.6527 118.868 45.858 119.68 45.858ZM135.494 48.462C134.076 48.462 132.956 48.0747 132.134 47.3C131.322 46.5253 130.916 45.382 130.916 43.87V29.688H134.612V43.296C134.612 44.024 134.762 44.5607 135.06 44.906C135.359 45.2513 135.798 45.424 136.376 45.424C136.554 45.424 136.736 45.41 136.922 45.382C137.118 45.3447 137.361 45.2793 137.65 45.186C137.94 45.0927 138.084 45.046 138.084 45.046V48.014C138.084 48.014 137.916 48.0607 137.58 48.154C137.254 48.2567 136.927 48.3313 136.6 48.378C136.283 48.434 135.914 48.462 135.494 48.462ZM128.662 36.548V33.608H138.056V36.548H128.662ZM140.956 48V33.608H144.666V48H140.956ZM142.818 31.214C142.202 31.214 141.684 31.004 141.264 30.584C140.844 30.1547 140.634 29.6413 140.634 29.044C140.634 28.4187 140.844 27.9053 141.264 27.504C141.693 27.0933 142.211 26.888 142.818 26.888C143.434 26.888 143.947 27.0933 144.358 27.504C144.768 27.9053 144.974 28.4187 144.974 29.044C144.974 29.6413 144.768 30.1547 144.358 30.584C143.947 31.004 143.434 31.214 142.818 31.214ZM154.806 48.462C152.594 48.462 150.797 47.7433 149.416 46.306C148.035 44.8593 147.344 43.0253 147.344 40.804C147.344 38.6013 148.03 36.7767 149.402 35.33C150.783 33.8833 152.552 33.16 154.708 33.16C156.789 33.16 158.493 33.804 159.818 35.092C161.143 36.38 161.806 38.0227 161.806 40.02V41.532H149.206V39.418H158.306C158.241 38.4567 157.886 37.6727 157.242 37.066C156.598 36.45 155.749 36.142 154.694 36.142C153.565 36.142 152.645 36.5527 151.936 37.374C151.236 38.186 150.886 39.3013 150.886 40.72C150.886 42.204 151.283 43.3847 152.076 44.262C152.879 45.13 153.905 45.564 155.156 45.564C155.735 45.564 156.239 45.4847 156.668 45.326C157.107 45.158 157.499 44.9387 157.844 44.668C158.199 44.388 158.6 43.9447 159.048 43.338L161.442 44.962C160.835 45.9047 160.219 46.6047 159.594 47.062C158.978 47.5193 158.292 47.8647 157.536 48.098C156.789 48.3407 155.879 48.462 154.806 48.462ZM164.331 48V33.608H167.887V36.226L167.467 35.722H167.971C168.419 34.938 169.077 34.3173 169.945 33.86C170.822 33.3933 171.732 33.16 172.675 33.16C174.299 33.16 175.573 33.6453 176.497 34.616C177.43 35.5867 177.897 36.912 177.897 38.592V48H174.187V39.404C174.187 38.3867 173.939 37.612 173.445 37.08C172.95 36.5387 172.222 36.268 171.261 36.268C170.346 36.268 169.581 36.6227 168.965 37.332C168.349 38.032 168.041 38.8907 168.041 39.908V48H164.331ZM186.818 48.462C185.4 48.462 184.28 48.0747 183.458 47.3C182.646 46.5253 182.24 45.382 182.24 43.87V29.688H185.936V43.296C185.936 44.024 186.086 44.5607 186.384 44.906C186.683 45.2513 187.122 45.424 187.7 45.424C187.878 45.424 188.06 45.41 188.246 45.382C188.442 45.3447 188.685 45.2793 188.974 45.186C189.264 45.0927 189.408 45.046 189.408 45.046V48.014C189.408 48.014 189.24 48.0607 188.904 48.154C188.578 48.2567 188.251 48.3313 187.924 48.378C187.607 48.434 187.238 48.462 186.818 48.462ZM179.986 36.548V33.608H189.38V36.548H179.986ZM204.213 48.462C202.272 48.462 200.662 47.762 199.383 46.362C198.104 44.9527 197.465 43.1093 197.465 40.832C197.465 38.5827 198.114 36.744 199.411 35.316C200.718 33.888 202.365 33.174 204.353 33.174C205.314 33.174 206.201 33.384 207.013 33.804C207.834 34.2147 208.45 34.756 208.861 35.428L208.931 35.414V27.952H212.599V48H209.071V45.564L209.421 46.082L208.987 46.096C208.558 46.8147 207.914 47.3887 207.055 47.818C206.196 48.2473 205.249 48.462 204.213 48.462ZM205.053 45.326C206.182 45.326 207.125 44.9013 207.881 44.052C208.646 43.2027 209.029 42.12 209.029 40.804C209.029 39.488 208.646 38.4147 207.881 37.584C207.116 36.7533 206.173 36.338 205.053 36.338C203.942 36.338 203 36.7533 202.225 37.584C201.46 38.4053 201.077 39.4833 201.077 40.818C201.077 42.134 201.455 43.2167 202.211 44.066C202.976 44.906 203.924 45.326 205.053 45.326ZM220.378 48.462C218.801 48.462 217.527 48.028 216.556 47.16C215.595 46.292 215.114 45.158 215.114 43.758C215.114 42.2927 215.679 41.1307 216.808 40.272C217.947 39.404 219.422 38.97 221.232 38.97C221.979 38.97 222.693 39.0447 223.374 39.194C224.056 39.3433 224.63 39.5393 225.096 39.782V38.928C225.096 38.032 224.784 37.318 224.158 36.786C223.533 36.254 222.707 35.988 221.68 35.988C221.092 35.988 220.588 36.0533 220.168 36.184C219.758 36.3053 219.375 36.4733 219.02 36.688C218.675 36.9027 218.358 37.1453 218.068 37.416C217.788 37.6773 217.648 37.808 217.648 37.808L215.59 35.834C215.59 35.834 215.819 35.6333 216.276 35.232C216.734 34.8307 217.238 34.476 217.788 34.168C218.339 33.8507 218.955 33.6033 219.636 33.426C220.327 33.2487 221.12 33.16 222.016 33.16C224.098 33.16 225.722 33.6687 226.888 34.686C228.064 35.694 228.652 37.1127 228.652 38.942V48H225.11V44.836L226.034 46.11H225.026C224.597 46.8007 223.967 47.3653 223.136 47.804C222.315 48.2427 221.396 48.462 220.378 48.462ZM221.344 45.858C222.418 45.858 223.309 45.48 224.018 44.724C224.728 43.9587 225.087 42.988 225.096 41.812C224.695 41.5693 224.219 41.378 223.668 41.238C223.127 41.098 222.553 41.028 221.946 41.028C220.948 41.028 220.14 41.238 219.524 41.658C218.918 42.0687 218.614 42.694 218.614 43.534C218.614 44.262 218.866 44.8313 219.37 45.242C219.874 45.6527 220.532 45.858 221.344 45.858ZM237.158 48.462C235.74 48.462 234.62 48.0747 233.798 47.3C232.986 46.5253 232.58 45.382 232.58 43.87V29.688H236.276V43.296C236.276 44.024 236.426 44.5607 236.724 44.906C237.023 45.2513 237.462 45.424 238.04 45.424C238.218 45.424 238.4 45.41 238.586 45.382C238.782 45.3447 239.025 45.2793 239.314 45.186C239.604 45.0927 239.748 45.046 239.748 45.046V48.014C239.748 48.014 239.58 48.0607 239.244 48.154C238.918 48.2567 238.591 48.3313 238.264 48.378C237.947 48.434 237.578 48.462 237.158 48.462ZM230.326 36.548V33.608H239.72V36.548H230.326ZM246.82 48.462C245.242 48.462 243.968 48.028 242.998 47.16C242.036 46.292 241.556 45.158 241.556 43.758C241.556 42.2927 242.12 41.1307 243.25 40.272C244.388 39.404 245.863 38.97 247.674 38.97C248.42 38.97 249.134 39.0447 249.816 39.194C250.497 39.3433 251.071 39.5393 251.538 39.782V38.928C251.538 38.032 251.225 37.318 250.6 36.786C249.974 36.254 249.148 35.988 248.122 35.988C247.534 35.988 247.03 36.0533 246.61 36.184C246.199 36.3053 245.816 36.4733 245.462 36.688C245.116 36.9027 244.799 37.1453 244.51 37.416C244.23 37.6773 244.09 37.808 244.09 37.808L242.032 35.834C242.032 35.834 242.26 35.6333 242.718 35.232C243.175 34.8307 243.679 34.476 244.23 34.168C244.78 33.8507 245.396 33.6033 246.078 33.426C246.768 33.2487 247.562 33.16 248.458 33.16C250.539 33.16 252.163 33.6687 253.33 34.686C254.506 35.694 255.094 37.1127 255.094 38.942V48H251.552V44.836L252.476 46.11H251.468C251.038 46.8007 250.408 47.3653 249.578 47.804C248.756 48.2427 247.837 48.462 246.82 48.462ZM247.786 45.858C248.859 45.858 249.75 45.48 250.46 44.724C251.169 43.9587 251.528 42.988 251.538 41.812C251.136 41.5693 250.66 41.378 250.11 41.238C249.568 41.098 248.994 41.028 248.388 41.028C247.389 41.028 246.582 41.238 245.966 41.658C245.359 42.0687 245.056 42.694 245.056 43.534C245.056 44.262 245.308 44.8313 245.812 45.242C246.316 45.6527 246.974 45.858 247.786 45.858Z" fill="white"/>
<path d="M97.8 83V65.816H101.016V79.988H108.396V83H97.8ZM114.415 83.396C113.063 83.396 111.971 83.024 111.139 82.28C110.315 81.536 109.903 80.564 109.903 79.364C109.903 78.108 110.387 77.112 111.355 76.376C112.331 75.632 113.595 75.26 115.147 75.26C115.787 75.26 116.399 75.328 116.983 75.464C117.567 75.592 118.059 75.756 118.459 75.956V75.224C118.459 74.456 118.191 73.844 117.655 73.388C117.119 72.932 116.411 72.704 115.531 72.704C115.019 72.704 114.583 72.76 114.223 72.872C113.871 72.984 113.543 73.132 113.239 73.316C112.943 73.492 112.675 73.696 112.435 73.928C112.195 74.152 112.075 74.264 112.075 74.264L110.323 72.56C110.323 72.56 110.515 72.392 110.899 72.056C111.291 71.712 111.723 71.408 112.195 71.144C112.667 70.872 113.195 70.66 113.779 70.508C114.371 70.356 115.047 70.28 115.807 70.28C117.599 70.28 118.995 70.716 119.995 71.588C121.003 72.452 121.507 73.672 121.507 75.248V83H118.471V80.288L119.263 81.392H118.387C118.019 81.984 117.483 82.468 116.779 82.844C116.075 83.212 115.287 83.396 114.415 83.396ZM115.243 81.176C116.163 81.176 116.927 80.852 117.535 80.204C118.143 79.548 118.451 78.712 118.459 77.696V77.684C118.115 77.484 117.711 77.324 117.247 77.204C116.783 77.076 116.287 77.012 115.759 77.012C114.903 77.012 114.211 77.192 113.683 77.552C113.163 77.912 112.903 78.456 112.903 79.184C112.903 79.8 113.119 80.288 113.551 80.648C113.983 81 114.547 81.176 115.243 81.176ZM128.908 83.396C128.06 83.396 127.316 83.304 126.676 83.12C126.044 82.936 125.476 82.664 124.972 82.304C124.476 81.944 124.072 81.548 123.76 81.116C123.456 80.684 123.304 80.468 123.304 80.468L125.392 78.968C125.392 78.968 125.508 79.124 125.74 79.436C125.972 79.74 126.248 80.012 126.568 80.252C126.896 80.484 127.256 80.66 127.648 80.78C128.048 80.9 128.516 80.96 129.052 80.96C129.716 80.96 130.24 80.844 130.624 80.612C131.008 80.372 131.2 80.02 131.2 79.556C131.2 79.18 131.032 78.88 130.696 78.656C130.36 78.432 129.576 78.18 128.344 77.9C126.752 77.54 125.6 77.044 124.888 76.412C124.184 75.772 123.832 74.968 123.832 74C123.832 72.88 124.308 71.98 125.26 71.3C126.212 70.62 127.4 70.28 128.824 70.28C129.552 70.28 130.208 70.356 130.792 70.508C131.384 70.66 131.912 70.884 132.376 71.18C132.84 71.476 133.216 71.796 133.504 72.14C133.792 72.476 133.936 72.644 133.936 72.644L131.92 74.144C131.92 74.144 131.82 74.032 131.62 73.808C131.42 73.584 131.172 73.384 130.876 73.208C130.588 73.032 130.268 72.904 129.916 72.824C129.564 72.744 129.196 72.704 128.812 72.704C128.22 72.704 127.74 72.824 127.372 73.064C127.004 73.296 126.82 73.576 126.82 73.904C126.82 74.256 126.976 74.548 127.288 74.78C127.608 75.012 128.412 75.28 129.7 75.584C131.308 75.944 132.46 76.44 133.156 77.072C133.86 77.696 134.212 78.476 134.212 79.412C134.212 80.604 133.724 81.568 132.748 82.304C131.772 83.032 130.492 83.396 128.908 83.396ZM141.15 83.396C139.934 83.396 138.974 83.064 138.27 82.4C137.574 81.728 137.226 80.748 137.226 79.46V67.304H140.394V78.968C140.394 79.592 140.522 80.052 140.778 80.348C141.034 80.644 141.41 80.796 141.906 80.804C142.058 80.804 142.214 80.788 142.374 80.756C142.542 80.724 142.75 80.668 142.998 80.588C143.254 80.508 143.382 80.468 143.382 80.468V83.024C143.382 83.024 143.238 83.064 142.95 83.144C142.67 83.224 142.39 83.284 142.11 83.324C141.838 83.372 141.518 83.396 141.15 83.396ZM135.294 73.184V70.676H143.346V73.184H135.294ZM155.482 83.396C154.042 83.396 152.918 82.984 152.11 82.16C151.31 81.328 150.91 80.156 150.91 78.644V70.676H154.09V78.128C154.09 79.024 154.298 79.712 154.714 80.192C155.13 80.672 155.722 80.912 156.49 80.912C157.306 80.912 157.986 80.604 158.53 79.988C159.074 79.372 159.346 78.62 159.346 77.732V70.676H162.526V83H159.526V79.868L160.978 81.32H159.454C159.102 81.928 158.57 82.428 157.858 82.82C157.154 83.204 156.362 83.396 155.482 83.396ZM165.456 88.16V70.676H168.492V73.076L167.784 72.284H168.564C168.94 71.692 169.492 71.212 170.22 70.844C170.948 70.468 171.764 70.28 172.668 70.28C174.332 70.28 175.712 70.88 176.808 72.08C177.904 73.272 178.452 74.848 178.452 76.808C178.452 78.728 177.9 80.308 176.796 81.548C175.7 82.78 174.312 83.396 172.632 83.396C171.776 83.396 170.992 83.228 170.28 82.892C169.576 82.548 169.052 82.096 168.708 81.536H168.636V88.16H165.456ZM171.948 80.696C172.916 80.696 173.724 80.336 174.372 79.616C175.02 78.888 175.344 77.96 175.344 76.832C175.344 75.688 175.016 74.76 174.36 74.048C173.704 73.336 172.9 72.98 171.948 72.98C170.996 72.98 170.188 73.336 169.524 74.048C168.868 74.76 168.54 75.688 168.54 76.832C168.54 77.952 168.868 78.876 169.524 79.604C170.18 80.332 170.988 80.696 171.948 80.696ZM185.684 83.396C184.02 83.396 182.64 82.796 181.544 81.596C180.456 80.388 179.912 78.812 179.912 76.868C179.912 74.932 180.468 73.352 181.58 72.128C182.692 70.904 184.1 70.292 185.804 70.292C186.628 70.292 187.388 70.472 188.084 70.832C188.78 71.184 189.304 71.648 189.656 72.224H189.716V65.816H192.872V83H189.836V80.912L190.148 81.368L189.764 81.38C189.388 81.996 188.832 82.488 188.096 82.856C187.368 83.216 186.564 83.396 185.684 83.396ZM186.404 80.708C187.372 80.708 188.18 80.344 188.828 79.616C189.484 78.888 189.812 77.964 189.812 76.844C189.812 75.708 189.48 74.784 188.816 74.072C188.16 73.36 187.356 73.004 186.404 73.004C185.452 73.004 184.644 73.36 183.98 74.072C183.324 74.784 182.996 75.708 182.996 76.844C182.996 77.972 183.324 78.9 183.98 79.628C184.636 80.348 185.444 80.708 186.404 80.708ZM199.54 83.396C198.188 83.396 197.096 83.024 196.264 82.28C195.44 81.536 195.028 80.564 195.028 79.364C195.028 78.108 195.512 77.112 196.48 76.376C197.456 75.632 198.72 75.26 200.272 75.26C200.912 75.26 201.524 75.328 202.108 75.464C202.692 75.592 203.184 75.756 203.584 75.956V75.224C203.584 74.456 203.316 73.844 202.78 73.388C202.244 72.932 201.536 72.704 200.656 72.704C200.144 72.704 199.708 72.76 199.348 72.872C198.996 72.984 198.668 73.132 198.364 73.316C198.068 73.492 197.8 73.696 197.56 73.928C197.32 74.152 197.2 74.264 197.2 74.264L195.448 72.56C195.448 72.56 195.64 72.392 196.024 72.056C196.416 71.712 196.848 71.408 197.32 71.144C197.792 70.872 198.32 70.66 198.904 70.508C199.496 70.356 200.172 70.28 200.932 70.28C202.724 70.28 204.12 70.716 205.12 71.588C206.128 72.452 206.632 73.672 206.632 75.248V83H203.596V80.288L204.388 81.392H203.512C203.144 81.984 202.608 82.468 201.904 82.844C201.2 83.212 200.412 83.396 199.54 83.396ZM200.368 81.176C201.288 81.176 202.052 80.852 202.66 80.204C203.268 79.548 203.576 78.712 203.584 77.696V77.684C203.24 77.484 202.836 77.324 202.372 77.204C201.908 77.076 201.412 77.012 200.884 77.012C200.028 77.012 199.336 77.192 198.808 77.552C198.288 77.912 198.028 78.456 198.028 79.184C198.028 79.8 198.244 80.288 198.676 80.648C199.108 81 199.672 81.176 200.368 81.176ZM213.947 83.396C212.731 83.396 211.771 83.064 211.067 82.4C210.371 81.728 210.023 80.748 210.023 79.46V67.304H213.191V78.968C213.191 79.592 213.319 80.052 213.575 80.348C213.831 80.644 214.207 80.796 214.703 80.804C214.855 80.804 215.011 80.788 215.171 80.756C215.339 80.724 215.547 80.668 215.795 80.588C216.051 80.508 216.179 80.468 216.179 80.468V83.024C216.179 83.024 216.035 83.064 215.747 83.144C215.467 83.224 215.187 83.284 214.907 83.324C214.635 83.372 214.315 83.396 213.947 83.396ZM208.091 73.184V70.676H216.143V73.184H208.091ZM224.1 83.396C222.196 83.396 220.656 82.78 219.48 81.548C218.304 80.316 217.716 78.744 217.716 76.832C217.716 74.944 218.304 73.38 219.48 72.14C220.656 70.9 222.164 70.28 224.004 70.28C225.796 70.28 227.256 70.832 228.384 71.936C229.52 73.04 230.088 74.444 230.088 76.148V77.456H219.312V75.644H227.076C227.028 74.82 226.728 74.148 226.176 73.628C225.632 73.1 224.908 72.836 224.004 72.836C223.028 72.836 222.24 73.188 221.64 73.892C221.048 74.588 220.752 75.544 220.752 76.76C220.752 78.032 221.092 79.044 221.772 79.796C222.46 80.54 223.34 80.912 224.412 80.912C224.908 80.912 225.34 80.844 225.708 80.708C226.076 80.572 226.408 80.388 226.704 80.156C227.008 79.924 227.352 79.548 227.736 79.028L229.776 80.42C229.256 81.22 228.728 81.816 228.192 82.208C227.664 82.6 227.08 82.896 226.44 83.096C225.8 83.296 225.02 83.396 224.1 83.396ZM237.34 83.396C235.676 83.396 234.296 82.796 233.2 81.596C232.112 80.388 231.568 78.812 231.568 76.868C231.568 74.932 232.124 73.352 233.236 72.128C234.348 70.904 235.756 70.292 237.46 70.292C238.284 70.292 239.044 70.472 239.74 70.832C240.436 71.184 240.96 71.648 241.312 72.224H241.372V65.816H244.528V83H241.492V80.912L241.804 81.368L241.42 81.38C241.044 81.996 240.488 82.488 239.752 82.856C239.024 83.216 238.22 83.396 237.34 83.396ZM238.06 80.708C239.028 80.708 239.836 80.344 240.484 79.616C241.14 78.888 241.468 77.964 241.468 76.844C241.468 75.708 241.136 74.784 240.472 74.072C239.816 73.36 239.012 73.004 238.06 73.004C237.108 73.004 236.3 73.36 235.636 74.072C234.98 74.784 234.652 75.708 234.652 76.844C234.652 77.972 234.98 78.9 235.636 79.628C236.292 80.348 237.1 80.708 238.06 80.708ZM259.144 83.396C257.072 83.396 255.42 82.568 254.188 80.912C252.964 79.256 252.352 77.084 252.352 74.396C252.352 71.716 252.964 69.552 254.188 67.904C255.42 66.248 257.072 65.42 259.144 65.42C261.232 65.42 262.892 66.248 264.124 67.904C265.364 69.552 265.984 71.716 265.984 74.396C265.984 77.084 265.364 79.256 264.124 80.912C262.892 82.568 261.232 83.396 259.144 83.396ZM259.156 80.348C260.316 80.348 261.204 79.824 261.82 78.776C262.444 77.728 262.756 76.268 262.756 74.396C262.756 72.532 262.444 71.08 261.82 70.04C261.204 68.992 260.316 68.468 259.156 68.468C258.012 68.468 257.128 68.992 256.504 70.04C255.888 71.08 255.58 72.532 255.58 74.396C255.58 76.26 255.888 77.72 256.504 78.776C257.128 79.824 258.012 80.348 259.156 80.348ZM268.02 83V80.348L273.54 74.576C274.34 73.752 274.908 73.04 275.244 72.44C275.58 71.84 275.748 71.26 275.748 70.7C275.748 70.012 275.536 69.464 275.112 69.056C274.696 68.648 274.128 68.444 273.408 68.444C272.992 68.444 272.632 68.512 272.328 68.648C272.032 68.776 271.756 68.968 271.5 69.224C271.244 69.48 271.012 69.784 270.804 70.136C270.604 70.488 270.504 70.664 270.504 70.664L267.864 69.404C267.864 69.404 268.012 69.104 268.308 68.504C268.612 67.896 269.004 67.364 269.484 66.908C269.972 66.452 270.544 66.092 271.2 65.828C271.864 65.556 272.672 65.42 273.624 65.42C275.184 65.42 276.472 65.88 277.488 66.8C278.504 67.712 279.012 68.92 279.012 70.424C279.012 71.304 278.784 72.192 278.328 73.088C277.872 73.976 277.148 74.912 276.156 75.896L272.088 80.072L272.112 80.144H279.264V83H268.02ZM280.433 83L285.881 65.816H288.785L283.361 83H280.433ZM293.463 83V69.92L291.051 71.66L289.335 69.5L294.543 65.816H296.667V83H293.463ZM307.137 83V78.308L307.341 77.6V68.588L308.817 69.764H307.281L302.529 76.916H308.433L309.285 76.844H312.225V79.664H299.397V77.192L306.969 65.816H310.341V83H307.137ZM313.362 83L318.81 65.816H321.714L316.29 83H313.362ZM322.84 83V80.348L328.36 74.576C329.16 73.752 329.728 73.04 330.064 72.44C330.4 71.84 330.568 71.26 330.568 70.7C330.568 70.012 330.356 69.464 329.932 69.056C329.516 68.648 328.948 68.444 328.228 68.444C327.812 68.444 327.452 68.512 327.148 68.648C326.852 68.776 326.576 68.968 326.32 69.224C326.064 69.48 325.832 69.784 325.624 70.136C325.424 70.488 325.324 70.664 325.324 70.664L322.684 69.404C322.684 69.404 322.832 69.104 323.128 68.504C323.432 67.896 323.824 67.364 324.304 66.908C324.792 66.452 325.364 66.092 326.02 65.828C326.684 65.556 327.492 65.42 328.444 65.42C330.004 65.42 331.292 65.88 332.308 66.8C333.324 67.712 333.832 68.92 333.832 70.424C333.832 71.304 333.604 72.192 333.148 73.088C332.692 73.976 331.968 74.912 330.976 75.896L326.908 80.072L326.932 80.144H334.084V83H322.84ZM342.201 83.372C340.377 83.372 338.885 82.812 337.725 81.692C336.573 80.564 335.997 79.14 335.997 77.42C335.997 76.236 336.293 75.1 336.885 74.012C337.485 72.924 338.225 71.788 339.105 70.604L343.017 65.252L345.597 67.028L341.529 72.44C341.161 72.896 340.493 73.464 339.525 74.144C338.565 74.824 337.937 75.916 337.641 77.42L336.345 77.372C336.577 75.62 337.365 74.272 338.709 73.328C340.053 72.376 341.533 71.9 343.149 71.9C344.637 71.9 345.889 72.412 346.905 73.436C347.921 74.46 348.429 75.756 348.429 77.324C348.429 79.044 347.837 80.484 346.653 81.644C345.477 82.796 343.993 83.372 342.201 83.372ZM342.237 80.456C343.125 80.456 343.849 80.176 344.409 79.616C344.969 79.048 345.249 78.324 345.249 77.444C345.249 76.588 344.965 75.876 344.397 75.308C343.837 74.74 343.121 74.456 342.249 74.456C341.369 74.456 340.637 74.74 340.053 75.308C339.469 75.876 339.177 76.592 339.177 77.456C339.177 78.328 339.465 79.048 340.041 79.616C340.617 80.176 341.349 80.456 342.237 80.456Z" fill="white"/>
</svg>
