<svg width="498" height="107" viewBox="0 0 498 107" fill="none" xmlns="http://www.w3.org/2000/svg">
<path d="M40 1H458C479.539 1.00001 497 18.4609 497 40V67C497 88.5391 479.539 106 458 106H40C18.4609 106 1 88.5391 1 67V40L1.0127 38.9932C1.53824 18.254 18.254 1.53825 38.9932 1.0127L40 1Z" fill="black" fill-opacity="0.2"/>
<path d="M40 1H458C479.539 1.00001 497 18.4609 497 40V67C497 88.5391 479.539 106 458 106H40C18.4609 106 1 88.5391 1 67V40L1.0127 38.9932C1.53824 18.254 18.254 1.53825 38.9932 1.0127L40 1Z" stroke="#606460" stroke-width="2" stroke-linecap="round"/>
<path d="M67.1989 58.7823C69.8673 61.4478 69.867 65.792 67.1989 68.4577C64.5304 71.1235 60.1808 71.1235 57.5122 68.4577L56.1338 67.0807C56.5323 65.8518 56.7453 64.5178 56.7228 63.1208C56.7228 57.5924 49.5091 49.2997 48.7173 48.4099C48.3221 47.9164 47.8279 47.7187 47.2352 47.7186C46.6422 47.7186 46.1469 48.0149 45.7516 48.4099C45.3942 48.8115 43.7314 50.7016 42.0118 53.1705L33.0108 44.1807L42.727 34.5347L67.1989 58.7823Z" fill="#ACCBFF"/>
<path d="M47.2352 52.754C49.9036 55.9133 52.8678 60.5533 52.868 63.219C52.868 64.3711 52.6467 65.4635 52.2608 66.4343C52.0909 66.6651 51.9763 66.9178 51.9201 67.1789C50.9018 69.128 49.1681 70.4262 47.2352 70.4265C44.1713 70.4265 41.601 67.1682 41.601 63.219C41.6012 60.5532 44.6655 56.012 47.2352 52.754Z" fill="#ACCBFF"/>
<path fill-rule="evenodd" clip-rule="evenodd" d="M52 25.5C67.464 25.5 80 38.036 80 53.5C80 68.964 67.464 81.5 52 81.5C36.536 81.5 24 68.964 24 53.5C24 38.036 36.536 25.5 52 25.5ZM45.9493 28.5709C45.1588 27.7818 43.9732 27.7817 43.1827 28.5709L41.3121 30.4373C41.309 30.4403 41.3067 30.4441 41.3037 30.4471L28.9485 42.7883C28.9417 42.7951 28.9356 42.8024 28.9289 42.8093L27.0723 44.6645C26.2816 45.4543 26.2816 46.6398 27.0723 47.4297C27.4676 47.8244 27.9623 48.0214 28.4563 48.0214C28.9502 48.0213 29.4443 47.8242 29.7408 47.4297L30.2792 46.894L39.8818 56.5681C38.6651 58.7803 37.7462 61.1137 37.7462 63.1208C37.7463 69.2419 41.997 74.1789 47.2352 74.1789C49.9682 74.1787 52.4568 72.8324 54.2001 70.6775L54.7456 71.223C56.8209 73.2959 59.489 74.382 62.256 74.3822C65.0233 74.3822 67.6923 73.2961 69.7678 71.223C73.9189 67.0763 73.9189 60.2633 69.7678 56.1166L45.4529 31.8283L45.9493 31.3361C46.74 30.5463 46.74 29.3608 45.9493 28.5709Z" fill="#ACCBFF"/>
<path d="M101.244 44V28.388H104.46V44H101.244ZM96.516 29.816V26.816H109.164V29.816H96.516ZM114.671 44.396C112.767 44.396 111.227 43.78 110.051 42.548C108.875 41.316 108.287 39.744 108.287 37.832C108.287 35.944 108.875 34.38 110.051 33.14C111.227 31.9 112.735 31.28 114.575 31.28C116.367 31.28 117.827 31.832 118.955 32.936C120.091 34.04 120.659 35.444 120.659 37.148V38.456H109.883V36.644H117.647C117.599 35.82 117.299 35.148 116.747 34.628C116.203 34.1 115.479 33.836 114.575 33.836C113.599 33.836 112.811 34.188 112.211 34.892C111.619 35.588 111.323 36.544 111.323 37.76C111.323 39.032 111.663 40.044 112.343 40.796C113.031 41.54 113.911 41.912 114.983 41.912C115.479 41.912 115.911 41.844 116.279 41.708C116.647 41.572 116.979 41.388 117.275 41.156C117.579 40.924 117.923 40.548 118.307 40.028L120.347 41.42C119.827 42.22 119.299 42.816 118.763 43.208C118.235 43.6 117.651 43.896 117.011 44.096C116.371 44.296 115.591 44.396 114.671 44.396ZM127.478 44.396C126.63 44.396 125.886 44.304 125.246 44.12C124.614 43.936 124.046 43.664 123.542 43.304C123.046 42.944 122.642 42.548 122.33 42.116C122.026 41.684 121.874 41.468 121.874 41.468L123.962 39.968C123.962 39.968 124.078 40.124 124.31 40.436C124.542 40.74 124.818 41.012 125.138 41.252C125.466 41.484 125.826 41.66 126.218 41.78C126.618 41.9 127.086 41.96 127.622 41.96C128.286 41.96 128.81 41.844 129.194 41.612C129.578 41.372 129.77 41.02 129.77 40.556C129.77 40.18 129.602 39.88 129.266 39.656C128.93 39.432 128.146 39.18 126.914 38.9C125.322 38.54 124.17 38.044 123.458 37.412C122.754 36.772 122.402 35.968 122.402 35C122.402 33.88 122.878 32.98 123.83 32.3C124.782 31.62 125.97 31.28 127.394 31.28C128.122 31.28 128.778 31.356 129.362 31.508C129.954 31.66 130.482 31.884 130.946 32.18C131.41 32.476 131.786 32.796 132.074 33.14C132.362 33.476 132.506 33.644 132.506 33.644L130.49 35.144C130.49 35.144 130.39 35.032 130.19 34.808C129.99 34.584 129.742 34.384 129.446 34.208C129.158 34.032 128.838 33.904 128.486 33.824C128.134 33.744 127.766 33.704 127.382 33.704C126.79 33.704 126.31 33.824 125.942 34.064C125.574 34.296 125.39 34.576 125.39 34.904C125.39 35.256 125.546 35.548 125.858 35.78C126.178 36.012 126.982 36.28 128.27 36.584C129.878 36.944 131.03 37.44 131.726 38.072C132.43 38.696 132.782 39.476 132.782 40.412C132.782 41.604 132.294 42.568 131.318 43.304C130.342 44.032 129.062 44.396 127.478 44.396ZM139.72 44.396C138.504 44.396 137.544 44.064 136.84 43.4C136.144 42.728 135.796 41.748 135.796 40.46V28.304H138.964V39.968C138.964 40.592 139.092 41.052 139.348 41.348C139.604 41.644 139.98 41.796 140.476 41.804C140.628 41.804 140.784 41.788 140.944 41.756C141.112 41.724 141.32 41.668 141.568 41.588C141.824 41.508 141.952 41.468 141.952 41.468V44.024C141.952 44.024 141.808 44.064 141.52 44.144C141.24 44.224 140.96 44.284 140.68 44.324C140.408 44.372 140.088 44.396 139.72 44.396ZM133.864 34.184V31.676H141.916V34.184H133.864ZM149.612 44V31.676H152.648V33.992L152.288 33.596H152.72C152.96 32.924 153.404 32.372 154.052 31.94C154.7 31.5 155.388 31.28 156.116 31.28C156.332 31.28 156.552 31.3 156.776 31.34C157.008 31.372 157.216 31.42 157.4 31.484C157.584 31.54 157.676 31.568 157.676 31.568V34.604C157.676 34.604 157.552 34.564 157.304 34.484C157.064 34.396 156.8 34.324 156.512 34.268C156.232 34.212 155.976 34.184 155.744 34.184C154.896 34.184 154.192 34.496 153.632 35.12C153.072 35.744 152.792 36.54 152.792 37.508V44H149.612ZM164.686 44.396C162.782 44.396 161.242 43.78 160.066 42.548C158.89 41.316 158.302 39.744 158.302 37.832C158.302 35.944 158.89 34.38 160.066 33.14C161.242 31.9 162.75 31.28 164.59 31.28C166.382 31.28 167.842 31.832 168.97 32.936C170.106 34.04 170.674 35.444 170.674 37.148V38.456H159.898V36.644H167.662C167.614 35.82 167.314 35.148 166.762 34.628C166.218 34.1 165.494 33.836 164.59 33.836C163.614 33.836 162.826 34.188 162.226 34.892C161.634 35.588 161.338 36.544 161.338 37.76C161.338 39.032 161.678 40.044 162.358 40.796C163.046 41.54 163.926 41.912 164.998 41.912C165.494 41.912 165.926 41.844 166.294 41.708C166.662 41.572 166.994 41.388 167.29 41.156C167.594 40.924 167.938 40.548 168.322 40.028L170.362 41.42C169.842 42.22 169.314 42.816 168.778 43.208C168.25 43.6 167.666 43.896 167.026 44.096C166.386 44.296 165.606 44.396 164.686 44.396ZM177.494 44.396C176.646 44.396 175.902 44.304 175.262 44.12C174.63 43.936 174.062 43.664 173.558 43.304C173.062 42.944 172.658 42.548 172.346 42.116C172.042 41.684 171.89 41.468 171.89 41.468L173.978 39.968C173.978 39.968 174.094 40.124 174.326 40.436C174.558 40.74 174.834 41.012 175.154 41.252C175.482 41.484 175.842 41.66 176.234 41.78C176.634 41.9 177.102 41.96 177.638 41.96C178.302 41.96 178.826 41.844 179.21 41.612C179.594 41.372 179.786 41.02 179.786 40.556C179.786 40.18 179.618 39.88 179.282 39.656C178.946 39.432 178.162 39.18 176.93 38.9C175.338 38.54 174.186 38.044 173.474 37.412C172.77 36.772 172.418 35.968 172.418 35C172.418 33.88 172.894 32.98 173.846 32.3C174.798 31.62 175.986 31.28 177.41 31.28C178.138 31.28 178.794 31.356 179.378 31.508C179.97 31.66 180.498 31.884 180.962 32.18C181.426 32.476 181.802 32.796 182.09 33.14C182.378 33.476 182.522 33.644 182.522 33.644L180.506 35.144C180.506 35.144 180.406 35.032 180.206 34.808C180.006 34.584 179.758 34.384 179.462 34.208C179.174 34.032 178.854 33.904 178.502 33.824C178.15 33.744 177.782 33.704 177.398 33.704C176.806 33.704 176.326 33.824 175.958 34.064C175.59 34.296 175.406 34.576 175.406 34.904C175.406 35.256 175.562 35.548 175.874 35.78C176.194 36.012 176.998 36.28 178.286 36.584C179.894 36.944 181.046 37.44 181.742 38.072C182.446 38.696 182.798 39.476 182.798 40.412C182.798 41.604 182.31 42.568 181.334 43.304C180.358 44.032 179.078 44.396 177.494 44.396ZM189.279 44.396C187.839 44.396 186.715 43.984 185.907 43.16C185.107 42.328 184.707 41.156 184.707 39.644V31.676H187.887V39.128C187.887 40.024 188.095 40.712 188.511 41.192C188.927 41.672 189.519 41.912 190.287 41.912C191.103 41.912 191.783 41.604 192.327 40.988C192.871 40.372 193.143 39.62 193.143 38.732V31.676H196.323V44H193.323V40.868L194.775 42.32H193.251C192.899 42.928 192.367 43.428 191.655 43.82C190.951 44.204 190.159 44.396 189.279 44.396ZM199.253 44V26.816H202.433V44H199.253ZM210.29 44.396C209.074 44.396 208.114 44.064 207.41 43.4C206.714 42.728 206.366 41.748 206.366 40.46V28.304H209.534V39.968C209.534 40.592 209.662 41.052 209.918 41.348C210.174 41.644 210.55 41.796 211.046 41.804C211.198 41.804 211.354 41.788 211.514 41.756C211.682 41.724 211.89 41.668 212.138 41.588C212.394 41.508 212.522 41.468 212.522 41.468V44.024C212.522 44.024 212.378 44.064 212.09 44.144C211.81 44.224 211.53 44.284 211.25 44.324C210.978 44.372 210.658 44.396 210.29 44.396ZM204.434 34.184V31.676H212.486V34.184H204.434ZM219.47 44.396C218.622 44.396 217.878 44.304 217.238 44.12C216.606 43.936 216.038 43.664 215.534 43.304C215.038 42.944 214.634 42.548 214.322 42.116C214.018 41.684 213.866 41.468 213.866 41.468L215.954 39.968C215.954 39.968 216.07 40.124 216.302 40.436C216.534 40.74 216.81 41.012 217.13 41.252C217.458 41.484 217.818 41.66 218.21 41.78C218.61 41.9 219.078 41.96 219.614 41.96C220.278 41.96 220.802 41.844 221.186 41.612C221.57 41.372 221.762 41.02 221.762 40.556C221.762 40.18 221.594 39.88 221.258 39.656C220.922 39.432 220.138 39.18 218.906 38.9C217.314 38.54 216.162 38.044 215.45 37.412C214.746 36.772 214.394 35.968 214.394 35C214.394 33.88 214.87 32.98 215.822 32.3C216.774 31.62 217.962 31.28 219.386 31.28C220.114 31.28 220.77 31.356 221.354 31.508C221.946 31.66 222.474 31.884 222.938 32.18C223.402 32.476 223.778 32.796 224.066 33.14C224.354 33.476 224.498 33.644 224.498 33.644L222.482 35.144C222.482 35.144 222.382 35.032 222.182 34.808C221.982 34.584 221.734 34.384 221.438 34.208C221.15 34.032 220.83 33.904 220.478 33.824C220.126 33.744 219.758 33.704 219.374 33.704C218.782 33.704 218.302 33.824 217.934 34.064C217.566 34.296 217.382 34.576 217.382 34.904C217.382 35.256 217.538 35.548 217.85 35.78C218.17 36.012 218.974 36.28 220.262 36.584C221.87 36.944 223.022 37.44 223.718 38.072C224.422 38.696 224.774 39.476 224.774 40.412C224.774 41.604 224.286 42.568 223.31 43.304C222.334 44.032 221.054 44.396 219.47 44.396Z" fill="white"/>
<path d="M102.504 79.396C101.504 79.396 100.64 79.232 99.912 78.904C99.184 78.568 98.576 78.132 98.088 77.596C97.608 77.06 97.252 76.504 97.02 75.928C96.788 75.344 96.672 75.052 96.672 75.052L99.432 73.996C99.432 73.996 99.5 74.16 99.636 74.488C99.78 74.808 99.976 75.136 100.224 75.472C100.48 75.8 100.788 76.068 101.148 76.276C101.516 76.484 101.96 76.588 102.48 76.588C103.312 76.588 103.98 76.332 104.484 75.82C104.996 75.3 105.252 74.672 105.252 73.936C105.252 73.112 104.976 72.468 104.424 72.004C103.872 71.54 103.176 71.308 102.336 71.308H100.704V68.86H102.168C102.928 68.86 103.548 68.644 104.028 68.212C104.516 67.78 104.76 67.204 104.76 66.484C104.76 65.812 104.54 65.268 104.1 64.852C103.668 64.436 103.08 64.228 102.336 64.228C101.904 64.228 101.528 64.308 101.208 64.468C100.888 64.62 100.616 64.824 100.392 65.08C100.176 65.328 99.984 65.604 99.816 65.908C99.656 66.204 99.576 66.352 99.576 66.352L97.068 64.96C97.068 64.96 97.208 64.72 97.488 64.24C97.776 63.752 98.164 63.284 98.652 62.836C99.148 62.38 99.716 62.032 100.356 61.792C100.996 61.544 101.748 61.42 102.612 61.42C104.22 61.42 105.5 61.836 106.452 62.668C107.412 63.5 107.892 64.592 107.892 65.944C107.892 66.872 107.676 67.672 107.244 68.344C106.82 69.008 106.22 69.484 105.444 69.772V69.856C106.388 70.168 107.128 70.7 107.664 71.452C108.2 72.204 108.468 73.108 108.468 74.164C108.468 75.676 107.92 76.928 106.824 77.92C105.736 78.904 104.296 79.396 102.504 79.396ZM122.071 79.396C120.151 79.396 118.567 78.776 117.319 77.536C116.079 76.296 115.459 74.732 115.459 72.844C115.459 70.924 116.083 69.352 117.331 68.128C118.579 66.896 120.159 66.28 122.071 66.28C123.975 66.28 125.551 66.9 126.799 68.14C128.055 69.372 128.683 70.94 128.683 72.844C128.683 74.732 128.059 76.296 126.811 77.536C125.571 78.776 123.991 79.396 122.071 79.396ZM122.071 76.684C123.063 76.684 123.895 76.324 124.567 75.604C125.239 74.876 125.575 73.952 125.575 72.832C125.575 71.696 125.235 70.776 124.555 70.072C123.883 69.36 123.055 69.004 122.071 69.004C121.071 69.004 120.235 69.36 119.563 70.072C118.891 70.784 118.555 71.704 118.555 72.832C118.555 73.952 118.887 74.876 119.551 75.604C120.223 76.324 121.063 76.684 122.071 76.684ZM129.623 69.196V66.688H137.567V69.196H129.623ZM131.615 79V65.5C131.615 64.268 131.999 63.28 132.767 62.536C133.543 61.792 134.583 61.42 135.887 61.42C136.183 61.42 136.471 61.44 136.751 61.48C137.039 61.512 137.315 61.56 137.579 61.624C137.851 61.688 137.987 61.72 137.987 61.72V64.276C137.987 64.276 137.895 64.252 137.711 64.204C137.527 64.156 137.327 64.116 137.111 64.084C136.903 64.052 136.675 64.036 136.427 64.036C135.955 64.036 135.563 64.176 135.251 64.456C134.947 64.736 134.795 65.144 134.795 65.68V67.516V68.032V79H131.615ZM150.466 79.396C149.426 79.396 148.53 79.236 147.778 78.916C147.026 78.588 146.386 78.14 145.858 77.572C145.338 76.996 144.962 76.408 144.73 75.808C144.498 75.208 144.382 74.908 144.382 74.908L147.25 73.816C147.25 73.816 147.322 73.996 147.466 74.356C147.61 74.716 147.818 75.072 148.09 75.424C148.362 75.776 148.686 76.044 149.062 76.228C149.438 76.412 149.894 76.504 150.43 76.504C151.27 76.504 151.962 76.228 152.506 75.676C153.05 75.116 153.322 74.392 153.322 73.504C153.322 72.648 153.054 71.952 152.518 71.416C151.982 70.872 151.29 70.6 150.442 70.6C149.962 70.6 149.526 70.684 149.134 70.852C148.742 71.012 148.338 71.356 147.922 71.884L145.054 70.72L146.158 61.816H155.422V64.672H148.57L148.006 69.04L148.09 69.076C148.49 68.732 148.958 68.468 149.494 68.284C150.038 68.1 150.634 68.008 151.282 68.008C152.786 68.008 154.034 68.528 155.026 69.568C156.018 70.6 156.514 71.92 156.514 73.528C156.514 75.2 155.95 76.596 154.822 77.716C153.702 78.836 152.25 79.396 150.466 79.396ZM164.416 79V66.676H167.596V79H164.416ZM166.012 64.588C165.492 64.588 165.048 64.408 164.68 64.048C164.32 63.688 164.14 63.248 164.14 62.728C164.14 62.2 164.32 61.764 164.68 61.42C165.048 61.068 165.492 60.892 166.012 60.892C166.54 60.892 166.98 61.068 167.332 61.42C167.684 61.764 167.86 62.2 167.86 62.728C167.86 63.248 167.684 63.688 167.332 64.048C166.98 64.408 166.54 64.588 166.012 64.588ZM170.636 79V66.676H173.672V68.92L173.324 68.476H173.756C174.14 67.812 174.704 67.28 175.448 66.88C176.2 66.48 176.98 66.28 177.788 66.28C179.18 66.28 180.272 66.7 181.064 67.54C181.856 68.372 182.252 69.508 182.252 70.948V79H179.072V71.632C179.072 70.752 178.86 70.084 178.436 69.628C178.02 69.172 177.4 68.944 176.576 68.944C175.784 68.944 175.124 69.248 174.596 69.856C174.076 70.464 173.816 71.204 173.816 72.076V79H170.636ZM190.37 79V66.676H193.406V68.992L193.046 68.596H193.478C193.718 67.924 194.162 67.372 194.81 66.94C195.458 66.5 196.146 66.28 196.874 66.28C197.09 66.28 197.31 66.3 197.534 66.34C197.766 66.372 197.974 66.42 198.158 66.484C198.342 66.54 198.434 66.568 198.434 66.568V69.604C198.434 69.604 198.31 69.564 198.062 69.484C197.822 69.396 197.558 69.324 197.27 69.268C196.99 69.212 196.734 69.184 196.502 69.184C195.654 69.184 194.95 69.496 194.39 70.12C193.83 70.744 193.55 71.54 193.55 72.508V79H190.37ZM203.641 79.396C202.289 79.396 201.197 79.024 200.365 78.28C199.541 77.536 199.129 76.564 199.129 75.364C199.129 74.108 199.613 73.112 200.581 72.376C201.557 71.632 202.821 71.26 204.373 71.26C205.013 71.26 205.625 71.328 206.209 71.464C206.793 71.592 207.285 71.756 207.685 71.956V71.224C207.685 70.456 207.417 69.844 206.881 69.388C206.345 68.932 205.637 68.704 204.757 68.704C204.245 68.704 203.809 68.76 203.449 68.872C203.097 68.984 202.769 69.132 202.465 69.316C202.169 69.492 201.901 69.696 201.661 69.928C201.421 70.152 201.301 70.264 201.301 70.264L199.549 68.56C199.549 68.56 199.741 68.392 200.125 68.056C200.517 67.712 200.949 67.408 201.421 67.144C201.893 66.872 202.421 66.66 203.005 66.508C203.597 66.356 204.273 66.28 205.033 66.28C206.825 66.28 208.221 66.716 209.221 67.588C210.229 68.452 210.733 69.672 210.733 71.248V79H207.697V76.288L208.489 77.392H207.613C207.245 77.984 206.709 78.468 206.005 78.844C205.301 79.212 204.513 79.396 203.641 79.396ZM204.469 77.176C205.389 77.176 206.153 76.852 206.761 76.204C207.369 75.548 207.677 74.712 207.685 73.696V73.684C207.341 73.484 206.937 73.324 206.473 73.204C206.009 73.076 205.513 73.012 204.985 73.012C204.129 73.012 203.437 73.192 202.909 73.552C202.389 73.912 202.129 74.456 202.129 75.184C202.129 75.8 202.345 76.288 202.777 76.648C203.209 77 203.773 77.176 204.469 77.176ZM213.527 79V66.676H216.563V68.92L216.215 68.476H216.647C217.031 67.812 217.595 67.28 218.339 66.88C219.091 66.48 219.871 66.28 220.679 66.28C222.071 66.28 223.163 66.7 223.955 67.54C224.747 68.372 225.143 69.508 225.143 70.948V79H221.963V71.632C221.963 70.752 221.751 70.084 221.327 69.628C220.911 69.172 220.291 68.944 219.467 68.944C218.675 68.944 218.015 69.248 217.487 69.856C216.967 70.464 216.707 71.204 216.707 72.076V79H213.527ZM233.569 84.556C232.705 84.556 231.925 84.448 231.229 84.232C230.541 84.024 229.921 83.712 229.369 83.296C228.825 82.888 228.401 82.436 228.097 81.94C227.793 81.452 227.641 81.208 227.641 81.208L230.137 79.924C230.137 79.924 230.245 80.092 230.461 80.428C230.677 80.764 230.933 81.056 231.229 81.304C231.533 81.552 231.877 81.74 232.261 81.868C232.653 81.996 233.069 82.06 233.509 82.06C234.637 82.06 235.497 81.74 236.089 81.1C236.681 80.468 236.977 79.588 236.977 78.46V77.212H236.893C236.461 77.804 235.901 78.268 235.213 78.604C234.525 78.94 233.753 79.108 232.897 79.108C231.249 79.108 229.889 78.528 228.817 77.368C227.745 76.208 227.209 74.652 227.209 72.7C227.209 70.788 227.761 69.24 228.865 68.056C229.977 66.872 231.365 66.28 233.029 66.28C233.853 66.28 234.613 66.452 235.309 66.796C236.013 67.132 236.569 67.596 236.977 68.188H237.769L237.049 68.992V66.676H240.085V78.304C240.085 80.312 239.505 81.856 238.345 82.936C237.185 84.016 235.593 84.556 233.569 84.556ZM233.677 76.444C234.645 76.444 235.445 76.1 236.077 75.412C236.709 74.716 237.025 73.796 237.025 72.652C237.025 71.524 236.709 70.624 236.077 69.952C235.445 69.272 234.645 68.932 233.677 68.932C232.709 68.932 231.905 69.272 231.265 69.952C230.625 70.624 230.305 71.532 230.305 72.676C230.305 73.86 230.621 74.784 231.253 75.448C231.885 76.112 232.693 76.444 233.677 76.444ZM248.663 79.396C246.759 79.396 245.219 78.78 244.043 77.548C242.867 76.316 242.279 74.744 242.279 72.832C242.279 70.944 242.867 69.38 244.043 68.14C245.219 66.9 246.727 66.28 248.567 66.28C250.359 66.28 251.819 66.832 252.947 67.936C254.083 69.04 254.651 70.444 254.651 72.148V73.456H243.875V71.644H251.639C251.591 70.82 251.291 70.148 250.739 69.628C250.195 69.1 249.471 68.836 248.567 68.836C247.591 68.836 246.803 69.188 246.203 69.892C245.611 70.588 245.315 71.544 245.315 72.76C245.315 74.032 245.655 75.044 246.335 75.796C247.023 76.54 247.903 76.912 248.975 76.912C249.471 76.912 249.903 76.844 250.271 76.708C250.639 76.572 250.971 76.388 251.267 76.156C251.571 75.924 251.915 75.548 252.299 75.028L254.339 76.42C253.819 77.22 253.291 77.816 252.755 78.208C252.227 78.6 251.643 78.896 251.003 79.096C250.363 79.296 249.583 79.396 248.663 79.396ZM263.911 73.54C263.335 73.54 262.847 73.344 262.447 72.952C262.047 72.56 261.847 72.076 261.847 71.5C261.847 70.932 262.047 70.452 262.447 70.06C262.847 69.668 263.335 69.472 263.911 69.472C264.487 69.472 264.971 69.668 265.363 70.06C265.763 70.452 265.963 70.932 265.963 71.5C265.963 72.076 265.763 72.56 265.363 72.952C264.971 73.344 264.487 73.54 263.911 73.54ZM273.434 79V76.348L278.954 70.576C279.754 69.752 280.322 69.04 280.658 68.44C280.994 67.84 281.162 67.26 281.162 66.7C281.162 66.012 280.95 65.464 280.526 65.056C280.11 64.648 279.542 64.444 278.822 64.444C278.406 64.444 278.046 64.512 277.742 64.648C277.446 64.776 277.17 64.968 276.914 65.224C276.658 65.48 276.426 65.784 276.218 66.136C276.018 66.488 275.918 66.664 275.918 66.664L273.278 65.404C273.278 65.404 273.426 65.104 273.722 64.504C274.026 63.896 274.418 63.364 274.898 62.908C275.386 62.452 275.958 62.092 276.614 61.828C277.278 61.556 278.086 61.42 279.038 61.42C280.598 61.42 281.886 61.88 282.902 62.8C283.918 63.712 284.426 64.92 284.426 66.424C284.426 67.304 284.198 68.192 283.742 69.088C283.286 69.976 282.562 70.912 281.57 71.896L277.502 76.072L277.526 76.144H284.678V79H273.434ZM294.083 79V74.308L294.287 73.6V64.588L295.763 65.764H294.227L289.475 72.916H295.379L296.231 72.844H299.171V75.664H286.343V73.192L293.915 61.816H297.287V79H294.083ZM305.654 79L312.23 61.816H315.29L321.854 79H318.338L314.402 67.78L313.766 65.74H313.694L313.058 67.78L309.086 79H305.654ZM308.714 75.196L309.614 72.724H317.486L318.422 75.196H308.714ZM323.519 84.16V66.676H326.555V69.076L325.847 68.284H326.627C327.003 67.692 327.555 67.212 328.283 66.844C329.011 66.468 329.827 66.28 330.731 66.28C332.395 66.28 333.775 66.88 334.871 68.08C335.967 69.272 336.515 70.848 336.515 72.808C336.515 74.728 335.963 76.308 334.859 77.548C333.763 78.78 332.375 79.396 330.695 79.396C329.839 79.396 329.055 79.228 328.343 78.892C327.639 78.548 327.115 78.096 326.771 77.536H326.699V84.16H323.519ZM330.011 76.696C330.979 76.696 331.787 76.336 332.435 75.616C333.083 74.888 333.407 73.96 333.407 72.832C333.407 71.688 333.079 70.76 332.423 70.048C331.767 69.336 330.963 68.98 330.011 68.98C329.059 68.98 328.251 69.336 327.587 70.048C326.931 70.76 326.603 71.688 326.603 72.832C326.603 73.952 326.931 74.876 327.587 75.604C328.243 76.332 329.051 76.696 330.011 76.696ZM338.706 79V66.676H341.742V68.992L341.382 68.596H341.814C342.054 67.924 342.498 67.372 343.146 66.94C343.794 66.5 344.482 66.28 345.21 66.28C345.426 66.28 345.646 66.3 345.87 66.34C346.102 66.372 346.31 66.42 346.494 66.484C346.678 66.54 346.77 66.568 346.77 66.568V69.604C346.77 69.604 346.646 69.564 346.398 69.484C346.158 69.396 345.894 69.324 345.606 69.268C345.326 69.212 345.07 69.184 344.838 69.184C343.99 69.184 343.286 69.496 342.726 70.12C342.166 70.744 341.886 71.54 341.886 72.508V79H338.706Z" fill="white"/>
</svg>
