<svg width="40" height="40" viewBox="0 0 40 40" fill="none" xmlns="http://www.w3.org/2000/svg">
<path fill-rule="evenodd" clip-rule="evenodd" d="M20.3946 8.03385C27.221 8.03408 32.7554 13.5682 32.7554 20.3946C32.7552 27.2209 27.2209 32.7552 20.3946 32.7554C13.5682 32.7554 8.03408 27.221 8.03385 20.3946C8.03385 13.568 13.568 8.03385 20.3946 8.03385ZM20.3946 24.4682C19.5938 24.4682 18.9444 25.1176 18.9443 25.9185C18.9444 26.7193 19.5938 27.3688 20.3946 27.3688H20.4077C21.2085 27.3688 21.8579 26.7193 21.858 25.9185C21.8579 25.1177 21.2085 24.4682 20.4077 24.4682H20.3946ZM20.3946 13.4195C19.5938 13.4195 18.9444 14.069 18.9443 14.8698V20.3946C18.9445 21.1953 19.5939 21.844 20.3946 21.844C21.1952 21.8437 21.8437 21.1952 21.844 20.3946V14.8698C21.8438 14.0691 21.1953 13.4197 20.3946 13.4195Z" fill="#ACCBFF"/>
<path fill-rule="evenodd" clip-rule="evenodd" d="M20 0C31.0457 0 40 8.95431 40 20C40 31.0457 31.0457 40 20 40C8.95431 40 0 31.0457 0 20C0 8.95431 8.95431 0 20 0ZM20.3946 5.13321C11.9663 5.13321 5.13321 11.9663 5.13321 20.3946C5.13344 28.8228 11.9664 35.6551 20.3946 35.6551C28.8227 35.6548 35.6548 28.8227 35.6551 20.3946C35.6551 11.9664 28.8228 5.13344 20.3946 5.13321Z" fill="#ACCBFF"/>
</svg>
