<svg width="40" height="40" viewBox="0 0 40 40" fill="none" xmlns="http://www.w3.org/2000/svg">
<path fill-rule="evenodd" clip-rule="evenodd" d="M20 0C31.0457 0 40 8.95431 40 20C40 31.0457 31.0457 40 20 40C8.95431 40 0 31.0457 0 20C0 8.95431 8.95431 0 20 0ZM27.1144 8.17308C26.1336 8.1731 25.1619 8.36654 24.2558 8.74199C23.3498 9.11746 22.5262 9.66794 21.8329 10.3616L20.3946 11.7999L18.9553 10.3616C17.5547 8.96091 15.6547 8.17408 13.6739 8.17408C11.6931 8.17409 9.79308 8.96092 8.39243 10.3616C6.99205 11.7621 6.20505 13.6615 6.20493 15.642C6.20493 17.6228 6.99192 19.5228 8.39243 20.9235L20.3946 32.9257L32.3958 20.9235C33.0895 20.2301 33.64 19.4067 34.0154 18.5006C34.3908 17.5945 34.5843 16.6228 34.5843 15.642C34.5843 14.6614 34.3908 13.6904 34.0154 12.7845C33.64 11.8784 33.0895 11.055 32.3958 10.3616C31.7025 9.66788 30.8791 9.11746 29.973 8.74199C29.0668 8.36652 28.0953 8.17308 27.1144 8.17308Z" fill="#ACCBFF"/>
</svg>
