<svg width="40" height="40" viewBox="0 0 40 40" fill="none" xmlns="http://www.w3.org/2000/svg">
<path fill-rule="evenodd" clip-rule="evenodd" d="M20 0C31.0457 0 40 8.95431 40 20C40 31.0457 31.0457 40 20 40C8.95431 40 0 31.0457 0 20C0 8.95431 8.95431 0 20 0ZM15.4217 3.82111C14.7531 3.82138 14.1552 4.22309 13.8972 4.83073L13.8502 4.95493L9.25581 18.737H3.82111C2.90591 18.7371 2.16346 19.4794 2.16346 20.3946C2.16368 21.3097 2.90604 22.0512 3.82111 22.0513H10.4507C11.1638 22.0511 11.7966 21.5949 12.0222 20.9185L15.4217 10.7181L23.7941 35.8343C24.0197 36.5107 24.6526 36.9669 25.3656 36.9671C26.0788 36.9671 26.7124 36.5108 26.9381 35.8343L31.5325 22.0513H36.9671C37.8822 22.0512 38.6236 21.3097 38.6238 20.3946C38.6238 19.4794 37.8823 18.7371 36.9671 18.737H30.3375C29.669 18.7371 29.0702 19.1381 28.8121 19.7456L28.766 19.8708L25.3656 30.0691L16.9942 4.95493C16.7686 4.27819 16.135 3.82111 15.4217 3.82111Z" fill="#ACCBFF"/>
</svg>
