<svg width="40" height="40" viewBox="0 0 40 40" fill="none" xmlns="http://www.w3.org/2000/svg">
<path fill-rule="evenodd" clip-rule="evenodd" d="M20 0C31.0457 0 40 8.95431 40 20C40 31.0457 31.0457 40 20 40C8.95431 40 0 31.0457 0 20C0 8.95431 8.95431 0 20 0ZM15.641 23.2482C14.485 23.2482 13.3765 23.7042 12.5591 24.5162C11.7417 25.3283 11.2821 26.4297 11.2821 27.5781C11.2821 27.5781 11.2821 28.898 11.2821 29.7436H28.718V27.5781C28.7179 25.641 28.2583 25.3283 27.4409 24.5162C26.6235 23.7042 25.515 23.2482 24.359 23.2482H15.641ZM20 10.2564C17.5926 10.2564 15.641 12.1957 15.641 14.5873C15.6413 16.9788 17.5928 18.9173 20 18.9173C22.4072 18.9173 24.3587 16.9788 24.359 14.5873C24.359 12.1957 22.4074 10.2564 20 10.2564Z" fill="#ACCBFF"/>
</svg>
