<svg width="507" height="970" viewBox="0 0 507 970" fill="none" xmlns="http://www.w3.org/2000/svg">
<g clip-path="url(#clip0_5197_3022)">
<path d="M292.13 22.7633C296.168 26.1871 299.508 29.8556 302.833 33.9625C303.493 34.2925 304.153 34.6225 304.833 34.9625C304.833 35.6225 304.833 36.2825 304.833 36.9625C305.703 37.3202 305.703 37.3202 306.591 37.6852C315.36 42.6808 321.498 55.3508 324.52 64.65C328.783 80.6598 330.33 95.3441 326.391 111.587C325.817 115.057 326.049 117.558 326.833 120.962C327.493 120.962 328.153 120.962 328.833 120.962C328.833 121.622 328.833 122.282 328.833 122.962C329.802 123.251 330.771 123.54 331.77 123.837C334.833 124.962 334.833 124.962 335.833 126.962C336.504 137.867 336.373 150.871 331.833 160.962C331.173 160.962 330.513 160.962 329.833 160.962C329.833 161.952 329.833 162.942 329.833 163.962C329.173 163.962 328.513 163.962 327.833 163.962C327.833 164.622 327.833 165.282 327.833 165.962C324.4 167.473 321.208 168.861 317.583 169.837C314.022 171.294 313.535 172.539 311.833 175.962C311.063 178.636 310.377 181.254 309.77 183.962C308.053 191.439 308.053 191.439 306.782 194.462C305.481 197.888 305.102 201.345 304.708 204.962C304.624 205.709 304.541 206.456 304.455 207.225C303.005 220.309 303.005 220.309 305.833 232.962C308.054 234.727 309.908 235.808 312.727 236.279C315.284 236.822 316.736 237.36 318.833 238.962C321.107 243.194 322.675 247.558 324.201 252.105C325.033 254.552 325.985 256.943 326.958 259.337C327.271 260.111 327.584 260.884 327.907 261.681C328.212 262.434 328.518 263.187 328.833 263.962C329.149 264.777 329.464 265.592 329.79 266.431C330.113 267.225 330.437 268.019 330.77 268.837C331.186 269.886 331.186 269.886 331.61 270.955C334.829 276.24 340.446 278.374 345.895 280.712C346.672 281.053 347.448 281.394 348.248 281.745C352.539 283.609 356.858 285.382 361.216 287.084C362.101 287.43 362.987 287.776 363.899 288.133C365.602 288.794 367.308 289.445 369.018 290.085C374.278 292.112 378.331 294.574 382.833 297.962C384.185 298.695 385.556 299.394 386.958 300.025C390.321 301.633 392.943 303.592 395.833 305.962C397.521 306.936 399.21 307.908 400.915 308.853C402.93 310.019 404.843 311.281 406.77 312.587C409.643 314.536 412.545 316.413 415.508 318.22C427.788 325.716 438.876 333.89 449.395 343.736C451.749 345.973 451.749 345.973 454.23 347.683C457.249 350.327 459.071 353.154 460.919 356.658C461.265 357.315 461.611 357.972 461.968 358.648C465.678 366.088 467.106 373.698 468.458 381.837C468.736 383.397 469.017 384.956 469.3 386.514C469.878 389.72 470.443 392.928 470.995 396.139C471.816 400.898 472.685 405.648 473.567 410.396C474.611 416.037 475.65 421.68 476.669 427.326C476.87 428.443 477.072 429.559 477.279 430.71C477.86 434.12 478.352 437.537 478.833 440.962C479.009 442.011 479.186 443.059 479.368 444.138C479.629 445.691 479.629 445.691 479.895 447.275C480.072 448.302 480.248 449.33 480.43 450.388C480.747 453.199 480.842 455.71 480.792 458.519C480.772 463.949 481.273 469.241 481.891 474.63C482.115 476.681 482.338 478.731 482.561 480.781C482.912 483.944 483.265 487.106 483.621 490.269C485.195 504.346 486.23 518.327 486.733 532.482C486.917 537.052 487.255 541.609 487.581 546.171C488.62 560.78 489.108 575.366 489.383 590.008C489.594 601.205 489.9 612.391 490.372 623.58C490.42 624.718 490.468 625.856 490.517 627.029C490.754 632.604 491.002 638.179 491.26 643.753C491.35 645.786 491.439 647.82 491.528 649.853C491.574 650.774 491.619 651.695 491.667 652.644C492.184 664.73 492.184 664.73 489.493 669.177C488.702 670.03 488.702 670.03 487.895 670.9C487.108 671.78 487.108 671.78 486.305 672.677C484.833 673.963 484.833 673.963 482.833 673.963C482.461 674.736 482.461 674.736 482.083 675.525C480.833 677.963 480.833 677.963 478.895 681.025C477.145 684.036 476.234 686.899 475.395 690.275C473.979 695.954 471.64 700.848 468.833 705.963C468.173 705.963 467.513 705.963 466.833 705.963C466.544 706.726 466.255 707.489 465.958 708.275C464.833 710.963 464.833 710.963 462.833 713.963C462.173 713.963 461.513 713.963 460.833 713.963C460.717 714.516 460.601 715.069 460.481 715.638C459.736 718.31 458.65 720.646 457.458 723.15C454.7 729.148 452.56 735.024 450.973 741.435C449.387 747.825 447.706 753.605 444.583 759.463C441.465 765.39 441.465 765.39 441.833 771.963C444.283 776.123 446.804 779.277 450.833 781.963C450.833 782.623 450.833 783.283 450.833 783.963C451.45 784.222 452.068 784.481 452.704 784.748C457.711 787.605 459.049 794.351 460.52 799.588C460.967 801.377 461.406 803.168 461.833 804.963C462.235 806.478 462.235 806.478 462.645 808.025C462.828 810.89 462.484 812.759 461.833 815.525C459.726 825.267 460.847 833.698 466.032 842.213C466.626 843.12 467.22 844.028 467.833 844.963C468.458 845.953 469.083 846.943 469.727 847.963C472.959 852.96 476.356 857.686 480.145 862.275C483.872 866.861 486.759 870.654 486.895 876.775C485.3 881.561 482.848 885.915 479.833 889.963C479.173 889.963 478.513 889.963 477.833 889.963C477.544 890.705 477.255 891.448 476.958 892.213C475.833 894.963 475.833 894.963 474.708 896.775C472.952 901.164 473.326 905.562 474.895 909.9C476.687 915.753 475.405 920.935 472.915 926.404C470.348 932.66 469.514 938.979 468.645 945.65C468.481 946.834 468.316 948.018 468.147 949.238C467.523 953.745 466.926 958.256 466.329 962.767C463.398 981.642 457.058 999.486 450.758 1017.44C449.134 1022.08 447.56 1026.73 446.02 1031.4C443.267 1039.68 440.158 1047.43 436.391 1055.31C434.272 1059.81 432.647 1064.27 431.438 1069.11C430.833 1070.96 430.833 1070.96 428.833 1072.96C428.111 1075.03 427.398 1077.09 426.731 1079.17C421.735 1094.68 416.012 1110.09 407.489 1124.02C404.282 1129.72 402.053 1135.83 399.833 1141.96C399.603 1142.6 399.373 1143.23 399.137 1143.88C397.591 1148.21 396.097 1152.54 394.833 1156.96C394.57 1157.84 394.308 1158.71 394.037 1159.61C391.085 1170.58 391.39 1181.56 391.397 1192.83C391.371 1212.05 391.371 1212.05 386.833 1219.96C386.457 1220.65 386.081 1221.34 385.693 1222.05C384.58 1224.02 383.411 1225.93 382.208 1227.84C380.74 1230.21 379.283 1232.58 377.833 1234.96C377.2 1235.9 377.2 1235.9 376.555 1236.86C375.109 1241.07 375.806 1245.74 375.999 1250.14C376.131 1255.59 375.315 1259.1 372.833 1263.96C372.503 1264.62 372.173 1265.28 371.833 1265.96C371.173 1265.96 370.513 1265.96 369.833 1265.96C367.633 1274.47 370.733 1279.92 374.867 1287.25C375.756 1288.83 376.611 1290.43 377.462 1292.03C379.618 1296.08 381.845 1300.04 384.333 1303.9C386.927 1307.98 389.049 1312.24 391.165 1316.58C392.34 1318.96 393.537 1321.31 394.782 1323.66C403.329 1339.91 412.648 1361.11 407.673 1379.84C406.225 1383.5 404.43 1386.98 401.833 1389.96C401.173 1389.96 400.513 1389.96 399.833 1389.96C399.606 1390.54 399.379 1391.12 399.145 1391.71C397.317 1394.85 396.019 1396.11 392.833 1397.96C375.96 1401.59 352.802 1398.74 337.833 1389.96C332.086 1386.17 326.326 1382.23 321.833 1376.96C321.833 1376.3 321.833 1375.64 321.833 1374.96C321.173 1374.96 320.513 1374.96 319.833 1374.96C312.53 1367.52 310.749 1360.98 310.77 1350.84C310.786 1349.54 310.801 1348.25 310.817 1346.92C311.048 1333.46 311.048 1333.46 306.833 1320.96C302.82 1318.63 300.479 1317.96 295.833 1317.96C295.503 1318.62 295.173 1319.28 294.833 1319.96C288.202 1314.85 282.605 1308.51 278.833 1300.96C278.353 1291.04 278.896 1281.01 279.208 1271.09C279.254 1269.38 279.254 1269.38 279.301 1267.63C279.644 1257.87 280.497 1249.6 285.458 1241.09C288.945 1234.65 289.931 1229.21 288.833 1221.96C288.442 1220.7 288.052 1219.44 287.649 1218.14C286.42 1213.39 287.526 1209.97 289.208 1205.46C289.484 1204.68 289.761 1203.9 290.046 1203.1C293.288 1194.24 297.626 1186 302.036 1177.69C308.784 1164.95 308.784 1164.95 311.833 1150.96C313.997 1135.46 318.065 1122.71 324.92 1108.75C330.962 1096.33 335.541 1084.75 330.833 1070.96C329.966 1068.77 329.09 1066.58 328.208 1064.4C324.095 1053.84 326.333 1047.54 329.833 1036.96C333.388 1025.98 336.511 1014.95 339.395 1003.78C341.76 994.635 344.18 985.552 347.04 976.551C350.492 965.276 349.343 953.349 346.391 942.119C345.43 936.686 346.672 932.782 349.27 928.025C352.485 921.819 354.703 916.048 353.833 908.963C351.522 903.797 348.988 900.477 343.833 897.963C340.794 897.323 340.794 897.323 337.583 897.025C327.33 895.578 320.087 890.984 311.567 885.384C307.921 882.998 304.205 880.748 300.458 878.525C295.962 875.858 291.51 873.139 287.101 870.33C264.151 854.186 264.151 854.186 238.051 847.412C229.495 849.536 221.58 853.674 214.505 858.861C212.833 859.963 212.833 859.963 210.833 859.963C210.833 860.623 210.833 861.283 210.833 861.963C209.843 861.963 208.853 861.963 207.833 861.963C207.833 862.623 207.833 863.283 207.833 863.963C206.183 864.293 204.533 864.623 202.833 864.963C202.833 865.623 202.833 866.283 202.833 866.963C202.296 867.219 201.76 867.476 201.208 867.74C189.472 873.473 178.19 879.876 167.399 887.232C158.9 892.963 158.9 892.963 155.833 892.963C155.833 893.623 155.833 894.283 155.833 894.963C155.173 894.963 154.513 894.963 153.833 894.963C153.173 896.283 152.513 897.603 151.833 898.963C151.173 898.963 150.513 898.963 149.833 898.963C148.032 903.913 147.349 906.785 149.458 911.713C151.147 915.051 153.026 917.457 155.833 919.963C155.833 920.623 155.833 921.283 155.833 921.963C156.823 922.293 157.813 922.623 158.833 922.963C164.13 932.287 163.908 943.469 164.208 953.9C164.874 976.073 167.516 998.325 170.901 1020.24C171.657 1025.26 172.069 1030.2 172.27 1035.28C172.918 1050.58 175.401 1066.62 180.833 1080.96C181.063 1081.58 181.293 1082.2 181.53 1082.84C186.845 1096.93 193.631 1110.41 201.695 1123.14C208.763 1134.47 211.378 1146.02 213.708 1158.99C214.432 1162.99 215.308 1166.9 216.333 1170.84C217.906 1177.48 218.716 1184.19 219.52 1190.96C219.652 1192.04 219.783 1193.12 219.919 1194.24C220.982 1203.68 221.441 1213.08 220.145 1222.53C219.515 1228.78 221.124 1233.98 222.833 1239.96C223.572 1242.83 224.268 1245.71 224.958 1248.59C225.128 1249.27 225.298 1249.95 225.474 1250.65C227.934 1260.86 228.153 1271.29 228.293 1281.75C228.319 1283.27 228.36 1284.79 228.416 1286.31C228.925 1300.56 228.925 1300.56 224.598 1306.17C223.37 1307.46 222.117 1308.73 220.833 1309.96C220.013 1310.99 219.193 1312.01 218.348 1313.06C212.292 1319.81 212.292 1319.81 207.958 1320.26C206.068 1320.02 204.184 1319.73 202.313 1319.37C199.651 1318.76 199.651 1318.76 196.395 1319.9C192.89 1322.72 191.43 1325.82 189.833 1329.96C189.482 1330.81 189.131 1331.66 188.77 1332.53C187.707 1336.42 187.472 1340.04 187.252 1344.06C186.545 1356.7 184.935 1367.27 175.063 1376.19C166.171 1383.27 157.263 1389.33 146.833 1393.96C145.969 1394.36 145.105 1394.76 144.215 1395.18C138.402 1397.72 133.157 1398.75 126.833 1398.96C125.834 1399 124.835 1399.04 123.805 1399.08C113.787 1399.29 102.597 1399.33 93.8327 1393.96C87.8378 1387.88 87.8442 1380.03 87.7272 1371.86C87.9055 1356.82 93.3862 1345.26 101.833 1332.96C102.791 1331.51 103.747 1330.06 104.7 1328.6C109.214 1321.72 113.709 1314.9 118.864 1308.48C136.787 1287.74 136.787 1287.74 143.833 1262.96C142.045 1259.5 139.944 1256.71 136.708 1254.53C133.678 1252 132.673 1248.7 131.833 1244.96C131.78 1243.38 131.782 1241.8 131.833 1240.21C132.31 1222.83 122.129 1206.91 112.833 1192.96C110.056 1182.83 109.262 1172.55 108.612 1162.1C106.733 1133.05 98.7869 1106.15 81.4577 1082.15C77.0731 1076.04 73.4468 1069.54 69.8327 1062.96C69.4906 1062.34 69.1485 1061.72 68.7961 1061.08C66.4144 1056.74 64.1 1052.37 61.8327 1047.96C61.2732 1046.88 60.7138 1045.8 60.1374 1044.69C49.712 1023.47 47.4746 997.329 46.4577 973.963C45.5203 957.484 40.9688 943.042 32.5124 928.923C28.8223 922.419 24.6733 914.501 26.61 906.92C27.1843 905.363 27.1843 905.363 27.7702 903.775C31.7525 891.452 29.2018 882.652 24.8327 870.963C23.5428 867.093 24.1847 864.573 25.8327 860.963C26.9992 859.426 28.1889 857.906 29.3952 856.4C34.6483 849.185 33.9132 841.522 33.7663 832.943C33.747 831.629 33.7276 830.316 33.7077 828.963C33.6639 827.766 33.62 826.57 33.5749 825.338C33.8327 821.963 33.8327 821.963 35.3405 819.025C36.9086 815.807 36.996 813.681 36.8576 810.149C36.8113 806.082 37.5231 802.098 38.1452 798.088C38.2805 797.201 38.4159 796.315 38.5553 795.402C39.6562 788.486 41.152 781.86 43.9343 775.408C47.7743 764.826 42.8729 755.796 38.8327 745.963C38.4279 744.898 38.0232 743.833 37.6061 742.736C34.9439 735.745 32.1952 729.362 27.196 723.728C21.9708 716.961 17.767 708.695 17.3053 700.123C17.203 698.423 17.203 698.423 17.0986 696.69C17.0315 695.48 16.9643 694.271 16.8952 693.025C16.3602 684.503 15.6952 676.089 14.3952 667.65C12.9508 657.993 12.0733 648.305 11.2929 638.576C11.1548 636.859 11.0133 635.143 10.8679 633.427C9.72928 619.871 8.90378 606.898 13.8327 593.963C14.558 591.76 15.2652 589.551 15.9577 587.338C16.2903 586.293 16.6228 585.249 16.9655 584.173C18.6295 578.012 18.9926 572.047 18.9577 565.713C18.9616 565.025 18.9654 564.338 18.9694 563.63C18.962 559.6 18.7067 555.69 18.2507 551.685C17.6583 545.547 18.2268 539.747 19.0202 533.65C19.1582 532.547 19.2962 531.444 19.4384 530.307C20.3528 523.439 21.661 517.079 23.7936 510.486C25.3596 505.176 26.3396 499.766 27.35 494.327C28.3399 489.094 29.5913 483.995 31.0273 478.867C31.8704 475.826 32.6639 472.777 33.446 469.72C36.1572 459.137 38.8918 448.574 41.9577 438.087C44.7652 428.473 47.1202 418.773 49.3554 409.011C50.4665 404.242 51.7831 399.54 53.1452 394.837C53.3456 394.129 53.5461 393.42 53.7526 392.689C55.1637 387.831 56.8821 383.173 58.7997 378.493C59.8099 376.018 60.7743 373.53 61.7272 371.033C66.2808 359.226 70.8195 348 79.4929 338.545C80.894 336.89 81.9136 335.235 82.9577 333.337C84.6882 330.223 86.4385 327.596 88.8327 324.962C89.4927 324.962 90.1527 324.962 90.8327 324.962C90.8327 324.302 90.8327 323.642 90.8327 322.962C92.1882 321.63 92.1882 321.63 94.0202 320.15C96.2241 318.359 98.2038 316.575 100.173 314.517C104.766 310.105 110.382 307.192 115.833 303.962C116.451 303.558 117.07 303.153 117.708 302.736C122.672 299.555 128.346 298.043 133.915 296.248C142.214 293.557 150.289 290.437 158.032 286.408C160.251 285.263 162.478 284.162 164.727 283.08C177.252 277.413 177.252 277.413 186.833 267.962C187.204 266.746 187.575 265.529 187.958 264.275C189.491 259.493 191.605 255.076 193.833 250.587C194.177 249.885 194.521 249.183 194.876 248.46C197.944 242.377 201.045 239.533 206.833 235.962C207.493 235.962 208.153 235.962 208.833 235.962C210.839 224.006 211.655 210.28 206.833 198.962C206.328 197.673 205.828 196.381 205.333 195.087C205.084 194.456 204.835 193.824 204.579 193.173C203.316 189.432 202.57 185.56 201.774 181.697C200.672 178.495 199.495 177.034 196.833 174.962C194.823 174.707 192.812 174.456 190.794 174.287C187.607 173.76 186.013 172.267 183.833 169.962C181.315 165.578 180.185 161.617 179.333 156.65C179.214 155.967 179.095 155.284 178.972 154.581C178.72 153.131 178.471 151.68 178.225 150.228C177.821 147.895 177.385 145.57 176.942 143.244C176.655 141.713 176.369 140.181 176.083 138.65C175.873 137.566 175.873 137.566 175.659 136.459C175.056 133.152 174.751 131.207 175.833 127.962C176.967 127.529 178.101 127.096 179.27 126.65C182.968 125.325 182.968 125.325 184.27 122.337C186.065 111.566 184.566 99.5716 183.208 88.775C181.666 73.4626 184.185 51.43 193.833 38.9625C196.645 36.4 196.645 36.4 198.833 34.9625C199.163 34.3025 199.493 33.6425 199.833 32.9625C200.493 32.9625 201.153 32.9625 201.833 32.9625C201.833 32.3025 201.833 31.6425 201.833 30.9625C203.887 29.4433 205.922 28.0659 208.083 26.7125C208.713 26.3121 209.343 25.9117 209.993 25.4991C214.913 22.4228 219.966 19.7396 225.212 17.2516C227.844 16.0319 227.844 16.0319 230.126 14.4078C233.84 12.4248 237.447 11.8415 241.583 11.2125C242.416 11.0847 243.249 10.9569 244.108 10.8253C262.315 8.32051 277.508 11.2996 292.13 22.7633ZM94.0827 533.088C89.9852 538.323 88.9311 544.29 87.4577 550.65C87.2407 551.575 87.0238 552.499 86.8002 553.452C82.8026 570.543 82.8026 570.543 79.2741 587.736C78.9579 589.331 78.6076 590.919 78.235 592.502C75.4391 604.759 79.4149 614.333 84.7468 625.384C86.5607 629.691 87.1435 632.817 85.8952 637.338C84.5034 643.154 83.9526 647.503 86.8483 652.892C89.5355 658.752 89.0957 664.258 88.9577 670.588C89.051 684.86 93.3716 692.488 103.165 702.353C104.045 703.214 104.926 704.075 105.833 704.963C110.248 703.693 110.248 703.693 113.833 700.963C114.62 695.281 113.416 690.405 111.833 684.963C111.287 682.135 111.082 679.763 111.833 676.963C113.294 675.322 113.294 675.322 115.145 673.713C120.004 669.368 121.323 664.354 121.833 657.963C121.379 654.364 120.218 651.301 118.833 647.963C117.978 645.713 117.124 643.463 116.27 641.213C115.856 640.166 115.443 639.119 115.016 638.041C114.43 636.517 114.43 636.517 113.833 634.963C113.454 633.994 113.075 633.026 112.684 632.029C111.685 628.432 111.673 625.378 111.77 621.65C111.849 616.83 111.761 612.165 111.114 607.384C110.605 603.006 110.441 598.598 110.212 594.197C109.969 590.75 109.414 587.399 108.833 583.994C107.601 576.243 107.417 568.539 107.27 560.713C107.747 546.723 107.747 546.723 104.645 533.463C100.831 530.306 97.9894 530.069 94.0827 533.088Z" stroke="white" stroke-width="3" stroke-linecap="round" stroke-dasharray="25 25"/>
</g>
<defs>
<clipPath id="clip0_5197_3022">
<rect width="507" height="970" fill="white"/>
</clipPath>
</defs>
</svg>
